<svg xmlns="http://www.w3.org/2000/svg" xmlns:xlink="http://www.w3.org/1999/xlink" width="24" height="24" viewBox="0 0 24 24">
    <defs>
        <path id="a" d="M17 4h1a3 3 0 0 1 3 3v11a3 3 0 0 1-3 3H7a3 3 0 0 1-3-3V7a3 3 0 0 1 3-3h1a1 1 0 1 1 2 0h5a1 1 0 0 1 2 0zm0 2a1 1 0 0 1-2 0h-5a1 1 0 1 1-2 0H7a1 1 0 0 0-1 1v11a1 1 0 0 0 1 1h11a1 1 0 0 0 1-1V7a1 1 0 0 0-1-1h-1zM6 8h13v2H6V8zm3 4h6a1 1 0 0 1 0 2H9a1 1 0 0 1 0-2zm0 3h2a1 1 0 0 1 0 2H9a1 1 0 0 1 0-2z"/>
    </defs>
    <g fill="none" fill-rule="evenodd">
        <mask id="b" fill="#fff">
            <use xlink:href="#a"/>
        </mask>
        <use fill="#1B2A31" fill-rule="nonzero" xlink:href="#a"/>
        <g fill="#23333A" mask="url(#b)">
            <path d="M0 0h24v24H0z"/>
        </g>
    </g>
</svg>
