<svg xmlns="http://www.w3.org/2000/svg" width="32" height="32" viewBox="0 0 98.693 84.506"><path fill="#000" fill-rule="evenodd" d="m48.381 0c-0.828 0-1.5 0.672-1.5 1.5v6.5352h-8.6934c-0.828 0-1.5 0.672-1.5 1.5v10.805h-10.633l-2.5098-9.3008c-0.177-0.655-0.77122-1.1094-1.4492-1.1094h-5.1543c-0.285-2.21-2.1554-3.9297-4.4414-3.9297h-8c-2.481 0-4.5 2.018-4.5 4.5v1c0 2.481 2.019 4.5 4.5 4.5h8c1.979 0 3.6441-1.2913 4.2441-3.0703h4.2031l13.9 51.521c0.177 0.654 0.76927 1.1094 1.4473 1.1094h48.99c0.82801 0 1.5-0.672 1.5-1.5s-0.67199-1.5-1.5-1.5h-47.84l-2.0684-7.666h52.666c0.668 0 1.2534-0.44103 1.4394-1.082l9.1504-31.555c0.132-0.453 0.0428-0.94036-0.24023-1.3184-0.283-0.377-0.72822-0.59961-1.1992-0.59961h-8.3262c-0.43-7.016-5.9954-12.655-12.982-13.195v-5.6445c0-0.828-0.672-1.5-1.5-1.5zm1.5 3h23.004v17.025h-11.197v-10.49c0-0.828-0.672-1.5-1.5-1.5h-10.307zm-45.381 6h8c0.827 0 1.5 0.673 1.5 1.5v1c0 0.827-0.673 1.5-1.5 1.5h-8c-0.827 0-1.5-0.673-1.5-1.5v-1c0-0.827 0.673-1.5 1.5-1.5zm71.385 1.1445c5.334 0.525 9.5644 4.8323 9.9824 10.195h-9.9824zm-36.197 0.89062h19v8.9902h-19zm-12.824 12.305h68.332l-8.2793 28.555h-52.348zm18.598 3.1602c-0.4812 0.01289-0.94782 0.25586-1.2266 0.69336l-7 11c-0.445 0.699-0.23901 1.6273 0.45899 2.0723 0.25 0.159 0.52869 0.23438 0.80469 0.23438 0.495 0 0.98157-0.24531 1.2676-0.69531l7-11c0.444-0.699 0.23707-1.6253-0.46093-2.0703-0.26175-0.1665-0.55504-0.24211-0.84375-0.23438zm7.2266 0.5c-0.4814 0.01289-0.94844 0.25586-1.2266 0.69336l-11.455 18c-0.444 0.699-0.23706 1.6273 0.46094 2.0723 0.25 0.159 0.52768 0.23438 0.80468 0.23438 0.495 0 0.97963-0.24531 1.2656-0.69531l11.455-18c0.445-0.699 0.24001-1.6253-0.45899-2.0703-0.26175-0.1665-0.55686-0.24211-0.8457-0.23438zm-14.184 42.506c-4.136 0-7.5 3.365-7.5 7.5 0 4.136 3.364 7.5 7.5 7.5 4.136 0 7.5-3.364 7.5-7.5 0-4.135-3.364-7.5-7.5-7.5zm44.49 0c-4.135 0-7.5 3.365-7.5 7.5 0 4.136 3.365 7.5 7.5 7.5 4.136 0 7.5-3.364 7.5-7.5 0-4.135-3.364-7.5-7.5-7.5zm-44.49 3c2.482 0 4.5 2.019 4.5 4.5 0 2.482-2.018 4.5-4.5 4.5-2.481 0-4.5-2.018-4.5-4.5 0-2.481 2.019-4.5 4.5-4.5zm44.49 0c2.482 0 4.5 2.019 4.5 4.5 0 2.482-2.018 4.5-4.5 4.5-2.481 0-4.5-2.018-4.5-4.5 0-2.481 2.019-4.5 4.5-4.5z"/></svg>