<svg xmlns="http://www.w3.org/2000/svg" width="26" height="26" viewBox="0 0 26 26">
    <path fill="#2C3F48" fill-rule="evenodd" d="M26 13c0 7.18-5.82 13-13 13S0 20.18 0 13 5.82 0 13 0s13 5.82 13 13zM13 3.198c-5.413 0-9.802 4.389-9.802 9.802 0 5.414 4.389 9.802 9.802 9.802 5.413 0 9.802-4.388 9.802-9.802 0-5.413-4.389-9.802-9.802-9.802zM6.938 17.721v-6.9c.001-.12.043-1.186 1.186-1.186h6.699V6.328c.006-.201.148-.201.201-.201h2.958c.053 0 .194 0 .201.205v5.476c0 .12-.044 1.186-1.186 1.186h-6.7v2.556h7.685c.053 0 .194 0 .201.204v2.953c-.007.201-.148.201-.2.201H8.123c-1.143 0-1.185-1.066-1.186-1.187z"/>
</svg>
