<svg xmlns="http://www.w3.org/2000/svg" width="32" height="32" viewBox="0 0 32 32">
    <path fill="#000" fill-rule="evenodd" d="M24 3c2.2 0 4 1.8 4 4v18c0 2.199-1.8 4-4 4H8c-2.2 0-4-1.801-4-4V7c0-2.2 1.8-4 4-4h16zm0 3H8c-.542 0-1 .458-1 1v18c0 .542.458 1 1 1h16c.542 0 1-.458 1-1V7c0-.542-.458-1-1-1zm-6.25 15.333a1.5 1.5 0 0 0-1.5-1.5h-5a1.5 1.5 0 1 0 0 3h5a1.5 1.5 0 0 0 1.5-1.5zm4.5-10.25a1.5 1.5 0 0 0-1.5-1.5h-9.5a1.5 1.5 0 1 0 0 3h9.5a1.5 1.5 0 0 0 1.5-1.5zm-1.5 6.667h-9.5a1.5 1.5 0 1 1 0-3h9.5a1.5 1.5 0 1 1 0 3z"/>
</svg>
