<svg xmlns="http://www.w3.org/2000/svg" xmlns:xlink="http://www.w3.org/1999/xlink" width="250" height="250" viewBox="0 0 250 250">
    <defs>
        <path id="a" d="M233.371 250H16.63C7.496 250 0 239.487 0 226.568V23.521C0 10.602 7.496 0 16.629 0H233.37C242.504 0 250 10.602 250 23.521v203.047c0 12.919-7.496 23.432-16.629 23.432z"/>
    </defs>
    <g fill="none" fill-rule="evenodd">
        <g>
            <mask id="b" fill="#fff">
                <use xlink:href="#a"/>
            </mask>
            <g fill="#009DE0" mask="url(#b)">
                <path d="M0 0h250v250H0z"/>
            </g>
        </g>
        <path fill="#FEFEFE" d="M136.97 55.568c16.646 4.162 26.156 12.28 28.96 28.187 4.313 24.453-12.254 45.733-44.304 51.385-5.462.963-10.294 1.324-15.015.934-2.51 2.401-3.867 5.818-3.28 9.145.753 4.273 3.6 7.932 15.945 5.756l19.234-3.39c28.486-5.025 49.448 6.945 53.132 27.839 4.478 25.403-14.88 44.729-56.903 52.139-46.058 8.12-61.278-4.617-65.714-29.783l30.149-5.317c2.09 11.869 8.242 16.173 32.22 11.944 23.266-4.102 28.308-11.6 26.717-20.622-1.506-8.55-8.839-12.64-22.133-10.296l-18.523 3.266c-26.351 4.648-39.282-4.822-41.627-18.118-1.588-9.023 2.562-18.811 10.578-26.1-17.18-5.785-25.791-15.773-28.639-31.915-4.898-27.777 14.044-49.476 45.62-55.044 29.086-4.397 42.511-14.35 56.2-25.578l12.872 24.414c-8.63 5.193-20.294 8.474-35.49 11.154zM91.397 94.202c2.553 14.485 12.134 21.607 24.953 19.347 13.53-2.386 19.228-11.714 16.507-27.145-2.638-14.957-10.776-20.868-24.781-18.397-12.824 2.26-19.108 12.427-16.679 26.195z"/>
    </g>
</svg>
