<svg xmlns="http://www.w3.org/2000/svg" width="32" height="32" viewBox="0 0 32 32">
        <path fill="#000" d="M24.25 17.969a.76.76 0 0 0-.75-.75h-.375v1.406c0 .622-.503 1.125-1.125 1.125H10a1.124 1.124 0 0 1-1.125-1.125v-1.406H8.5a.76.76 0 0 0-.75.75v5.25c0 .406.344.75.75.75h15a.76.76 0 0 0 .75-.75v-5.25zM11.125 17.5h9.75V7.75h-9.75v9.75zm15.375.469v5.25c0 1.65-1.35 3-3 3h-15c-1.65 0-3-1.35-3-3v-5.25c0-1.65 1.35-3 3-3h.375V6.625c0-.622.503-1.125 1.125-1.125h12c.622 0 1.125.503 1.125 1.125v8.344h.375c1.65 0 3 1.35 3 3zm-16.336 2.695a1.124 1.124 0 1 0 0 2.25 1.124 1.124 0 0 0 0-2.25zm8.461-7.43h-5.25a1.124 1.124 0 1 0 0 2.25h5.25a1.124 1.124 0 1 0 0-2.25zm1.125-2.39c0 .622-.503 1.125-1.125 1.125h-5.25a1.124 1.124 0 1 1 0-2.25h5.25c.622 0 1.125.503 1.125 1.125z"/>
</svg>
