<svg xmlns="http://www.w3.org/2000/svg" xmlns:xlink="http://www.w3.org/1999/xlink" width="24" height="24" viewBox="0 0 24 24">
    <defs>
        <path id="a" d="M2.051 8.338h1.601c.28 0 .543.13.716.352a.937.937 0 0 1 .173.789L3.52 13.843l5.483-6.034H6a.911.911 0 0 1-.793-.467.938.938 0 0 1 .007-.93L7.81 1.953l-4.34-.086-1.418 6.47zM1.826 18a.9.9 0 0 1-.429-.109.931.931 0 0 1-.46-1.031l1.56-6.669H.913a.908.908 0 0 1-.712-.346.936.936 0 0 1-.18-.781L1.849.726A.912.912 0 0 1 2.758 0l6.651.133a.911.911 0 0 1 .78.475.938.938 0 0 1-.012.923L7.6 5.956h3.487c.362 0 .69.218.836.555.146.337.081.73-.165 1L2.498 17.7a.907.907 0 0 1-.672.299z"/>
    </defs>
    <g fill="none" fill-rule="evenodd" transform="translate(6 4)">
        <mask id="b" fill="#fff">
            <use xlink:href="#a"/>
        </mask>
        <use fill="#AD3434" xlink:href="#a"/>
        <g fill="#23333A" mask="url(#b)">
            <path d="M-6-4h24v24H-6z"/>
        </g>
    </g>
</svg>
