<?xml version="1.0" encoding="UTF-8"?>
<svg width="18px" height="23px" viewBox="0 0 18 23" version="1.1" xmlns="http://www.w3.org/2000/svg" xmlns:xlink="http://www.w3.org/1999/xlink">
    <!-- Generator: Sketch 49.1 (51147) - http://www.bohemiancoding.com/sketch -->
    <title>lock-open</title>
    <desc>Created with Sketch.</desc>
    <defs>
        <path d="M6,8 L14,8 C16.209139,8 18,9.790861 18,12 L18,19 C18,21.209139 16.209139,23 14,23 L4,23 C1.790861,23 4.4408921e-16,21.209139 0,19 L0,12 C-4.4408921e-16,9.790861 1.790861,8 4,8 L4,5 C4,2.23857625 6.23857625,5.07265313e-16 9,0 C11.7614237,-5.07265313e-16 14,2.23857625 14,5 C14,5.55228475 13.5522847,6 13,6 C12.4477153,6 12,5.55228475 12,5 C12,3.34314575 10.6568542,2 9,2 C7.34314575,2 6,3.34314575 6,5 L6,8 Z M4,10 C2.8954305,10 2,10.8954305 2,12 L2,19 C2,20.1045695 2.8954305,21 4,21 L14,21 C15.1045695,21 16,20.1045695 16,19 L16,12 C16,10.8954305 15.1045695,10 14,10 L4,10 Z M9,13 C9.55228475,13 10,13.4477153 10,14 L10,17 C10,17.5522847 9.55228475,18 9,18 C8.44771525,18 8,17.5522847 8,17 L8,14 C8,13.4477153 8.44771525,13 9,13 Z" id="path-1"></path>
    </defs>
    <g id="Page-1" stroke="none" stroke-width="1" fill="none" fill-rule="evenodd">
        <g id="lock-open">
            <mask id="mask-2" fill="white">
                <use xlink:href="#path-1"></use>
            </mask>
            <g id="a"></g>
            <g id="Group" mask="url(#mask-2)" fill="#000000" fill-rule="nonzero">
                <g transform="translate(-3.000000, 0.000000)" id="Shape">
                    <polygon points="0 0 24 0 24 24 0 24"></polygon>
                </g>
            </g>
        </g>
    </g>
</svg>