<svg xmlns="http://www.w3.org/2000/svg" xmlns:xlink="http://www.w3.org/1999/xlink" width="24" height="24" viewBox="0 0 24 24">
    <defs>
        <path id="a" d="M9 8h8a4 4 0 0 1 4 4v7a4 4 0 0 1-4 4H7a4 4 0 0 1-4-4v-7a4 4 0 0 1 4-4V5a5 5 0 1 1 10 0 1 1 0 0 1-2 0 3 3 0 0 0-6 0v3zm-2 2a2 2 0 0 0-2 2v7a2 2 0 0 0 2 2h10a2 2 0 0 0 2-2v-7a2 2 0 0 0-2-2H7zm5 3a1 1 0 0 1 1 1v3a1 1 0 0 1-2 0v-3a1 1 0 0 1 1-1z"/>
    </defs>
    <g fill="none" fill-rule="evenodd">
        <mask id="b" fill="#fff">
            <use xlink:href="#a"/>
        </mask>
        <g fill="#23333A" fill-opacity=".5" mask="url(#b)">
            <path d="M0 0h24v24H0z"/>
        </g>
    </g>
</svg>
