<svg xmlns="http://www.w3.org/2000/svg" xmlns:xlink="http://www.w3.org/1999/xlink" width="24" height="24" viewBox="0 0 24 24">
    <defs>
        <path id="a" d="M12.591 20.806L12 21.24l-.591-.434C6.507 17.212 4 13.988 4 11a8 8 0 1 1 16 0c0 2.988-2.507 6.212-7.409 9.806zM18 11a6 6 0 1 0-12 0c0 2.068 1.967 4.691 6 7.752 4.033-3.06 6-5.684 6-7.752zm-6 3a3 3 0 1 1 0-6 3 3 0 0 1 0 6zm0-2a1 1 0 1 0 0-2 1 1 0 0 0 0 2z"/>
    </defs>
    <g fill="none" fill-rule="evenodd">
        <mask id="b" fill="#fff">
            <use xlink:href="#a"/>
        </mask>
        <use fill="#1B2A31" fill-rule="nonzero" xlink:href="#a"/>
        <g fill="#23333A" mask="url(#b)">
            <path d="M0 0h24v24H0z"/>
        </g>
    </g>
</svg>
