<svg xmlns="http://www.w3.org/2000/svg" width="32" height="32" viewBox="0 0 32 32">
    <path fill="#000" fill-rule="evenodd" d="M25.23 21.869l-4.351-1.866a1.281 1.281 0 0 0-1.68.66l-.139.32c-1.85-.591-2.865-1.285-4.298-2.606-1.332-1.422-2.106-2.66-2.702-4.495l.323-.139a1.264 1.264 0 0 0 .665-1.665l-1.882-4.314a1.277 1.277 0 0 0-1.679-.66l-1.74.746c-.534.23-.82.799-.73 1.451.748 5.411 2.1 8.69 4.765 11.333l.704.697c2.666 2.644 5.736 3.91 11.194 4.653.078.01-1.078-.165.234.016.566 0 1.026-.277 1.229-.74l.752-1.727c.28-.64-.02-1.388-.665-1.664"/>
</svg>
