<svg xmlns="http://www.w3.org/2000/svg" width="32" height="32" viewBox="0 0 32 32">
    <path fill="#000" fill-rule="evenodd" d="M28.5 17.5h-4a1.5 1.5 0 1 1 0-3h4a1.5 1.5 0 1 1 0 3zm-1.001 7a1.49 1.49 0 0 1-.831-.253l-3-2a1.5 1.5 0 1 1 1.664-2.496l3 2a1.5 1.5 0 0 1-.833 2.748zM23.668 9.75l3-2a1.5 1.5 0 1 1 1.664 2.496l-3 2a1.497 1.497 0 0 1-2.08-.416 1.5 1.5 0 0 1 .416-2.08zM17 22.191l-6-2.667v-7.05l6-2.666V22.19zM5 18.998h3v-6H5v6zM17.891 6.13l-8.71 3.87H3.5A1.5 1.5 0 0 0 2 11.5v9A1.5 1.5 0 0 0 3.5 22h5.681l8.71 3.871a1.504 1.504 0 0 0 1.426-.113A1.5 1.5 0 0 0 20 24.5v-17a1.5 1.5 0 0 0-2.109-1.37z"/>
</svg>
