<svg xmlns="http://www.w3.org/2000/svg" width="24" height="24" viewBox="0 0 24 24">
    <path fill="#23333A" fill-rule="evenodd" d="M18.5 1.5a3 3 0 0 1 3 3v15a3 3 0 0 1-3 3h-15a3 3 0 0 1-3-3v-15a3 3 0 0 1 3-3h15zm0 1.5h-15A1.5 1.5 0 0 0 2 4.5v15A1.5 1.5 0 0 0 3.5 21h15a1.5 1.5 0 0 0 1.5-1.5v-15A1.5 1.5 0 0 0 18.5 3zM4.876 18.722l.007.001.024.006.021.005a.838.838 0 0 1-.052-.012zM16.906 5.25c.04 0 .074.002.108.007l.018.002.082.017.038.01a.838.838 0 0 1 .144.06l.005.002.012.006a.784.784 0 0 1 .089.057l.017.013.034.027.023.02.01.009.013.013.004.004.013.013.013.014.014.016.005.006.006.007.001.002.003.003.031.04a.89.89 0 0 1 .1.18.838.838 0 0 1 .061.316v3.937a.844.844 0 1 1-1.688 0V8.13l-3.332 3.333a.844.844 0 1 1-1.193-1.193l3.332-3.333h-1.9a.844.844 0 1 1 0-1.687h3.937zm.204.025l.014.003-.01-.002-.004-.001zm-.045-.01l.028.006h.002l-.03-.006zM5.094 18.75l-.086-.004a.88.88 0 0 0 .086.004zm0 0a.851.851 0 0 1-.116-.008l-.011-.002-.084-.017-.035-.01a.838.838 0 0 1-.144-.058l-.005-.003-.012-.006a.784.784 0 0 1-.123-.083l-.028-.023a.849.849 0 0 1-.012-.011l-.01-.009-.008-.009a.834.834 0 0 1-.009-.008l-.014-.015.003.003a.851.851 0 0 1-.006-.006l-.009-.009-.012-.014-.007-.008-.001-.001-.007-.009-.003-.003-.03-.039a.89.89 0 0 1-.1-.182.86.86 0 0 1-.061-.314V13.97a.844.844 0 1 1 1.688 0l-.001 1.9 3.333-3.332a.844.844 0 1 1 1.193 1.193L7.13 17.062h1.901a.844.844 0 1 1 0 1.688H5.094z"/>
</svg>
