<svg width="19" height="22" viewBox="0 0 19 22" fill="none" xmlns="http://www.w3.org/2000/svg">
<path d="M18.9981 9.11984V5.2677C14.0228 5.05498 13.8481 0.479585 13.8481 0.050279V0H9.96504V15.018C9.96504 16.7197 8.60413 18.0985 6.91499 18.0966C5.22585 18.0966 3.86303 16.7158 3.86495 15.0141C3.86495 13.3123 5.24313 11.9335 6.93227 11.9355C7.23362 11.9355 7.52155 11.9799 7.82674 12.0689V8.09492C4.03002 7.59987 0.551937 10.2956 0.0586319 14.1187C-0.434673 17.9419 2.23915 21.444 6.03395 21.941C9.82875 22.438 13.3049 19.7403 13.7982 15.9191C13.852 15.5072 13.8501 15.1243 13.8501 14.7279V7.34074C15.639 8.98061 19 9.11984 19 9.11984H18.9981Z" fill="#001823"/>
</svg>
