<svg xmlns="http://www.w3.org/2000/svg" width="32" height="32" viewBox="0 0 32 32">
    <path fill="#000" fill-rule="evenodd" d="M12.973 24c7.17 0 11.093-5.77 11.093-10.773 0-.164-.003-.328-.013-.49A7.814 7.814 0 0 0 26 10.777a7.98 7.98 0 0 1-2.24.595 3.82 3.82 0 0 0 1.714-2.095 7.936 7.936 0 0 1-2.477.92c-1.473-1.526-3.942-1.603-5.512-.172a3.739 3.739 0 0 0-1.232 2.762c0 .29.035.58.103.863-3.134-.153-6.055-1.59-8.036-3.956-1.032 1.73-.504 3.942 1.208 5.054a3.964 3.964 0 0 1-1.766-.473v.048c0 1.802 1.307 3.355 3.125 3.712a4.02 4.02 0 0 1-1.76.066c.512 1.541 1.975 2.598 3.642 2.63a7.963 7.963 0 0 1-4.84 1.62c-.31 0-.62-.017-.929-.053A11.26 11.26 0 0 0 12.973 24"/>
</svg>
