<svg width="33" height="32" viewBox="0 0 33 32" fill="none" xmlns="http://www.w3.org/2000/svg">
<path fill-rule="evenodd" clip-rule="evenodd" d="M15.4776 8.124C16.8917 8.124 18.0406 6.97695 18.0406 5.56203C18.0406 4.14668 16.8917 3 15.4776 3C14.0619 3 12.9139 4.14668 12.9139 5.56203C12.9139 6.97695 14.0619 8.124 15.4776 8.124ZM19.4381 22.6418C18.757 25.0057 16.5768 26.7417 13.9955 26.7417C10.8696 26.7417 8.32756 24.2006 8.32756 21.0771C8.32756 18.7649 9.72307 16.7748 11.7146 15.8954V13.4939C8.45317 14.4759 6.07019 17.5021 6.07019 21.0771C6.07019 25.4447 9.62542 28.9984 13.9955 28.9984C17.1801 28.9984 19.9251 27.1065 21.1837 24.3919L20.2889 22.6346L19.4381 22.6418ZM23.4723 18.9362L26.9056 25.683C27.2835 26.4236 26.9888 27.3298 26.2468 27.706C26.0289 27.8175 25.7957 27.87 25.5657 27.87C25.0171 27.87 24.4884 27.5689 24.2234 27.0471L21.2087 21.1223H19.6605H15.5228C14.2508 21.1223 13.2197 20.0916 13.2197 18.8203V11.4552C13.2197 10.209 14.2305 9.1985 15.4774 9.1985C17.0407 9.1985 17.7342 10.5203 17.7342 11.4552V14.8546H19.2387H21.5187C22.1427 14.8546 22.6476 15.3599 22.6476 15.9829C22.6476 16.229 22.5527 16.4442 22.4194 16.6295C22.2142 16.9139 21.8966 17.1113 21.5187 17.1113H17.7342V18.1136H22.1315C22.6981 18.1136 23.2161 18.4313 23.4723 18.9362Z" fill="#001823"/>
<path d="M30.0702 2L1.07019 30" stroke="#001823" stroke-width="2" stroke-linecap="round" stroke-linejoin="round"/>
</svg>
