<?xml version="1.0" standalone="no"?>
<!DOCTYPE svg PUBLIC "-//W3C//DTD SVG 20010904//EN"
 "http://www.w3.org/TR/2001/REC-SVG-20010904/DTD/svg10.dtd">
<svg version="1.0" xmlns="http://www.w3.org/2000/svg"
 width="700.000000pt" height="700.000000pt" viewBox="0 0 700.000000 700.000000"
 preserveAspectRatio="xMidYMid meet">
<metadata>
Created by potrace 1.11, written by Peter Selinger 2001-2013
</metadata>
<g transform="translate(0.000000,700.000000) scale(0.100000,-0.100000)"
fill="#000000" stroke="none">
<path d="M3380 6078 c-30 -23 -66 -53 -80 -65 -14 -13 -28 -23 -31 -23 -3 0
-17 -10 -30 -21 -13 -12 -78 -57 -144 -101 -267 -175 -569 -291 -950 -363
-127 -24 -153 -29 -205 -40 -14 -3 -34 -7 -46 -9 -64 -12 -242 -77 -334 -121
-259 -124 -465 -320 -576 -545 -39 -78 -71 -170 -80 -225 -3 -22 -8 -43 -10
-46 -15 -26 -22 -223 -11 -324 14 -123 63 -306 99 -370 6 -11 22 -42 35 -68
26 -50 106 -153 157 -200 84 -78 235 -169 355 -214 36 -13 68 -26 73 -29 4 -2
-12 -24 -35 -47 -152 -151 -235 -351 -224 -535 7 -116 11 -134 54 -222 75
-156 254 -280 452 -315 127 -22 331 -22 461 0 14 2 43 7 64 10 21 3 91 15 155
26 64 11 125 22 136 24 11 2 31 6 45 9 14 3 43 8 65 11 22 3 69 10 105 16 78
13 190 12 262 -1 169 -33 268 -160 263 -342 -4 -168 -127 -282 -398 -368 -51
-16 -105 -31 -122 -33 -16 -3 -48 -10 -70 -15 -152 -42 -463 -66 -580 -47
-169 29 -250 107 -295 283 -13 51 14 51 -260 2 -96 -17 -200 -36 -230 -41 -52
-8 -70 -12 -130 -24 -14 -2 -36 -6 -50 -9 -75 -12 -99 -19 -95 -25 2 -4 7 -23
10 -42 29 -171 126 -373 234 -492 91 -98 287 -201 426 -224 17 -2 46 -8 65
-13 106 -28 441 -30 624 -5 17 2 51 7 76 10 25 3 54 7 65 9 11 2 43 7 70 10
28 4 57 9 65 11 8 2 26 6 40 9 14 2 43 7 65 11 50 9 268 62 315 77 337 107
573 234 747 404 193 189 277 380 277 634 -1 111 -23 243 -53 315 -80 191 -184
316 -343 414 -78 48 -213 108 -267 117 -12 3 -51 11 -85 19 -73 17 -164 26
-266 27 -75 1 -232 -9 -260 -17 -8 -2 -37 -6 -63 -10 -26 -3 -107 -17 -180
-31 -73 -13 -150 -27 -171 -30 -22 -2 -58 -9 -80 -14 -70 -15 -148 -23 -216
-23 -168 1 -247 75 -235 221 4 51 39 126 70 152 8 7 53 12 112 12 309 1 678
111 927 276 95 63 252 220 310 310 156 241 198 510 125 802 -76 305 -271 495
-611 597 -48 15 -87 28 -85 29 1 2 16 5 32 8 33 6 46 9 160 32 227 46 465 123
607 196 85 44 85 45 39 123 -10 16 -51 93 -92 170 -40 77 -97 185 -126 239
-29 55 -53 103 -53 108 0 15 -15 8 -70 -34z m-970 -1151 c136 -33 229 -111
291 -242 33 -70 44 -105 65 -200 19 -89 25 -231 12 -314 -20 -131 -111 -258
-228 -320 -118 -63 -302 -90 -425 -61 -179 40 -319 198 -376 420 -31 121 -31
290 0 380 53 151 141 244 288 303 50 19 79 26 153 34 30 3 56 7 58 8 4 4 142
-3 162 -8z"/>
<path d="M5005 5684 c-287 -61 -497 -304 -509 -591 -7 -178 63 -356 189 -478
122 -118 255 -176 415 -181 265 -9 479 118 594 351 50 101 67 173 67 273 0
179 -70 347 -191 460 -80 75 -209 146 -305 167 -56 13 -200 12 -260 -1z"/>
<path d="M5557 3315 c-1 -2 -31 -5 -67 -8 -268 -25 -488 -213 -556 -476 -46
-181 5 -409 123 -552 137 -167 373 -260 572 -228 99 16 145 30 222 69 82 42
229 182 229 219 0 6 4 11 9 11 4 0 20 26 34 58 112 251 65 523 -123 712 -74
75 -180 140 -270 168 -33 11 -167 31 -173 27z"/>
</g>
</svg>
