<svg xmlns="http://www.w3.org/2000/svg" xmlns:xlink="http://www.w3.org/1999/xlink" width="188" height="188" viewBox="0 0 188 188">
    <defs>
        <circle id="b" cx="80" cy="80" r="80"/>
        <filter id="a" width="130.6%" height="130.6%" x="-14.1%" y="-10.9%" filterUnits="objectBoundingBox">
            <feOffset dx="2" dy="7" in="SourceAlpha" result="shadowOffsetOuter1"/>
            <feGaussianBlur in="shadowOffsetOuter1" result="shadowBlurOuter1" stdDeviation="7"/>
            <feColorMatrix in="shadowBlurOuter1" values="0 0 0 0 0 0 0 0 0 0.490196078 0 0 0 0 0.701960784 0 0 0 0.0599999987 0"/>
        </filter>
    </defs>
    <g fill="none" fill-rule="evenodd">
        <g transform="translate(12 7)">
            <use fill="#000" filter="url(#a)" xlink:href="#b"/>
            <use fill="#FFF" xlink:href="#b"/>
        </g>
        <path fill="#009DE0" fill-opacity=".1" d="M142.82 114.896a1.472 1.472 0 0 1-.19.274c-.01.01-.014.023-.024.033l-17.242 18.345a1.434 1.434 0 0 1-1.043.452c-.158 0-.317-.037-.47-.09-.154.054-.315.09-.488.09H61.1c-5.017 0-9.1-4.115-9.1-9.172v-56c0-5.058 4.083-9.173 9.1-9.173h10.058V55.31c0-2.928 2.364-5.31 5.268-5.31 2.906 0 5.269 2.382 5.269 5.31v4.345h31.61V55.31c0-2.928 2.364-5.31 5.269-5.31 2.905 0 5.268 2.382 5.268 5.31v4.345H133.9c5.018 0 9.1 4.115 9.1 9.173v45.379c0 .071-.01.14-.021.208-.003.02-.002.04-.006.06-.022.123-.062.239-.115.35-.011.025-.026.047-.038.071z"/>
        <path fill="#23333A" d="M135.013 112H128.5a6.508 6.508 0 0 0-6.5 6.5v7.236L135.013 112zm-6.513-3h8.5V80H48v41.5c0 3.584 2.916 6.5 6.5 6.5H119v-9.5c0-5.238 4.262-9.5 9.5-9.5zM48 63.5V77h89V63.5c0-3.584-2.916-6.5-6.5-6.5H120v4.5l-.001.028c.157.093.3.213.42.366a7.43 7.43 0 0 1 1.58 4.606c0 4.136-3.363 7.5-7.5 7.5-4.134 0-7.5-3.364-7.5-7.5 0-1.83.668-3.592 1.878-4.963.038-.043.082-.077.123-.114V57H76v4.413a7.446 7.446 0 0 1 2 5.087c0 4.136-3.364 7.5-7.5 7.5-4.135 0-7.5-3.364-7.5-7.5 0-1.902.713-3.7 2-5.09V57H54.5a6.508 6.508 0 0 0-6.5 6.5zm20-2c0 1.378 1.122 2.5 2.5 2.5 1.379 0 2.5-1.122 2.5-2.5v-12c0-1.378-1.121-2.5-2.5-2.5a2.503 2.503 0 0 0-2.5 2.5v12zm6.73 3.51a5.491 5.491 0 0 1-8.461-.001 4.481 4.481 0 0 0-.27 1.491c0 2.481 2.02 4.5 4.5 4.5 2.483 0 4.5-2.019 4.5-4.5 0-.518-.102-1.016-.27-1.49zM112 61.5c0 1.378 1.122 2.5 2.5 2.5 1.379 0 2.5-1.122 2.5-2.5v-12c0-1.378-1.121-2.5-2.5-2.5a2.503 2.503 0 0 0-2.5 2.5v12zm6.742 3.498a5.494 5.494 0 0 1-8.478.005A4.505 4.505 0 0 0 110 66.5c0 2.481 2.019 4.5 4.5 4.5a4.505 4.505 0 0 0 4.242-6.002zm21.07 46.216a1.524 1.524 0 0 1-.2.284c-.01.01-.013.023-.023.034l-18 19a1.503 1.503 0 0 1-1.09.468 1.5 1.5 0 0 1-.49-.094c-.16.057-.33.094-.51.094h-65c-5.237 0-9.5-4.262-9.5-9.5v-58c0-5.238 4.263-9.5 9.5-9.5H65v-4.5c0-3.033 2.469-5.5 5.5-5.5 3.034 0 5.5 2.467 5.5 5.5V54h33v-4.5c0-3.033 2.469-5.5 5.5-5.5 3.034 0 5.5 2.467 5.5 5.5V54h10.5c5.24 0 9.5 4.262 9.5 9.5v47c0 .074-.01.145-.021.216-.003.02-.002.041-.006.061a1.42 1.42 0 0 1-.12.363c-.012.026-.027.049-.04.074zM130.167 95a1.5 1.5 0 0 0-1.5-1.5h-10a1.5 1.5 0 1 0 0 3h10a1.5 1.5 0 0 0 1.5-1.5zm-22.278 16.5h-10a1.5 1.5 0 1 0 0 3h10a1.5 1.5 0 1 0 0-3zm-20.778 0h-10a1.5 1.5 0 1 0 0 3h10a1.5 1.5 0 1 0 0-3zm-20.778 0h-10a1.5 1.5 0 1 0 0 3h10a1.5 1.5 0 1 0 0-3zm41.556-18h-10a1.5 1.5 0 1 0 0 3h10a1.5 1.5 0 1 0 0-3zm-20.778 0h-10a1.5 1.5 0 1 0 0 3h10a1.5 1.5 0 1 0 0-3zM67.833 95a1.5 1.5 0 0 1-1.5 1.5h-10a1.5 1.5 0 1 1 0-3h10a1.5 1.5 0 0 1 1.5 1.5z"/>
    </g>
</svg>
