<svg xmlns="http://www.w3.org/2000/svg" xmlns:xlink="http://www.w3.org/1999/xlink" width="188" height="188" viewBox="0 0 188 188">
    <defs>
        <circle id="b" cx="80" cy="80" r="80"/>
        <filter id="a" width="130.6%" height="130.6%" x="-14.1%" y="-10.9%" filterUnits="objectBoundingBox">
            <feOffset dx="2" dy="7" in="SourceAlpha" result="shadowOffsetOuter1"/>
            <feGaussianBlur in="shadowOffsetOuter1" result="shadowBlurOuter1" stdDeviation="7"/>
            <feColorMatrix in="shadowBlurOuter1" values="0 0 0 0 0 0 0 0 0 0.490196078 0 0 0 0 0.701960784 0 0 0 0.0599999987 0"/>
        </filter>
    </defs>
    <g fill="none" fill-rule="evenodd">
        <g transform="translate(12 7)">
            <use fill="#000" filter="url(#a)" xlink:href="#b"/>
            <use fill="#FFF" xlink:href="#b"/>
        </g>
        <path fill="#009DE0" fill-opacity=".1" d="M143 78.88v37.616c0 4.521-3.649 8.199-8.134 8.199h-21.584C109.246 128.009 104.1 130 98.5 130s-10.746-1.99-14.782-5.305H62.134c-4.485 0-8.134-3.678-8.134-8.199V78.88c0-4.52 3.649-8.198 8.134-8.198H78.38C79.426 68.206 82.676 62 88.93 62h19.14c6.254 0 9.504 6.206 10.55 8.68h3.805v-1.446c0-2.924 2.362-5.305 5.263-5.305h.957c2.902 0 5.264 2.38 5.264 5.305v1.447h.957c4.485 0 8.134 3.678 8.134 8.198z"/>
        <path fill="#23333A" d="M101 66c0-.827-.673-1.5-1.5-1.5h-12c-.827 0-1.5.673-1.5 1.5s.673 1.5 1.5 1.5h12c.827 0 1.5-.673 1.5-1.5zm3 0c0 2.481-2.019 4.5-4.5 4.5h-12A4.505 4.505 0 0 1 83 66c0-2.481 2.019-4.5 4.5-4.5h12c2.481 0 4.5 2.019 4.5 4.5zm7 35a1.5 1.5 0 0 0-3 0c0 3.873-1.509 7.514-4.247 10.253a1.5 1.5 0 1 0 2.121 2.121A17.384 17.384 0 0 0 111 101zm26-28.5c0-3.032-2.468-5.5-5.5-5.5h-18a1.5 1.5 0 0 1-1.423-1.025c-.026-.079-2.755-7.975-8.577-7.975h-20c-5.822 0-8.551 7.896-8.578 7.977A1.502 1.502 0 0 1 73.5 67h-18a5.507 5.507 0 0 0-5.5 5.5v4.092c.157-.056.324-.092.5-.092h12a1.5 1.5 0 0 1 0 3h-12c-.176 0-.343-.036-.5-.092V84.5h9a1.5 1.5 0 0 1 0 3h-9v5.092c.157-.056.324-.092.5-.092h9a1.5 1.5 0 0 1 0 3h-9c-.176 0-.343-.036-.5-.092V111.5c0 3.032 2.468 5.5 5.5 5.5h19.47c-3.715-4.296-5.97-9.888-5.97-16 0-13.51 10.99-24.5 24.5-24.5S118 87.49 118 101c0 6.112-2.255 11.704-5.97 16h19.47c3.032 0 5.5-2.468 5.5-5.5v-39zm-43.5 50c5.169 0 9.916-1.835 13.628-4.886a1.49 1.49 0 0 1 .453-.405c4.535-3.944 7.419-9.74 7.419-16.209 0-11.855-9.645-21.5-21.5-21.5S72 89.145 72 101c0 6.469 2.884 12.265 7.419 16.209.178.104.332.241.453.406A21.4 21.4 0 0 0 93.5 122.5zm28-58.5h6v-1.5c0-1.379-1.121-2.5-2.5-2.5h-1a2.502 2.502 0 0 0-2.5 2.5V64zm18.5 8.5v39c0 4.687-3.813 8.5-8.5 8.5h-22.554a24.375 24.375 0 0 1-15.446 5.5 24.375 24.375 0 0 1-15.446-5.5H55.5c-4.687 0-8.5-3.813-8.5-8.5v-39c0-4.687 3.813-8.5 8.5-8.5h16.976c1.093-2.566 4.489-9 11.024-9h20c6.535 0 9.931 6.434 11.024 9h3.976v-1.5c0-3.032 2.468-5.5 5.5-5.5h1c3.032 0 5.5 2.468 5.5 5.5V64h1c4.687 0 8.5 3.813 8.5 8.5zM95 85a1.5 1.5 0 0 1-1.5 1.5C85.505 86.5 79 93.005 79 101a1.5 1.5 0 0 1-3 0c0-9.649 7.851-17.5 17.5-17.5A1.5 1.5 0 0 1 95 85z"/>
    </g>
</svg>
