<?xml version="1.0" encoding="UTF-8"?>
<svg width="190px" height="32px" viewBox="0 0 190 32" version="1.1" xmlns="http://www.w3.org/2000/svg" xmlns:xlink="http://www.w3.org/1999/xlink">
    <g id="Symbols" stroke="none" stroke-width="1" fill="none" fill-rule="evenodd">
        <g id="atom/various/gentinfo" fill="#23333A">
            <path d="M20.8695652,3.6056338 L19.2823025,5.23208818 C17.1659522,3.6056338 15.2749541,2.85119412 12.5511329,2.85119412 C7.79914268,2.85119412 2.77281078,6.50581751 2.77281078,16.0587875 C2.77281078,25.308022 6.51561543,29.4819351 12.4531537,29.4819351 C14.922229,29.4819351 16.9014085,28.9528475 18.7924066,27.8946724 L18.7924066,17.2149418 L12.89406,17.2149418 L12.5903246,15.0104103 L21.3986528,15.0104103 L21.3986528,29.2761788 C18.7532149,30.8144519 15.76485,31.7452541 12.3257808,31.7452541 C4.97734231,31.7452541 -1.74615877e-12,26.503368 -1.74615877e-12,16.0783833 C-1.74615877e-12,5.731782 6.21187998,0.627066748 12.5021433,0.627066748 C16.117575,0.61726883 18.4102878,1.62645438 20.8695652,3.6056338 Z M31.167177,3.30189835 L31.167177,14.5303123 L41.8665034,14.5303123 L41.8665034,16.7348438 L31.167177,16.7348438 L31.167177,29.0606246 L44.1494182,29.0606246 L44.1494182,31.2651562 L28.5217391,31.2651562 L28.5217391,1.09736681 L43.8456828,1.09736681 L43.5419473,3.30189835 L31.167177,3.30189835 Z M66.2437232,31.2553582 L52.0269443,4.00734844 C52.1641151,6.07470912 52.3796693,8.98469075 52.3796693,14.3931415 L52.3796693,31.2553582 L49.8714023,31.2553582 L49.8714023,1.09736681 L53.2614819,1.09736681 L67.5664421,28.3453766 C67.4782609,27.0716473 67.2137171,23.3288426 67.2137171,19.4096754 L67.2137171,1.09736681 L69.7219841,1.09736681 L69.7219841,31.2553582 L66.2437232,31.2553582 Z M85.6925903,3.42927128 L85.6925903,31.2553582 L83.0961421,31.2553582 L83.0961421,3.42927128 L74.1604409,3.42927128 L74.1604409,1.09736681 L94.8536436,1.09736681 L94.5499081,3.42927128 L85.6925903,3.42927128 Z M98.7630129,31.2553582 L98.7630129,0.744641764 L105.984078,0.744641764 L105.984078,31.2553582 L98.7630129,31.2553582 Z M126.451929,31.2553582 L117.643601,7.61298224 C117.996326,10.385793 118.564605,14.4323331 118.564605,20.0661359 L118.564605,31.2455603 L112.137171,31.2455603 L112.137171,0.744641764 L121.121862,0.744641764 L130.145744,24.4262094 C129.753827,21.9571341 129.17575,17.9497857 129.17575,13.0704225 L129.17575,0.744641764 L135.652174,0.744641764 L135.652174,31.2553582 L126.451929,31.2553582 Z M149.065524,5.8983466 L149.065524,14.0012247 L157.962033,14.0012247 L157.962033,19.1549296 L149.065524,19.1549296 L149.065524,31.2651562 L141.844458,31.2651562 L141.844458,0.744641764 L160.029394,0.744641764 L159.284752,5.8983466 L149.065524,5.8983466 Z M189.383956,15.9804042 C189.383956,25.9742805 184.230251,32 175.608083,32 C167.025107,32 161.871402,26.1408451 161.871402,15.9804042 C161.871402,6.02571953 167.025107,-1.42108547e-14 175.608083,-1.42108547e-14 C184.240049,-1.59513146e-14 189.383956,5.81016534 189.383956,15.9804042 Z M169.445193,15.9804042 C169.445193,23.7305573 171.649724,26.7189222 175.608083,26.7189222 C179.742805,26.7189222 181.819963,23.7305573 181.819963,15.9804042 C181.819963,8.27924066 179.703613,5.28107777 175.608083,5.28107777 C171.561543,5.28107777 169.445193,8.27924066 169.445193,15.9804042 Z" id="Combined-Shape"></path>
        </g>
    </g>
</svg>
