<svg xmlns="http://www.w3.org/2000/svg" width="151" height="166" viewBox="0 0 151 166">
    <g fill="none" fill-rule="evenodd">
        <g fill="#009DE0" fill-opacity=".06">
            <path d="M121.472 23.936c3.3-.478 5.033-1.95 6.437-4.537 1.403-2.586 2.463-5.9 1.068-10.126-1.395-4.226-4.634-8.75-11.812-9.145-7.178-.395-11.326 6.75-12.444 9.473-1.118 2.722-.584 6.35 2.965 9.798 3.55 3.449 10.486 5.015 13.786 4.537M48.398 24.208c-19.57 2.837-29.854 11.57-38.178 26.909-8.325 15.338-14.608 34.997-6.335 60.061 8.273 25.065 27.485 51.896 70.06 54.24 42.573 2.342 67.177-40.036 73.806-56.184 6.63-16.149 3.465-37.663-17.587-58.117-21.05-20.454-62.196-29.746-81.766-26.909"/>
        </g>
        <path fill="#008DCA" d="M66.286 138.42l-14.58-32.39 96.686-76.257-56.784 88.243z"/>
        <path fill="#009DE0" d="M5.92 96.593l45.786 9.437 96.686-76.257zM66.286 110.11l82.106-80.337-35.042 108.391z"/>
        <path fill="#0076A8" d="M87.771 122.607l-21.486 15.812v-28.31z"/>
    </g>
</svg>
