<svg xmlns="http://www.w3.org/2000/svg" width="160" height="160" viewBox="0 0 160 160">
    <g fill="none" fill-rule="evenodd">
        <ellipse cx="77.5" cy="77.185" fill="#FFF" rx="77.5" ry="76.992"/>
        <path fill="#1B2A31" d="M78.785 53.764c-.916 0-1.66-.74-1.66-1.65 0-.912.744-1.652 1.66-1.652h12.252c.916 0 1.66.74 1.66 1.651 0 .91-.744 1.65-1.66 1.65H78.785zm0 8.669c-.916 0-1.66-.74-1.66-1.65 0-.912.744-1.652 1.66-1.652h28.102c.915 0 1.66.74 1.66 1.651 0 .91-.745 1.65-1.66 1.65H78.785zm0 8.669c-.916 0-1.66-.74-1.66-1.65 0-.911.744-1.652 1.66-1.652h28.102c.915 0 1.66.74 1.66 1.652 0 .91-.745 1.65-1.66 1.65H78.785zM92.73 33.97c-17.242 0-31.27 11.794-31.27 26.292 0 6.99 3.286 13.636 9.095 18.543l-3.353 9.454a3.139 3.139 0 0 0 .862 3.385 3.176 3.176 0 0 0 3.472.518l13.687-6.378c2.459.51 4.978.768 7.507.768 17.241 0 31.269-11.794 31.269-26.29 0-14.498-14.028-26.292-31.27-26.292zm0 3.153c15.518 0 28.1 10.36 28.1 23.139 0 12.778-12.582 23.137-28.1 23.137-2.734 0-5.373-.327-7.871-.926l-14.668 6.835 4.111-11.588c-5.923-4.241-9.671-10.488-9.671-17.458 0-12.78 12.58-23.14 28.099-23.14zM37.579 57.606a3.81 3.81 0 0 0-2.696 1.129l-3.962 3.941c-3.721 3.7-4.448 10.09-2.047 17.993 2.584 8.19 8.77 17.698 16.55 25.434 10.679 10.622 24.31 17.757 33.92 17.757 4.026 0 7.343-1.18 9.59-3.414l3.963-3.94c1.458-1.452 1.467-3.797.02-5.34l-7.867-7.824c-.742-.738-1.674-1.128-2.695-1.128-1.007 0-1.965.4-2.696 1.128l-3.963 3.94c-1.363 1.357-3.192 2.103-5.15 2.103-1.957 0-3.786-.747-5.15-2.102l-21.236-21.2a7.172 7.172 0 0 1-2.132-5.121c0-1.937.757-3.756 2.13-5.121l3.963-3.942a3.765 3.765 0 0 0 1.134-2.68c0-1.002-.402-1.954-1.134-2.681l-7.846-7.802a3.808 3.808 0 0 0-2.696-1.13zm41.684 69.748c-5.25 0-11.274-1.656-17.42-4.788-6.23-3.176-13.316-8.417-18.953-14.022-8.268-8.222-14.76-18.276-17.367-26.894-1.306-4.354-1.776-8.373-1.394-11.943.446-3.765 1.946-7.013 4.338-9.392l3.963-3.94c1.363-1.357 3.191-2.103 5.15-2.103 2.014 0 3.746.707 5.15 2.103l7.928 7.805a7.16 7.16 0 0 1 2.11 5.117c0 2.004-.711 3.727-2.114 5.121L46.69 78.36a3.794 3.794 0 0 0-1.095 2.68c0 1.013.399 1.99 1.095 2.682l21.158 21.121c.745.738 1.676 1.129 2.697 1.129 1.007 0 1.965-.4 2.697-1.128l3.962-3.94c1.363-1.357 3.19-2.103 5.15-2.103 2.014 0 3.746.707 5.15 2.102l7.76 7.874c2.843 2.829 2.845 7.426.006 10.25l-3.963 3.94c-2.962 2.87-7.127 4.388-12.045 4.388z"/>
        <path fill="#009DE0" fill-opacity=".1" d="M98.73 37.944c17.242 0 31.27 11.794 31.27 26.291s-14.028 26.29-31.27 26.29c-2.528 0-5.047-.257-7.506-.767l-13.687 6.378a3.179 3.179 0 0 1-3.472-.519 3.139 3.139 0 0 1-.862-3.384l3.353-9.454c-5.809-4.907-9.094-11.552-9.094-18.544 0-14.497 14.027-26.29 31.269-26.29zm-13.467 93.384c-5.25 0-11.274-1.656-17.42-4.788-6.23-3.176-13.316-8.418-18.953-14.023-8.268-8.221-14.76-18.275-17.367-26.893-1.306-4.355-1.776-8.373-1.394-11.943.446-3.765 1.946-7.014 4.338-9.392l3.963-3.94c1.363-1.357 3.191-2.103 5.15-2.103 2.014 0 3.746.707 5.15 2.102l7.928 7.806a7.16 7.16 0 0 1 2.11 5.117c0 2.004-.711 3.727-2.114 5.12l-3.963 3.942a3.794 3.794 0 0 0-1.095 2.68c0 1.012.399 1.99 1.095 2.682l21.158 21.12c.745.74 1.676 1.13 2.697 1.13 1.007 0 1.965-.401 2.697-1.128l3.962-3.94c1.363-1.357 3.19-2.104 5.15-2.104 2.014 0 3.746.707 5.15 2.103l7.76 7.874c2.843 2.828 2.845 7.425.006 10.25l-3.963 3.94c-2.962 2.87-7.127 4.388-12.045 4.388z"/>
    </g>
</svg>
