<svg xmlns="http://www.w3.org/2000/svg" width="160" height="160" viewBox="0 0 160 160">
    <g fill="none" fill-rule="evenodd">
        <path fill="#FFF" d="M-300-1340h1440V479H-300z"/>
        <path fill="#009DE0" fill-opacity=".06" d="M-300-410h1440v849H-300z"/>
        <g>
            <circle cx="80" cy="80" r="80" fill="#FFF"/>
            <path fill="#009DE0" fill-opacity=".1" d="M91.267 50.978C94.359 46.748 99.359 44 105 44c9.389 0 17 7.611 17 17a16.96 16.96 0 0 1-5.849 12.832L77.427 113l-.311-.336A16.924 16.924 0 0 1 67 116c-9.389 0-17-7.611-17-17 0-5.699 2.804-10.743 7.108-13.827l34.159-34.195z"/>
            <g fill="#23333A" fill-rule="nonzero">
                <path d="M112.843 73.646l-2.583-2.361A15.186 15.186 0 0 0 114.25 61c0-8.422-6.828-15.25-15.25-15.25a15.187 15.187 0 0 0-10.34 4.041l-2.374-2.572A18.686 18.686 0 0 1 99 42.25c10.355 0 18.75 8.395 18.75 18.75 0 4.744-1.77 9.215-4.907 12.646zM47.249 86.254l2.566 2.38A15.187 15.187 0 0 0 45.75 99c0 8.422 6.828 15.25 15.25 15.25 3.835 0 7.443-1.418 10.229-3.939l2.348 2.595A18.684 18.684 0 0 1 61 117.75c-10.355 0-18.75-8.395-18.75-18.75 0-4.79 1.806-9.304 4.999-12.746zM73.51 59.797a1.75 1.75 0 1 1 2.542 2.406c-2.835 2.993-4.62 6.977-4.62 10.743 0 6.7 3.48 12.008 9.735 14.522a1.75 1.75 0 0 1-1.305 3.248c-7.6-3.055-11.93-9.66-11.93-17.77 0-4.72 2.16-9.54 5.578-13.15z"/>
                <path d="M86.505 100.296a1.75 1.75 0 1 1-2.542-2.407c2.835-2.993 4.62-6.976 4.62-10.743 0-6.699-3.48-12.008-9.735-14.522a1.75 1.75 0 0 1 1.305-3.247c7.6 3.054 11.93 9.66 11.93 17.77 0 4.719-2.16 9.54-5.578 13.149zM62.547 75.728a1.75 1.75 0 1 0-2.494-2.456l-12.8 13a1.75 1.75 0 0 0 2.494 2.456l12.8-13zM113.356 73.219a1.75 1.75 0 0 0-2.512-2.438l-13.1 13.5a1.75 1.75 0 0 0 2.512 2.438l13.1-13.5zM89.629 48.746a1.75 1.75 0 1 0-2.458-2.492L73.175 60.058a1.75 1.75 0 0 0 2.457 2.492L89.63 48.746z"/>
                <path d="M86.524 100.165a1.75 1.75 0 1 0-2.448-2.501l-14.1 13.803a1.75 1.75 0 1 0 2.448 2.501l14.1-13.803z"/>
            </g>
        </g>
    </g>
</svg>
