<?xml version="1.0" encoding="utf-8"?>
<!-- Generator: Adobe Illustrator 18.0.0, SVG Export Plug-In . SVG Version: 6.00 Build 0)  -->
<!DOCTYPE svg PUBLIC "-//W3C//DTD SVG 1.1//EN" "http://www.w3.org/Graphics/SVG/1.1/DTD/svg11.dtd" [
	<!ENTITY ns_flows "http://ns.adobe.com/Flows/1.0/">
	<!ENTITY ns_extend "http://ns.adobe.com/Extensibility/1.0/">
	<!ENTITY ns_ai "http://ns.adobe.com/AdobeIllustrator/10.0/">
	<!ENTITY ns_graphs "http://ns.adobe.com/Graphs/1.0/">
]>
<svg version="1.1" id="Layer_1" xmlns:x="&ns_extend;" xmlns:i="&ns_ai;" xmlns:graph="&ns_graphs;"
	 xmlns="http://www.w3.org/2000/svg" xmlns:xlink="http://www.w3.org/1999/xlink" xmlns:a="http://ns.adobe.com/AdobeSVGViewerExtensions/3.0/"
	 x="0px" y="0px" viewBox="0 20.2 2267.7 809.9" style="enable-background:new 0 20.2 2267.7 809.9;" xml:space="preserve">
<path id="blauw_vignet" style="fill:#007DB3;" d="M1052.9,830.1H81c-44.5,0-81-36.4-81-81V101.2c0-44.5,36.4-81,81-81h971.9
	c44.5,0,81,36.4,81,81v647.9C1133.9,793.7,1097.4,830.1,1052.9,830.1z"/>
<path id="wit_vignet" style="fill:#FFFFFF;" d="M2186.7,830.1h-971.9c-44.5,0-81-36.4-81-81V101.2c0-44.5,36.4-81,81-81h971.9
	c44.5,0,81,36.4,81,81v647.9C2267.7,793.7,2231.3,830.1,2186.7,830.1z"/>
<path style="fill:#007DB3;" d="M1239.1,528.9l-3.2-17.8l26.7-46.2c3.2-4.9,7.3-12.1,9.7-15.4c-3.2,0.8-10.5,2.4-15.4,3.2l-27.5,4.9
	l-4-21.9l74.5-13l3.2,17.8l-25.9,46.2c-3.2,5.7-7.3,12.1-8.9,15.4c3.2-0.8,10.5-2.4,15.4-3.2l29.2-4.9l4,22.7L1239.1,528.9
	L1239.1,528.9z"/>
<path style="fill:#007DB3;" d="M1408.4,451.1c-4.9-28.3-26.7-45.4-51-41.3c-25.1,4-38.9,27.5-34,55.9c5.7,29.2,26.7,45.4,51,41.3
	S1413.3,479.5,1408.4,451.1z M1370.4,483.5c-12.1,2.4-19.4-7.3-21.9-21.9c-2.4-14.6,0.8-25.9,13-28.3c11.3-2.4,18.6,7.3,21.9,21.9
	C1385.7,468.1,1382.5,481.1,1370.4,483.5z"/>
<path style="fill:#007DB3;" d="M1482.9,485.9l-25.1,4l-50.2-87.5l26.7-4.9l21.1,40.5c3.2,6.5,7.3,15.4,9.7,19.4
	c0-4.9,1.6-13.8,2.4-21.9l6.5-45.4l26.7-4.9L1482.9,485.9L1482.9,485.9z"/>
<path style="fill:#007DB3;" d="M1580.9,439.8c-2.4,4.9-8.1,8.9-14.6,9.7c-8.9,1.6-19.4-1.6-22.7-14.6l55.9-9.7c0-1.6-0.8-4-0.8-7.3
	c-4.9-26.7-22.7-46.2-47.8-42.1c-23.5,4-38.1,27.5-33.2,55.9c5.7,29.2,25.9,45.4,52.6,40.5c12.1-2.4,25.1-9.7,30.8-21.1
	L1580.9,439.8z M1552.6,396.8c11.3-1.6,17.8,5.7,20.2,13.8l-32.4,5.7C1539.6,406.6,1543.7,398.5,1552.6,396.8z"/>
<path style="fill:#007DB3;" d="M1676.5,422.8c-2.4,4.9-8.1,8.9-14.6,9.7c-8.9,1.6-19.4-1.6-22.7-14.6l55.9-9.7c0-1.6,0-4-0.8-7.3
	c-4.9-26.7-22.7-46.2-47.8-42.1c-23.5,4-38.1,27.5-33.2,55.9c5.7,29.2,25.9,45.4,52.6,40.5c12.1-2.4,25.1-9.7,30.8-21.1
	L1676.5,422.8z M1649,379.8c10.5-1.6,17,5.7,20.2,13.8l-32.4,5.7C1636,389.6,1640,381.5,1649,379.8z"/>
<polygon style="fill:#007DB3;" points="1722.7,443 1701.6,325.6 1724.3,308.6 1747,438.2 1722.7,443 "/>
<path style="fill:#007DB3;" d="M1860.3,421.1c-14.6,2.4-30,0.8-41.3-4l4.9-20.2c11.3,4,21.9,4.9,34,2.4c9.7-1.6,12.1-4.9,11.3-8.9
	s-4.9-5.7-15.4-7.3c-23.5-2.4-38.9-5.7-42.9-25.9c-3.2-19.4,10.5-30.8,32.4-34c12.1-2.4,25.1-0.8,36.4,3.2l-4,21.1
	c-10.5-3.2-21.1-4-29.2-2.4c-9.7,1.6-12.1,4-11.3,8.1c0.8,4,4,4.9,21.1,7.3c17.8,2.4,33.2,6.5,36.4,25.1
	C1896.8,406.6,1881.4,417.9,1860.3,421.1L1860.3,421.1z"/>
<path style="fill:#007DB3;" d="M1969.7,396c-3.2,4-10.5,8.1-17.8,8.9c-15.4,2.4-26.7-7.3-30-23.5l-8.1-44.5l-15.4,2.4l-4-23.5
	l15.4-2.4l-4-24.3l22.7-17l6.5,36.4l22.7-4l4,23.5l-22.7,4l6.5,37.3c1.6,8.9,4.9,10.5,11.3,9.7c4.9-0.8,7.3-3.2,13-9.7L1969.7,396
	L1969.7,396z"/>
<path style="fill:#007DB3;" d="M2059.6,318.3c-4-21.1-21.1-30-43.7-25.9c-14.6,2.4-23.5,7.3-33.2,15.4l12.1,15.4
	c7.3-5.7,13-8.9,24.3-10.5c8.9-1.6,14.6,3.2,15.4,9.7l0.8,4.9c-4-1.6-9.7-2.4-18.6-0.8c-21.1,4-35.6,17-32.4,38.1
	c4,22.7,22.7,30.8,40.5,27.5c8.9-1.6,16.2-6.5,19.4-12.1l0.8,6.5l25.9-5.7L2059.6,318.3z M2024.8,370.9c-10.5,2.4-15.4-3.2-16.2-9.7
	c-1.6-8.1,3.2-13,12.1-14.6s13-0.8,17.8,0.8l1.6,12.1C2038.5,364.5,2032.8,369.3,2024.8,370.9z"/>
<path style="fill:#007DB3;" d="M2146.2,234.9l-22.7,17l4.9,29.2c-4.9-3.2-13-5.7-21.1-4c-23.5,4-33.2,25.9-28.3,54.3
	c6.5,34.8,25.1,47,45.4,43.7c8.9-1.6,14.6-6.5,18.6-11.3l0.8,5.7l25.1-4.9L2146.2,234.9z M2125.2,350.7c-9.7,1.6-17.8-4.9-21.1-24.3
	c-2.4-16.2,0.8-25.1,10.5-26.7c7.3-1.6,13,0,17.8,4.9l6.5,35.6C2136.5,345.8,2132.5,349.1,2125.2,350.7z"/>
<path style="fill:#FFFFFF;" d="M255.1,656.8l-55.1,9.7c-11.3,1.6-23.5,4-25.9,1.6c-0.8-0.8-1.6-3.2-2.4-6.5
	c-1.6-0.8-1.6-3.2-1.6-5.7c8.1,0,21.9,0,41.3-3.2c68.8-12.1,100.4-29.2,89.1-90.7l-2.4-10.5v-0.8v-1.6l-30.8-21.9c0,0,0,0-0.8,0
	c3.2-0.8,53.5-12.1,53.5-12.1l-7.3-40.5l-127.2,21.1c-44.5,7.3-68,17-79.4,34c-5.7,8.1-8.9,17.8-8.9,30c0,8.9,0.8,19.4,3.2,31.6
	c6.5,36.4,14.6,48.6,37.3,57.5h0.8l-0.8,0.8l-19.4,29.2l0.8,6.5l0.8,4.9c2.4,12.1,7.3,21.9,15.4,27.5c15.4,10.5,38.1,6.5,55.9,3.2
	l64.8-11.3l18.6-3.2c11.3-0.8,13,0,14.6,11.3c1.6,8.1,0.8,10.5-9.7,14.6s-36.4,9.7-50.2,12.1c-19.4,3.2-47,6.5-79.4,7.3l-9.7,0.8
	l1.6,8.1c0-0.8,2.4,36.4,2.4,36.4v3.2h6.5c1.6,0,42.1,0,87.5-8.1c93.1-16.2,115.8-34.8,106.9-85.8
	C335.3,652,309.4,647.1,255.1,656.8z M158.7,581.5c-2.4-7.3-3.2-13-2.4-17.8c0-4.9,0.8-8.1,3.2-10.5c4-6.5,15.4-8.9,34.8-13
	c0,0,30-4.9,39.7-6.5c3.2,9.7,6.5,21.9,8.9,32.4c1.6,8.1,2.4,13.8,1.6,18.6c-0.8,16.2-10.5,18.6-38.1,23.5
	C170.1,614.7,164.4,615.5,158.7,581.5z"/>
<path style="fill:#FFFFFF;" d="M814.8,559.6v-0.8l-15.4-86.7c-5.7-33.2-14.6-51-29.2-61.6c-14.6-9.7-36.4-11.3-71.3-4.9
	c-8.1,1.6-24.3,5.7-25.1,6.5l-1.6,0l-25.1,24.3c-2.4,1.6-4,4-6.5,4h-0.8c0,0,0-0.8-0.8-1.6c0,0,0,0,0,0.8c0-1.6-1.6-4.9-4.9-17
	l-0.8-3.2l-70.5,12.1l7.3,39.7l25.1,0.8v0.8l21.1,121.5c0,0,0,0,0,0.8l-23.5,9.7l7.3,39.7l105.3-18.6l-7.3-39.7l-25.1-0.8v-0.8
	c0,0-17-98.8-20.2-117.4c16.2-5.7,30.8-9.7,43.7-12.1c35.6-6.5,40.5-3.2,47,30.8l14.6,82.6c0,0,0,0,0,0.8l-23.5,9.7l7.3,39.7
	l105.3-18.6l-7.3-39.7L814.8,559.6z"/>
<path style="fill:#FFFFFF;" d="M978.4,528.1c-8.9,3.2-20.2,6.5-25.9,8.1c-9.7,1.6-14.6,1.6-17,0c-2.4-1.6-4-7.3-5.7-17l-18.6-104.5
	l-1.6-12.1c0-0.8,0-1.6,0-1.6v-0.8h0.8c1.6,0,1.6,0,4,0.8l21.1,9.7h0.8c2.4,1.6,8.9,1.6,30-2.4l4-0.8l-8.1-47c0,0-51.8,8.9-58.3,9.7
	c-0.8-6.5-8.9-52.6-8.9-52.6l-55.9,12.1c0,0,8.1,46.2,8.9,52.6c-6.5,0.8-39.7,7.3-39.7,7.3l8.1,46.2c0,0,33.2-5.7,39.7-7.3
	c0.8,7.3,16.2,93.9,16.2,93.9c8.9,50.2,21.9,70.5,77.8,60.7c23.5-4,42.1-13.8,42.9-13.8l5.7-2.4l-13-41.3L978.4,528.1z"/>
<path style="fill:#FFFFFF;" d="M1062.6,408.2c6.5-6.5,10.5-15.4,10.5-25.1c0-19.4-16.2-35.6-35.6-35.6c-9.7,0-18.6,4-25.1,10.5
	c-6.5,6.5-10.5,15.4-10.5,25.1s4,18.6,10.5,25.1s15.4,10.5,25.1,10.5S1056.1,414.7,1062.6,408.2z"/>
<path style="fill:#FFFFFF;" d="M1062.6,490c-9.7,0-18.6,4-25.1,10.5c-6.5,6.5-10.5,15.4-10.5,25.1c0,9.7,4,18.6,10.5,25.1
	c6.5,6.5,15.4,10.5,25.1,10.5c19.4,0,35.6-16.2,35.6-35.6S1082,490,1062.6,490z"/>
<path style="fill:#FFFFFF;" d="M534.5,599.3c-21.9,8.1-40.5,14.6-64.8,19.4c-16.2,3.2-38.9,6.5-51.8-3.2c-7.3-5.7-13-17-15.4-30.8
	l-1.6-8.9c0-0.8,0-0.8,0-1.6s0-0.8,0-0.8h0.8c1.6,0,1.6,0,4,0.8l21.9,10.5h1.6c0.8,0,16.2,0,46.2-5.7c21.1-4,40.5-8.9,55.1-12.1
	l23.5-5.7l-0.8-6.5v-1.6c-1.6-13-2.4-20.2-3.2-27.5C539.4,456,511,439,431.7,452.7c-46.2,8.1-79.4,21.1-89.1,57.5
	c-4,17-4,42.9,0.8,69.7c16.2,90.7,59.9,101.2,131.2,88.3c46.2-8.1,78.6-25.1,79.4-25.9l5.7-3.2l-15.4-42.9L534.5,599.3z
	 M396.9,526.4c0.8-17,9.7-21.1,46.2-27.5c35.6-6.5,42.9-4,50.2,30.8c-18.6,4.9-41.3,8.1-45.4,8.9h-0.8c-4.9,0.8-26.7,5.7-48.6,6.5
	C396.9,537.8,396,531.3,396.9,526.4z"/>
</svg>
