<svg xmlns="http://www.w3.org/2000/svg" width="160" height="160" viewBox="0 0 160 160">
    <g fill="none" fill-rule="evenodd">
        <path fill="#FFF" d="M-960-1340H480V479H-960z"/>
        <path fill="#009DE0" fill-opacity=".06" d="M-960-410H480v849H-960z"/>
        <g>
            <circle cx="80" cy="80" r="80" fill="#FFF"/>
            <path fill="#009DE0" fill-opacity=".1" d="M53.702 74.865L91.76 52.977a5.043 5.043 0 0 1 6.861 1.83l13.182 22.747a4.994 4.994 0 0 1-1.838 6.832l-38.06 21.888a5.035 5.035 0 0 1-6.858-1.83L51.863 81.7a4.999 4.999 0 0 1 1.839-6.835zM21.19 92.12l15.573-8.959a9.424 9.424 0 1 1 9.452 16.309l-.285.163c-2.871 1.653-6.261 1.16-8.273-1.137-2.707 1.285-6.293.336-8.41-2.217-3.204 1.554-6.793.567-8.524-2.422a1.27 1.27 0 0 1 .467-1.737zm101.459-58.35a1.283 1.283 0 0 1 1.745.466c1.732 2.99.796 6.584-2.157 8.566 1.161 3.104.194 6.668-2.277 8.362.99 2.883-.279 6.054-3.147 7.707l-.287.163a9.425 9.425 0 0 1-9.451-16.308l15.574-8.956zm-39.74 71.127a1.258 1.258 0 0 1 2.3-.303l8.354 14.444a1.255 1.255 0 0 1-2.176 1.252l-8.351-14.444a1.245 1.245 0 0 1-.127-.949zm11.492 19.857c.086-.32.297-.593.586-.757a1.256 1.256 0 0 1 1.715.458l2.175 3.614a1.255 1.255 0 0 1-2.176 1.252l-2.175-3.617a1.246 1.246 0 0 1-.125-.95zm-2.068-25.277c.087-.321.297-.594.585-.76.6-.344 1.366-.14 1.716.458l19.98 34.159a1.255 1.255 0 0 1-2.173 1.252l-19.984-34.159a1.252 1.252 0 0 1-.124-.95zm9.425-5.42a1.256 1.256 0 0 1 2.3-.3l10.403 17.407a1.255 1.255 0 0 1-2.176 1.25l-10.403-17.409a1.248 1.248 0 0 1-.124-.949z"/>
            <path fill="#23333A" d="M16.638 89.853a1.27 1.27 0 0 0-.467 1.737c1.732 2.99 5.32 3.976 8.525 2.422 2.117 2.553 5.702 3.502 8.41 2.217 2.011 2.296 5.401 2.79 8.272 1.137l.286-.163a9.425 9.425 0 1 0-9.452-16.309l-15.574 8.959zM40.1 95.16c-1.79 1.03-3.745.807-4.97-.504l2.493-1.432a1.059 1.059 0 1 0-1.061-1.833l-3.36 1.93c-.128.028-.25.076-.364.14l-.622.357c-1.829 1.053-4.23.12-5.548-1.448l3.714-2.136a1.058 1.058 0 1 0-1.06-1.83l-4.884 2.807a.9.9 0 0 0-.17.128l-.367.21c-1.62.93-3.45.813-4.69-.237L33.488 83.1a6.875 6.875 0 1 1 6.896 11.896l-.285.164zm77.997-63.657l-15.573 8.956a9.425 9.425 0 0 0 9.45 16.308l.287-.164c2.869-1.652 4.137-4.824 3.147-7.706 2.471-1.694 3.439-5.258 2.277-8.362 2.954-1.982 3.889-5.577 2.157-8.566a1.283 1.283 0 0 0-1.745-.466zm-6.644 12.108l3.818-2.195c.704 1.92.314 4.459-1.516 5.512l-.62.354c-.113.067-.216.15-.305.248l-3.084 1.773a1.059 1.059 0 0 0 1.06 1.833l2.22-1.277c.527 1.71-.256 3.51-2.045 4.541l-.286.164a6.877 6.877 0 0 1-6.897-11.899l14.282-8.212c.292 1.596-.518 3.235-2.138 4.165l-.47.27a.907.907 0 0 0-.196.084l-4.884 2.807a1.055 1.055 0 0 0-.387 1.445c.295.505.941.678 1.448.387zM49.15 72.598a4.998 4.998 0 0 0-1.838 6.835l13.183 22.744a5.035 5.035 0 0 0 6.859 1.83l38.06-21.888a4.993 4.993 0 0 0 1.837-6.832L94.07 52.54a5.043 5.043 0 0 0-6.862-1.83L49.15 72.598zm55.928 3.938a2.445 2.445 0 0 1-.919 3.417L66.1 101.842a2.462 2.462 0 0 1-3.43-.917L49.486 78.18a2.442 2.442 0 0 1 .92-3.417l38.06-21.886a2.456 2.456 0 0 1 3.427.914l13.185 22.745zm-18.527-4.342l3.804-12.154a1.25 1.25 0 0 0-.76-1.599 1.287 1.287 0 0 0-1.097.123 1.272 1.272 0 0 0-.542.753l-6.7 21.433a2.509 2.509 0 0 1-3.05 1.75l-21.95-4.955a1.284 1.284 0 0 0-.963.161 1.252 1.252 0 0 0-.4 1.73c.182.285.47.485.802.556l12.455 2.811-3.96 11.872a1.25 1.25 0 0 0 .65 1.647c.366.158.785.134 1.13-.065.233-.133.416-.338.522-.585a1.65 1.65 0 0 0 .087-.264l4.011-12.062 7.068 1.592c1.257.281 2.572.08 3.687-.564a5.037 5.037 0 0 0 2.313-2.866l2.16-6.919 12.56 2.575a1.252 1.252 0 1 0 .723-2.398 1.568 1.568 0 0 0-.273-.052l-12.277-2.52zm-7.246 32.102c-.086.32-.04.662.126.949l8.352 14.444a1.255 1.255 0 1 0 2.176-1.252l-8.355-14.444a1.258 1.258 0 0 0-2.3.303zm11.491 19.857c-.086.32-.041.662.126.95l2.175 3.617a1.255 1.255 0 1 0 2.176-1.252l-2.175-3.615a1.256 1.256 0 0 0-2.302.3zM88.73 98.875c-.087.321-.042.663.124.951l19.984 34.159a1.255 1.255 0 0 0 2.173-1.252L91.03 98.574a1.261 1.261 0 0 0-1.716-.458 1.252 1.252 0 0 0-.585.76zm9.424-5.42c-.086.32-.041.662.124.95l10.403 17.407a1.255 1.255 0 1 0 2.177-1.249l-10.404-17.407a1.256 1.256 0 0 0-2.3.3z"/>
        </g>
    </g>
</svg>
