<?xml version="1.0" standalone="no"?>
<!DOCTYPE svg PUBLIC "-//W3C//DTD SVG 1.1//EN" "http://www.w3.org/Graphics/SVG/1.1/DTD/svg11.dtd" >
<svg xmlns="http://www.w3.org/2000/svg">
<metadata>Generated by IcoMoon</metadata>
<defs>
<font id="gent-icons" horiz-adv-x="1024">
<font-face units-per-em="1024" ascent="960" descent="-64" />
<missing-glyph horiz-adv-x="1024" />
<glyph unicode="&#x20;" horiz-adv-x="512" d="" />
<glyph unicode="&#x3d;" glyph-name="menu" d="M1028.024 840.829c0-55.436-44.952-100.388-100.388-100.388h-827.216c-55.436 0-100.388 44.952-100.388 100.388v0c0 55.436 44.952 100.388 100.388 100.388h827.216c55.436 0 100.388-44.952 100.388-100.388v0zM1028.024 455.34c0-55.436-44.952-100.388-100.388-100.388h-827.216c-55.436 0-100.388 44.952-100.388 100.388v0c0 55.436 44.952 100.388 100.388 100.388h827.216c55.436 0 100.388-44.952 100.388-100.388v0zM1028.024 69.819c0-55.436-44.952-100.388-100.388-100.388h-827.216c-55.436 0-100.388 44.952-100.388 100.388v0c0 55.436 44.952 100.388 100.388 100.388h827.216c55.436 0 100.388-44.952 100.388-100.388v0z" />
<glyph unicode="&#x3e;" glyph-name="caret" d="M670.887 476.379l-261.022 261.022c-15.679 15.679-41.104 15.679-56.783 0s-15.679-41.104 0-56.783l232.614-232.614-232.614-232.614c-15.679-15.679-15.679-41.104 0-56.783 7.855-7.855 18.115-11.767 28.407-11.767s20.552 3.912 28.407 11.767l261.022 261.022c15.679 15.679 15.679 41.104 0 56.783z" />
<glyph unicode="&#x61;" glyph-name="alert" d="M1017.173 45.227l-471.040 839.68c-17.067 34.133-47.787 34.133-68.267 0l-471.040-839.68c-17.067-34.133-3.413-58.027 34.133-58.027h942.080c37.547 0 51.2 27.307 34.133 58.027zM580.267 157.867c0-20.48-17.067-34.133-34.133-34.133h-68.267c-17.067 0-34.133 13.653-34.133 34.133v68.267c0 20.48 17.067 34.133 34.133 34.133h68.267c17.067 0 34.133-17.067 34.133-34.133v-68.267zM580.267 362.667c0-20.48-13.653-34.133-34.133-34.133h-68.267c-17.067 0-34.133 13.653-34.133 34.133v204.8c0 20.48 17.067 34.133 34.133 34.133h68.267c17.067 0 34.133-17.067 34.133-34.133v-204.8z" />
<glyph unicode="&#x62;" glyph-name="critical" d="M542.72 874.667h-64.853v-204.8h64.853zM819.2 352.427l204.8 40.96-17.067 78.507-201.387-40.96zM897.707 697.173l-58.027 54.613-143.36-146.773 54.613-54.613zM218.453 430.933l-201.387 40.96-17.067-78.507 204.8-40.96zM785.067 157.867l-78.507 372.053c-6.827 40.96-44.373 71.68-92.16 71.68h-170.667c-47.787 0-92.16-30.72-102.4-71.68l-68.267-372.053c0-3.413 0 0 0-34.133h-102.4l3.413-102.4h713.387v102.4h-102.4c0 34.133 0 30.72 0 34.133zM515.413 157.867l-3.413 375.467h68.267c37.547 0 61.44-3.413 68.267-34.133l34.133-170.667c0-3.413 34.133-170.667 34.133-170.667h-201.387zM327.68 605.013l-143.36 146.773-58.027-54.613 146.773-146.773z" />
<glyph unicode="&#x63;" glyph-name="clip" d="M538.107 134.073q8.016 7.022 160.634 157.62t178.685 177.691q19.077 18.083 45.689 18.083t45.689-18.564 19.077-45.689-19.077-45.176q-22.091-22.091-173.683-174.677t-159.608-159.608q-68.261-67.267-160.121-91.346t-183.719 0.994-161.115 93.366-94.36 159.608-0.994 182.212 92.372 159.127l349.354 345.347q76.309 76.309 184.713 76.309t185.226-75.796 76.79-183.206-76.309-182.725l-287.121-284.107q-47.196-45.176-115.458-45.176t-115.938 45.689-47.677 108.436 47.196 108.917q17.057 17.057 115.458 117.958t112.444 114.945q19.077 19.077 45.689 19.077t45.176-19.077 18.564-45.689-18.083-45.689q-11.030-10.036-112.957-113.438t-111.931-113.438q-9.042-9.042-9.042-22.091t9.523-22.091 22.572-9.042 23.085 9.042l286.127 287.121q92.372 91.346-0.513 183.206t-185.226-0.513l-352.368-346.34q-69.255-69.255-68.774-162.141t68.261-159.608 160.121-67.267 161.628 67.78z" />
<glyph unicode="&#x65;" glyph-name="email" d="M513.996 325.839l-450.768 450.768h901.505zM7.022 40.707q-7.022 14.043-7.022 29.113v642.503q0 15.069 7.022 29.113l351.374-350.38zM474.847 273.609q6.028-5.034 15.55-8.016t16.576-3.014h7.022q26.099-0.994 39.148 11.030l71.275 72.269 340.313-340.313h-901.505l340.313 340.313zM1020.97 741.467q7.022-14.043 7.022-29.113v-642.503q0-15.069-7.022-29.113l-351.374 350.38z" />
<glyph unicode="&#x68;" glyph-name="hidden" d="M669.013 686.933c-47.787 13.653-102.4 23.893-157.013 23.893-242.347 0-443.733-177.493-505.173-235.52-10.24-10.24-10.24-27.307 0-37.547 34.133-34.133 119.467-109.227 235.52-167.253l426.667 416.427zM1017.173 475.307c-37.547 34.133-126.293 116.053-242.347 170.667l95.573 92.16h-85.333l-593.92-580.267h81.92l75.093 71.68c51.2-17.067 109.227-27.307 167.253-27.307 242.347 0 443.733 177.493 505.173 235.52 6.827 10.24 6.827 27.307-3.413 37.547zM686.080 420.693c-13.653-64.853-68.267-119.467-136.533-133.12-47.787-10.24-88.747 0-126.293 20.48l75.093 75.093c3.413 0 6.827 0 13.653 0 44.373 0 78.507 34.133 78.507 78.507 0 3.413 0 6.827 0 13.653l75.093 75.093c20.48-40.96 30.72-85.333 20.48-129.707z" />
<glyph unicode="&#x70;" glyph-name="loc" d="M510.565 969.336c-174.549 0-312.707-142.807-312.707-321.78 0-124.724 47.966-184.905 154.093-338.197 128.026-194.043 152.778-357.915 152.778-357.915 2.95-13.498 14.524-13.498 17.41 0 0 0 18.885 163.872 149.732 357.851 61.111 91.763 154.221 213.505 154.221 338.325 0 178.909-142.582 321.716-315.56 321.716zM513.996 525.622c-72.077 0-130.495 58.418-130.495 130.495s58.418 130.495 130.495 130.495c72.077 0 130.495-58.418 130.495-130.495s-58.418-130.495-130.495-130.495z" />
<glyph unicode="&#x73;" glyph-name="search" d="M1020.587 45.227l-320.853 320.853c40.96 61.44 64.853 136.533 64.853 211.627 0 102.4-40.96 197.973-112.64 269.653s-167.253 112.64-269.653 112.64-197.973-40.96-269.653-112.64c-71.68-71.68-112.64-167.253-112.64-269.653s40.96-197.973 112.64-269.653 167.253-112.64 269.653-112.64c78.507 0 150.187 23.893 215.040 64.853l320.853-320.853c10.24-10.24 30.72-6.827 44.373 6.827l54.613 54.613c10.24 13.653 13.653 34.133 3.413 44.373zM382.293 301.227c-153.6 0-276.48 126.293-276.48 276.48s122.88 279.893 276.48 279.893 276.48-126.293 276.48-276.48-122.88-279.893-276.48-279.893z" />
<glyph unicode="&#xe5ff;" glyph-name="digipolis" d="M1024 448c0-283.307-228.693-512-512-512s-512 228.693-512 512c0 283.307 228.693 512 512 512s512-228.693 512-512zM512 833.707c-211.627 0-385.707-174.080-385.707-385.707s174.080-385.707 385.707-385.707c211.627 0 385.707 174.080 385.707 385.707s-170.667 385.707-385.707 385.707zM273.067 263.68c0-3.413 0-47.787 47.787-47.787h389.12c3.413 0 6.827 0 6.827 6.827v116.053c0 6.827-6.827 6.827-6.827 6.827h-303.787v102.4h262.827c44.373 0 47.787 40.96 47.787 47.787v215.040c0 6.827-6.827 6.827-6.827 6.827h-116.053c-3.413 0-6.827 0-6.827-6.827v-129.707h-266.24c-44.373 0-47.787-40.96-47.787-47.787 0 0 0-269.653 0-269.653z" />
<glyph unicode="&#xe600;" glyph-name="arrow-up" d="M232.133 381.468c20.969 21.482 241.367 231.396 241.367 231.396 11.222 11.51 25.842 17.218 40.495 17.218s29.305-5.707 40.495-17.218c0 0 220.398-209.914 241.335-231.396 20.969-21.482 22.412-60.085 0-83.074-22.348-22.925-53.545-24.72-80.958 0l-200.872 192.664-200.872-192.6c-27.446-24.72-58.643-22.925-81.022 0s-20.969 61.592 0 83.010z" />
<glyph unicode="&#xe601;" glyph-name="arrow-down" d="M795.89 529.213c-20.969-21.482-241.367-231.396-241.367-231.396-11.19-11.51-25.842-17.218-40.495-17.218s-29.305 5.707-40.495 17.218c0 0-220.398 209.914-241.335 231.396-20.969 21.482-22.412 60.085 0 83.074 22.348 22.925 53.545 24.72 80.958 0l200.872-192.664 200.872 192.6c27.446 24.72 58.643 22.925 81.022 0s20.969-61.592 0-83.010z" />
<glyph unicode="&#xe602;" glyph-name="form-fill" d="M607.573 417.28l-314.027 310.613-30.72-30.72 283.307-279.893-30.72-30.72-283.307 279.893-64.853-61.44 283.307-283.307-30.72-30.72-283.307 283.307-30.72-34.133 314.027-310.613zM204.8 823.467v0l-3.413 3.413c-17.067 17.067-44.373 17.067-61.44 0l-126.293-126.293c-17.067-17.067-17.067-44.373 0-61.44l64.853-64.853 187.733 187.733-61.44 61.44zM563.2 181.76l109.227-13.653-17.067 109.227-13.653 109.227-95.573-95.573-95.573-92.16zM750.933 960h-477.867v-150.187l68.267-68.267v150.187h382.293v-232.107h232.107v-655.36h-614.4v252.587l-68.267 68.267v-389.12h750.933v750.933l-273.067 273.067zM791.893 724.48v98.987l92.16-92.16 3.413-6.827h-95.573z" />
<glyph unicode="&#xe603;" glyph-name="tag" d="M1009.941 285.665l-326.269-326.269q-18.083-18.083-44.663-18.083t-44.663 18.083l-576.262 576.262q-18.083 18.083-18.083 79.323v289.141q0 27.093 19.077 45.689t45.176 18.564h289.141q62.234 0 80.317-18.083l576.262-575.236q18.083-19.077 18.083-45.176t-18.083-44.182zM257.014 840.829q-53.192 0-90.865-37.642t-37.642-90.865 37.642-90.865 90.865-37.642 90.865 37.642 37.642 90.865-37.642 90.865-90.865 37.642z" />
<glyph unicode="&#xe604;" glyph-name="newtab" d="M962.199 61.515h-787.843c-33.185 0-60.246 27.029-60.246 60.278v787.875c0 33.217 27.029 60.246 60.246 60.246h787.843c33.217 0 60.246-27.029 60.246-60.246v-787.843c0-33.281-27.029-60.31-60.246-60.31zM194.203 141.64h748.149v748.149h-748.149v-748.149zM312.995 335.939c-14.108 14.14-14.108 37.225 0 51.396l166.181 166.149c14.108 14.108 14.108 37.225 0 51.332l-114.047 114.079c-14.108 14.108-9.362 25.682 10.677 25.682h362.372c19.943 0 36.327-16.352 36.327-36.295v-362.404c0-19.975-11.543-24.784-25.714-10.677l-114.015 114.047c-14.172 14.172-37.257 14.172-51.461 0l-166.116-166.116c-14.108-14.108-37.225-14.108-51.364 0l-52.839 52.807zM861.298-53.846h-727.309c-74.578 0-135.208 60.662-135.208 135.24v713.009c0 18.981 15.39 34.339 34.339 34.339s34.307-15.358 34.307-34.339v-713.009c0-36.68 29.85-66.562 66.562-66.562h727.309c18.949 0 34.307-15.358 34.307-34.339s-15.39-34.339-34.307-34.339z" />
<glyph unicode="&#xe605;" glyph-name="calender" d="M957.602 787.263v-752.402h-889.203v-68.402h957.602v820.803zM889.203 855.662h-102.6c0-58.142-44.461-102.6-102.6-102.6s-102.6 44.459-102.6 102.6h-239.4c0-58.142-44.459-102.6-102.6-102.6s-102.6 44.459-102.6 102.6h-136.799v-752.402h889.203v752.402zM820.803 171.66h-752.402v513.002h752.402v-513.002zM239.4 821.463c20.52 0 34.199 13.681 34.199 34.201v68.402c0 20.52-13.681 34.199-34.201 34.199s-34.201-13.679-34.201-34.199v-68.402c0-20.52 13.679-34.201 34.201-34.201zM684.004 821.463c20.52 0 34.201 13.681 34.201 34.201v68.402c0 20.52-13.681 34.199-34.201 34.199s-34.201-13.679-34.201-34.199v-68.402c0-20.52 13.681-34.201 34.201-34.201zM205.201 582.062h102.6v-102.6h-102.6v102.6zM410.402 582.062h102.6v-102.6h-102.6v102.6zM581.404 582.062h102.6v-102.6h-102.6v102.6zM205.201 411.062h102.6v-102.6h-102.6v102.6zM410.402 411.062h102.6v-102.6h-102.6v102.6zM581.404 411.062h102.6v-102.6h-102.6v102.6z" />
<glyph unicode="&#xe606;" glyph-name="user" d="M512 362.667c177.493 0 249.173 180.907 249.173 317.44s-54.613 279.893-249.173 279.893c-187.733 0-249.173-143.36-249.173-279.893s64.853-317.44 249.173-317.44zM976.213 171.52l-273.067 105.813c-27.307 10.24-71.68 20.48-102.4 20.48h-174.080c-27.307 0-75.093-6.827-102.4-20.48l-273.067-105.813c-30.72-10.24-51.2-40.96-51.2-71.68v-112.64c0-27.307 23.893-51.2 51.2-51.2h918.187c27.307 0 51.2 23.893 51.2 51.2v112.64c3.413 30.72-17.067 61.44-44.373 71.68z" />
<glyph unicode="&#xe607;" glyph-name="link" d="M992.883 146.128l-169.675-169.675q-34.147-35.141-83.812-35.141t-84.838 35.141l-169.675 169.675q-32.127 32.127-34.147 77.816t26.099 80.83l214.852-215.846q20.071-19.077 47.677-19.077t46.683 19.077l94.36 94.36q19.077 19.077 19.077 46.683t-19.077 47.677l-215.846 214.852q35.141 28.119 80.83 26.099t77.816-34.147l169.675-169.675q35.141-35.141 35.141-84.838t-35.141-83.812zM342.333 627.004q19.077 19.077 45.176 20.071t44.182-17.057l258.008-259.002q18.083-17.057 17.057-43.669t-20.071-45.689-45.176-19.59-44.182 16.576l-258.008 259.002q-18.083 18.083-17.057 44.182t20.071 45.176zM336.305 820.758q-19.077 20.071-46.683 20.071t-47.677-20.071l-93.366-93.366q-20.071-20.071-20.071-47.677t20.071-46.683l214.852-214.852q-35.141-28.119-80.83-26.099t-77.816 34.147l-169.675 169.675q-35.141 35.141-35.141 84.838t35.141 84.838l169.675 168.649q34.147 35.141 83.812 35.141t84.838-35.141l169.675-168.649q32.127-33.121 34.147-78.81t-26.099-80.83z" />
<glyph unicode="&#xe608;" glyph-name="shoppingcart" d="M1024 704h-61.44l-211.627-354.987h-430.080l-126.293 389.12-34.133 119.467h-160.427l20.48-58.027h95.573l191.147-587.093c-40.96-6.827-71.68-44.373-71.68-85.333 0-51.2 37.547-88.747 88.747-88.747 47.787 0 88.747 37.547 88.747 88.747 0 10.24-3.413 20.48-6.827 30.72h245.76c-3.413-10.24-6.827-20.48-6.827-30.72 0-47.787 40.96-88.747 88.747-88.747s88.747 37.547 88.747 88.747c0 47.787-37.547 85.333-81.92 88.747 0 0-6.827 0-6.827 0h-365.227l-30.72 81.92h450.56l235.52 406.187z" />
<glyph unicode="&#xe609;" glyph-name="sort" horiz-adv-x="577" d="M587.451 317.663q0-14.909-10.901-25.81l-257.014-257.014q-10.901-10.901-25.81-10.901t-25.81 10.901l-257.014 257.014q-10.901 10.901-10.901 25.81t10.901 25.81 25.81 10.901h513.996q14.909 0 25.81-10.901t10.901-25.81zM587.451 537.934q0-14.909-10.901-25.81t-25.81-10.901h-513.996q-14.909 0-25.81 10.901t-10.901 25.81 10.901 25.81l257.014 257.014q10.901 10.901 25.81 10.901t25.81-10.901l257.014-257.014q10.901-10.901 10.901-25.81z" />
<glyph unicode="&#xe60a;" glyph-name="list" d="M409.6 881.493h580.267v-102.4h-580.267v102.4zM34.133 925.867h204.8v-204.8h-204.8v204.8zM34.133 550.4h204.8v-204.8h-204.8v204.8zM34.133 174.933h204.8v-204.8h-204.8v204.8zM409.6 499.2h580.267v-102.4h-580.267v102.4zM409.6 123.733h580.267v-102.4h-580.267v102.4z" />
<glyph unicode="&#xe60b;" glyph-name="phone" d="M577.191 379.32c-81.375-81.407-175.639-159.223-212.896-121.934-53.352 53.288-86.184 99.779-203.79 5.29s-27.285-157.492 24.4-209.209c59.636-59.572 281.895-3.142 501.62 216.551 219.629 219.693 276.187 441.983 216.487 501.62-51.653 51.717-114.624 141.973-209.144 24.4s-48.062-150.438 5.29-203.79c37.161-37.321-40.591-131.521-121.966-212.96z" />
<glyph unicode="&#xe60d;" glyph-name="facebook-full" d="M856.681 969.336h-685.339c-94.232 0-171.343-77.111-171.343-171.343v-685.306c0-94.296 77.111-171.343 171.343-171.343h685.339c94.232 0 171.311 77.046 171.311 171.343v685.306c0 94.232-77.079 171.343-171.311 171.343zM873.995 455.34h-167.239v-449.742h-192.76v449.742h-92.885v147.135h92.885v95.547c0 129.854 56.013 207.060 208.696 207.060h175.928v-159.191h-143.705c-42.643 0.064-47.934-22.251-47.934-63.773l-0.224-79.676h192.76l-25.522-147.135z" />
<glyph unicode="&#xe60e;" glyph-name="plus" d="M1028.024 583.847h-385.489v385.489h-257.014v-385.489h-385.489v-257.014h385.489v-385.489h257.014v385.489h385.489z" />
<glyph unicode="&#xe60f;" glyph-name="twitter" d="M1028.024 774.171c-37.834-16.769-78.457-28.119-121.133-33.217 43.541 26.099 76.982 67.428 92.725 116.676-40.752-24.175-85.896-41.713-133.926-51.172-38.475 40.976-93.302 66.594-153.933 66.594-116.484 0-210.908-94.424-210.908-210.908 0-16.544 1.86-32.64 5.451-48.062-175.286 8.785-330.694 92.757-434.705 220.366-18.147-31.165-28.568-67.364-28.568-106.031 0-73.167 37.225-137.741 93.815-175.543-34.564 1.090-67.107 10.581-95.515 26.388-0.032-0.866-0.032-1.763-0.032-2.661 0-102.184 72.718-187.438 169.194-206.804-17.699-4.809-36.327-7.406-55.565-7.406-13.595 0-26.804 1.315-39.694 3.783 26.836-83.78 104.717-144.763 197.025-146.462-72.173-56.558-163.135-90.288-261.952-90.288-17.025 0-33.826 0.994-50.306 2.95 93.334-59.829 204.207-94.777 323.319-94.777 387.926 0 600.084 321.364 600.084 600.084 0 9.138-0.192 18.244-0.609 27.285 41.2 29.722 76.982 66.883 105.262 109.173z" />
<glyph unicode="&#xe610;" glyph-name="linkedin" d="M260.926 799.725c0-54.635-40.335-98.881-106.704-98.881-62.458 0-102.793 44.246-102.793 98.881 0 55.917 41.681 98.881 105.422 98.881s102.793-42.964 104.075-98.881zM56.655-13.64v636.347h197.794v-636.347h-197.794zM372.824 419.719c0 79.355-2.629 145.725-5.258 202.988h171.792l9.138-88.525h3.912c26.003 41.681 89.807 102.793 196.512 102.793 130.11 0 227.709-87.178 227.709-274.584v-376.095h-197.794v352.657c0 81.984-28.696 137.965-100.228 137.965-54.635 0-87.114-37.738-101.478-74.161-5.226-13.017-6.541-31.197-6.541-49.441v-366.989h-197.794v433.423z" />
<glyph unicode="&#xe611;" glyph-name="capacity" d="M581.404-50.64h-136.801v376.201h-68.4v307.801c0 71.82 30.78 102.6 102.6 102.6h68.4c71.82 0 102.6-30.78 102.6-102.6v-307.801h-68.4v-376.201zM513.002 783.842c-54.719 0-95.759 44.459-95.759 95.759s41.040 95.759 95.759 95.759 95.759-44.461 95.759-95.759c0-54.721-41.040-95.759-95.759-95.759zM205.201-50.64h-136.799v376.201h-68.4v307.801c0 71.82 30.78 102.6 102.6 102.6h68.4c71.82 0 102.6-30.78 102.6-102.6v-307.801h-68.4v-376.201zM136.799 783.842c-54.719 0-95.759 44.459-95.759 95.759s41.040 95.759 95.759 95.759 95.761-44.461 95.761-95.759c0-54.721-41.040-95.759-95.759-95.759zM957.602-50.64h-136.801v376.201h-68.4v307.801c0 71.82 30.78 102.6 102.6 102.6h68.4c71.82 0 102.6-30.78 102.6-102.6v-307.801h-68.4v-376.201zM889.203 783.842c-54.719 0-95.759 44.459-95.759 95.759s41.040 95.759 95.759 95.759 95.759-44.461 95.759-95.759c0-54.721-41.040-95.759-95.759-95.759z" />
<glyph unicode="&#xe612;" glyph-name="location" d="M506.163 872.764c-171.002 0-307.801-136.801-307.801-307.801 0-205.201 307.801-513.002 307.801-513.002s307.801 307.801 307.801 513.002c0 171.002-136.801 307.801-307.801 307.801zM506.163 424.741c-88.922 0-160.742 71.82-160.742 160.742s71.82 160.742 160.742 160.742 160.742-71.82 160.742-160.742c0-88.92-71.82-160.742-160.742-160.742z" />
<glyph unicode="&#xe613;" glyph-name="price" d="M660.063 629.941c34.201 0 61.56-27.361 61.56-64.981 0-34.199-27.361-64.979-61.56-64.979h-229.14c-3.421-13.681-3.421-27.361-3.421-37.621 0-13.681 0-27.361 3.421-37.621h229.14c34.201 0 61.56-27.361 61.56-64.979 0-34.201-27.361-64.979-61.56-64.979h-191.52c58.14-109.44 171-181.262 290.7-181.262h13.681c27.361 0 47.882-23.941 47.882-58.142s-20.52-64.979-44.461-68.4v0h-17.101c-188.101 0-359.101 123.12-424.080 311.222h-68.4c-34.201 0-61.56 27.361-61.56 64.979 0 34.201 27.359 64.979 61.56 64.979h41.040c-3.421 13.681-3.421 23.941-3.421 37.621s0 23.941 3.421 37.621v0h-41.040c-34.201-3.421-61.56 27.361-61.56 61.56s27.359 64.979 61.56 64.979h68.4c68.4 184.681 235.981 311.222 424.080 311.222h13.681c27.361-3.421 47.882-34.201 47.882-68.402s-17.101-58.14-41.040-58.14h-20.52c-119.7 0-232.56-71.82-290.7-181.262h191.52z" />
<glyph unicode="&#xe614;" glyph-name="book" d="M546.133 38.4h-68.267l-477.867 68.267v682.667h68.267v-621.227l409.6-61.44h68.267l409.6 58.027v624.64h68.267v-682.667l-477.867-68.267zM546.133 785.92c122.88 68.267 341.333 71.68 341.333 71.68v-614.4c0 0-218.453 0-341.333-71.68v614.4zM136.533 857.6c0 0 218.453 0 341.333-71.68v-610.987c-122.88 68.267-341.333 68.267-341.333 68.267v614.4z" />
<glyph unicode="&#xe615;" glyph-name="surface" d="M102.6 872.764v-615.602h615.602v615.602h-615.602zM649.803 325.561h-478.803v478.803h478.803v-478.803zM855.002 393.96v342.002h-68.4l102.6 136.801 102.6-136.801h-68.402v-342.002h68.402l-102.6-136.801-102.6 136.801zM581.404 51.96h-342.002v-68.4l-136.799 102.6 136.799 102.6v-68.402h342.002v68.402l136.801-102.6-136.801-102.6z" />
<glyph unicode="&#xe616;" glyph-name="closingtime" d="M296.96 280.744l136.532 136.534c-3.414 6.826-3.414 17.068-3.414 23.894 0 34.134 20.48 64.854 51.2 78.508v337.92c0 17.068 17.068 34.134 34.132 34.134-249.174 0-447.146-197.974-447.146-443.734 0-122.88 51.2-232.106 129.706-314.028l95.572 95.572c-13.654 17.068-10.24 37.548 3.414 51.2zM512 959.998c-34.132 0-68.266-3.414-102.4-10.24s-64.854-17.068-95.572-30.72c-47.786-17.068-88.748-44.374-126.294-75.094s-71.68-68.266-98.986-109.226c-58.028-81.92-88.746-180.908-88.746-286.72 0-54.614 6.826-105.812 23.894-153.6 23.894-78.506 68.266-150.188 126.292-208.212 10.24-10.24 23.894-23.894 37.546-34.134 23.894-20.48 51.2-40.96 81.92-54.612 13.654-6.826 30.72-13.654 44.372-20.48 30.72-13.654 61.44-23.894 95.572-30.72s68.266-10.24 102.4-10.24c283.308 0 512 228.692 512 512s-228.692 512-512 512zM512 355.838c-10.24 0-20.48 3.414-30.72 6.826l-133.12-133.12c-13.654-13.654-37.548-13.654-51.2 0 0 0 0 0 0 0l-95.572-95.572c-81.92 81.92-133.12 191.148-133.12 314.028 0 245.76 197.974 443.732 443.734 443.732 17.068 0 34.134-17.068 34.134-34.134v-337.92c30.72-13.654 51.2-44.372 51.2-78.508 0-47.788-37.548-85.332-85.332-85.332z" />
<glyph unicode="&#xe617;" glyph-name="save" d="M887.467-29.867h-887.467v955.733h1024v-819.2l-136.533-136.533zM307.2 38.4h409.6v238.933h-409.6v-238.933zM819.2 857.6h-614.4v-409.6h614.4v409.6zM375.467 209.067h136.533v-102.4h-136.533v102.4z" />
<glyph unicode="&#xe618;" glyph-name="edit" d="M1006.933 652.8l-6.827-3.413-92.16-92.16-286.72 286.72 92.16 92.16 3.413 6.827c23.893 23.893 68.267 23.893 92.16-3.413l191.147-191.147c30.72-27.307 30.72-68.267 6.827-95.573zM238.933 270.507l426.667 433.493 95.573-95.573-430.080-433.493 47.787-47.787 426.667 430.080 47.787-47.787-474.453-477.867-286.72 286.72 474.453 477.867 47.787-47.787-423.253-430.080 47.787-47.787zM334.507-16.213l-334.507-47.787 47.787 334.507 286.72-286.72z" />
<glyph unicode="&#xe619;" glyph-name="throbber" d="M761.173 379.733c-30.72 0-54.613 23.893-54.613 54.613s23.893 54.613 54.613 54.613c30.72 0 54.613-23.893 54.613-54.613-3.413-30.72-27.307-54.613-54.613-54.613zM686.080 560.64c-13.653 0-27.307 6.827-37.547 17.067-20.48 20.48-20.48 54.613 0 75.093 10.24 10.24 23.893 17.067 37.547 17.067s27.307-6.827 37.547-17.067c20.48-20.48 20.48-54.613 0-75.093-10.24-13.653-23.893-17.067-37.547-17.067zM505.173 601.6c-47.787 0-85.333 37.547-85.333 85.333s37.547 85.333 85.333 85.333c47.787 0 85.333-37.547 85.333-85.333s-37.547-85.333-85.333-85.333zM327.68 198.827c-13.653 0-27.307 6.827-37.547 17.067-20.48 20.48-20.48 54.613 0 75.093 10.24 10.24 23.893 17.067 37.547 17.067s27.307-6.827 37.547-17.067c20.48-20.48 20.48-54.613 0-75.093-10.24-10.24-23.893-17.067-37.547-17.067zM327.68 560.64c-13.653 0-27.307 6.827-37.547 17.067-20.48 20.48-20.48 54.613 0 75.093 10.24 10.24 23.893 17.067 37.547 17.067s27.307-6.827 37.547-17.067c20.48-20.48 20.48-54.613 0-75.093-10.24-13.653-23.893-17.067-37.547-17.067zM303.787 430.933c0-30.72-23.893-54.613-54.613-54.613s-54.613 23.893-54.613 54.613 23.893 54.613 54.613 54.613c30.72 0 54.613-23.893 54.613-54.613zM505.173 229.547c30.72 0 54.613-23.893 54.613-54.613s-23.893-54.613-54.613-54.613c-30.72 0-54.613 23.893-54.613 54.613 3.413 30.72 27.307 54.613 54.613 54.613zM686.080 304.64c13.653 0 27.307-6.827 37.547-17.067 20.48-20.48 20.48-54.613 0-75.093-10.24-10.24-23.893-17.067-37.547-17.067s-27.307 6.827-37.547 17.067c-20.48 20.48-20.48 54.613 0 75.093 10.24 10.24 23.893 17.067 37.547 17.067z" />
<glyph unicode="&#xe61a;" glyph-name="instagram" d="M874.483 959.977c41.331 0 76.579-14.582 105.746-43.748s43.748-64.413 43.748-105.746v-724.968c0-41.331-14.582-76.579-43.748-105.746s-64.413-43.748-105.746-43.748h-724.968c-41.331 0-76.579 14.582-105.746 43.748s-43.748 64.413-43.748 105.746v724.968c0 41.331 14.582 76.579 43.748 105.746s64.413 43.748 105.746 43.748h724.968zM512 639.992c-52.998 0-98.245-18.75-135.744-56.247s-56.247-82.747-56.247-135.744c0-52.998 18.75-98.245 56.247-135.744s82.747-56.247 135.744-56.247c52.998 0 98.245 18.75 135.744 56.247s56.247 82.747 56.247 135.744c0 52.998-18.75 98.245-56.247 135.744s-82.747 56.247-135.744 56.247zM917.483 64.017v447.98h-113.496c4.333-19.666 6.499-40.998 6.499-63.997 0-53.998-13.332-103.912-39.998-149.744s-62.914-82.080-108.746-108.746c-45.832-26.666-95.746-39.998-149.744-39.998s-103.912 13.332-149.744 39.998c-45.832 26.666-82.080 62.914-108.746 108.746s-39.998 95.746-39.998 149.744c0 22.999 2.166 44.331 6.499 63.997h-113.496v-447.98c0-6 2.083-11.083 6.249-15.249s9.249-6.249 15.249-6.249h767.966c6 0 11.083 2.083 15.249 6.249s6.249 9.249 6.249 15.249zM917.483 703.989v127.994c0 6-2.083 11.083-6.249 15.249s-9.249 6.249-15.249 6.249h-127.994c-6 0-11.083-2.083-15.249-6.249s-6.249-9.249-6.249-15.249v-127.994c0-6 2.083-11.083 6.249-15.249s9.249-6.249 15.249-6.249h127.994c6 0 11.083 2.083 15.249 6.249s6.249 9.249 6.249 15.249z" />
<glyph unicode="&#xe61b;" glyph-name="googleplus" d="M832 621.438v-26.875h-106.562v-106.562h-26.875v106.562h-106.562v26.875h106.562v106.562h26.875v-106.562h106.562zM469.812 403.625c21.667-15.833 36.823-31.875 45.469-48.125s12.969-36.562 12.969-60.938c0-15.417-3.698-30.26-11.094-44.531s-17.812-27.083-31.25-38.438c-13.438-11.354-30.781-20.469-52.031-27.344s-44.792-10.312-70.625-10.312c-31.042 0-59.479 3.906-85.312 11.719s-46.615 19.323-62.344 34.531c-15.729 15.208-23.594 32.604-23.594 52.188 0 31.458 16.094 59.479 48.281 84.062s70.885 36.875 116.094 36.875h29.062c-14.792 14.375-22.188 29.687-22.188 45.938 0 11.458 2.708 21.979 8.125 31.562-3.542-0.417-8.75-0.625-15.625-0.625-37.5 0-68.125 11.667-91.875 35s-35.625 52.187-35.625 86.562c0 21.458 6.875 41.719 20.625 60.781s31.875 34.167 54.375 45.313c22.5 11.146 46.146 16.719 70.938 16.719h167.5l-37.812-27.187h-53.438c17.083-6.458 30.365-18.594 39.844-36.406s14.219-37.864 14.219-60.156c0-33.959-15.729-63.021-47.188-87.188-13.125-10.625-21.719-19.010-25.781-25.156s-6.094-13.802-6.094-22.969c0-7.083 4.948-15.885 14.844-26.406s19.74-19.010 29.531-25.469zM380.125 487.375c21.458-0.833 38.49 8.542 51.094 28.125s17.031 43.542 13.281 71.875c-3.542 28.333-14.271 52.5-32.188 72.5s-37.812 30.312-59.688 30.937c-21.458 0.833-38.49-8.333-51.094-27.5s-17.031-42.812-13.281-70.937c3.75-28.333 14.635-52.76 32.656-73.281s37.76-31.094 59.219-31.719zM363.25 200.5c42.5 0 73.333 7.969 92.5 23.906s28.75 37.135 28.75 63.594c0 3.542-0.417 9.271-1.25 17.188-1.25 4.375-3.177 8.698-5.781 12.969s-4.896 7.76-6.875 10.469c-1.979 2.708-5.781 6.302-11.406 10.781s-9.531 7.552-11.719 9.219c-2.188 1.667-7.396 5.365-15.625 11.094s-13.594 9.427-16.094 11.094c-12.083 3.542-25.937 5.833-41.562 6.875-21.25 0-41.198-3.906-59.844-11.719s-33.594-18.49-44.844-32.031c-11.25-13.542-16.875-28.125-16.875-43.75 0-24.792 10.469-45.937 31.406-63.438s47.344-26.25 79.219-26.25z" />
<glyph unicode="&#xe61c;" glyph-name="flickr" d="M0 448c0-123.71 100.288-224 224-224s224 100.29 224 224c0 123.712-100.288 224-224 224s-224-100.288-224-224zM576 448c0-123.71 100.29-224 224-224s224 100.29 224 224c0 123.712-100.29 224-224 224s-224-100.288-224-224z" />
<glyph unicode="&#xe61d;" glyph-name="vimeo" d="M874.872 860.876c99.075-2.603 148.636-58.845 149.128-168.874 0-7.221-0.246-14.736-0.639-22.448-4.372-93.278-73.778-220.351-208.513-381.169-138.96-168.481-256.847-252.819-353.662-253.262-60.221 0-110.225 51.576-150.356 154.776l-42.145 141.465-41.654 141.268c-30.7 102.366-63.512 153.45-98.534 153.45-7.663 0-34.236-14.932-79.869-44.699l-48.629 57.519 75.448 62.677 74.22 62.038c66.459 53.246 117.003 82.030 151.682 86.303 4.617 0.491 9.235 0.639 13.95 0.639 71.175 0 115.628-51.134 133.065-153.45 9.726-58.354 17.781-105.804 24.314-142.251 6.336-36.545 11.641-61.989 15.866-76.479 23.528-96.766 48.874-145.395 76.136-145.787 20.925 0 53.148 31.535 96.668 94.605 42.538 64.789 65.428 112.779 68.375 144.019 0.933 6.336 1.277 12.28 1.277 17.781 0 42.292-23.283 63.365-69.652 63.365-23.528 0-48.629-5.010-75.497-14.687 48.137 148.391 140.679 222.709 277.527 223.2 3.831 0 7.614 0 11.494 0z" />
<glyph unicode="&#xe61e;" glyph-name="error, close" d="M512 960c-283.107 0-512-228.895-512-512s228.895-512 512-512 512 228.895 512 512-228.895 512-512 512zM813.177 279.342l-132.517-132.517-168.658 168.658-168.658-168.658-132.517 132.517 168.658 168.658-168.658 168.658 132.517 132.517 168.658-168.658 168.658 168.658 132.517-132.517-168.658-168.658 168.658-168.658z" />
<glyph unicode="&#xe61f;" glyph-name="adventure" d="M938.667 666.453v119.467l-187.733 153.6-44.373-37.547c-34.133 30.72-78.507 51.2-126.293 51.2-68.267 0-126.293-34.133-160.427-88.747-30.72 17.067-61.44 27.307-95.573 27.307-105.813 0-191.147-85.333-191.147-191.147 0-3.413 0-6.827 0-10.24-64.853-23.893-112.64-78.507-122.88-150.187 0 0 0-3.413 0-3.413 0-10.24-3.413-17.067-3.413-27.307 0 0 0 0 0 0s0 0 0 0 0 0 0 0c0-105.813 85.333-187.733 191.147-187.733 3.413 0 6.827 0 13.653 0v0c10.24 0 17.067 3.413 27.307 3.413v-47.787c-44.373-6.827-78.507-47.787-78.507-95.573 0-54.613 44.373-95.573 95.573-95.573 54.613 0 95.573 44.373 95.573 95.573 0 47.787-34.133 85.333-78.507 95.573v54.613c6.827 3.413 13.653 6.827 20.48 10.24 27.307-17.067 61.44-27.307 95.573-27.307 23.893 0 44.373 3.413 64.853 10.24v-331.093h-64.853v-58.027h256v64.853h-64.853v317.44c10.24 0 20.48 0 30.72 3.413 10.24-3.413 20.48-3.413 30.72-3.413 34.133 0 68.267 10.24 95.573 27.307 27.307-17.067 61.44-27.307 95.573-27.307 105.813 0 191.147 85.333 191.147 191.147 0 64.853-34.133 122.88-85.333 157.013zM314.027 181.76c0-34.133-27.307-61.44-61.44-61.44s-61.44 27.307-61.44 61.44 27.307 61.44 61.44 61.44c34.133 3.413 61.44-27.307 61.44-61.44zM904.533 516.267h-153.6v139.947h-102.4v-139.947h-51.2v256l153.6 122.88 153.6-126.293v-252.587zM873.813 744.96c0-24.507-19.867-44.373-44.373-44.373s-44.373 19.867-44.373 44.373c0 24.507 19.867 44.373 44.373 44.373s44.373-19.867 44.373-44.373z" />
<glyph unicode="&#xe620;" glyph-name="appliances" d="M450.56 4.267h88.747v177.493l-44.373 51.2-44.373-51.2zM361.813 799.573c-13.653 6.827-20.48 20.48-23.893 34.133s0 27.307 6.827 40.96c6.827 13.653 20.48 20.48 34.133 23.893s27.307 0 40.96-6.827c13.653-6.827 20.48-20.48 23.893-34.133s0-27.307-6.827-40.96c-6.827-13.653-20.48-20.48-34.133-23.893-17.067-3.413-30.72-3.413-40.96 6.827zM122.88 584.533l136.533 20.48-85.333 81.92c0 3.413-6.827 10.24-6.827 17.067-6.827 17.067 3.413 30.72 17.067 44.373l78.507 68.267c10.24 3.413 17.067 6.827 23.893 10.24 13.653 3.413 23.893 0 34.133-6.827 10.24-10.24 17.067-20.48 20.48-34.133 3.413-17.067 0-30.72-13.653-40.96l-64.853-54.613 68.267-68.267c3.413-3.413 6.827-10.24 6.827-20.48s0-17.067-6.827-23.893c-6.827-10.24-13.653-13.653-23.893-17.067l-174.080-30.72-10.24 54.613zM925.013 345.6c-13.653-6.827-27.307-6.827-40.96-3.413s-23.893 13.653-30.72 27.307c-6.827 13.653-6.827 27.307-3.413 40.96s13.653 23.893 27.307 30.72c13.653 6.827 27.307 6.827 40.96 3.413s23.893-13.653 30.72-27.307c6.827-13.653 6.827-27.307 3.413-40.96-6.827-13.653-13.653-23.893-27.307-30.72zM17.067 471.893l720.213-273.067c3.413 6.827 6.827 10.24 13.653 13.653s17.067 6.827 23.893 3.413l92.16-23.893v85.333c0 17.067 6.827 30.72 23.893 40.96 10.24 6.827 23.893 6.827 37.547 3.413s23.893-10.24 27.307-23.893c3.413-6.827 3.413-13.653 3.413-23.893v-105.813c0-20.48-3.413-34.133-23.893-44.373 0 0-3.413 0-6.827 0l95.573-34.133-17.067-47.787-167.253 64.853-20.48 37.547-13.653-6.827 61.44-116.053-23.893-13.653-27.307-10.24-78.507 150.187-737.28 276.48 17.067 47.787z" />
<glyph unicode="&#xe621;" glyph-name="basketball" d="M631.467 465.067h392.533c-6.827 153.6-78.507 290.133-191.147 382.293-119.467-88.747-197.973-225.28-201.387-382.293zM832.853 48.64c112.64 92.16 184.32 228.693 191.147 382.293h-392.533c6.827-157.013 85.333-293.547 201.387-382.293zM802.133 867.84c-78.507 54.613-170.667 88.747-273.067 92.16v-494.933h68.267c3.413 163.84 85.333 307.2 204.8 402.773zM597.333 430.933h-68.267v-494.933c102.4 3.413 197.973 37.547 276.48 92.16-122.88 92.16-201.387 238.933-208.213 402.773zM385.707 430.933h-385.707c6.827-153.6 78.507-290.133 187.733-378.88 116.053 85.333 191.147 221.867 197.973 378.88zM187.733 843.947c-109.227-92.16-184.32-228.693-187.733-378.88h385.707c-6.827 153.6-81.92 290.133-197.973 378.88zM215.040 31.573c78.507-58.027 177.493-92.16 279.893-95.573v494.933h-75.093c-6.827-163.84-85.333-307.2-204.8-399.36zM419.84 465.067h75.093v494.933c-102.4-3.413-201.387-37.547-279.893-92.16 119.467-95.573 197.973-242.347 204.8-402.773z" />
<glyph unicode="&#xe622;" glyph-name="bbq" d="M839.68 301.227c-102.4 0-184.32-81.92-184.32-180.907s81.92-180.907 184.32-180.907c102.4 0 184.32 81.92 184.32 180.907s-81.92 180.907-184.32 180.907zM839.68 31.573c-47.787 0-88.747 37.547-88.747 85.333s40.96 85.333 88.747 85.333c47.787 0 88.747-37.547 88.747-85.333-3.413-44.373-40.96-85.333-88.747-85.333zM488.107 434.347c40.96 0 78.507 3.413 116.053 13.653l64.853-146.773c30.72 30.72 71.68 51.2 116.053 58.027l-61.44 136.533c146.773 81.92 249.173 238.933 249.173 416.427 0 27.307 0 47.787 0 47.787h-972.8c0 0 0-20.48 0-47.787 0-180.907 98.987-334.507 249.173-416.427l-249.173-559.787h139.947l54.613 119.467h402.773c-6.827 20.48-6.827 40.96-6.827 64.853s3.413 44.373 10.24 64.853h-348.16l116.053 262.827c37.547-10.24 78.507-13.653 119.467-13.653zM98.987 864.427h143.36c13.653-146.773 85.333-269.653 187.733-331.093-170.667 23.893-307.2 160.427-331.093 331.093z" />
<glyph unicode="&#xe623;" glyph-name="fitness" d="M590.507 820.053c0-43.358-35.149-78.507-78.507-78.507s-78.507 35.149-78.507 78.507c0 43.358 35.149 78.507 78.507 78.507s78.507-35.149 78.507-78.507zM6.827 533.333h61.44v-249.173h-61.44v249.173zM843.093 434.347h-126.293l-3.413 215.040c0 40.96-34.133 75.093-75.093 75.093h-259.413c-40.96-3.413-71.68-34.133-71.68-78.507v-215.040h-126.293v139.947h-85.333v-327.68h85.333v139.947h218.453c-3.413-119.467-17.067-413.013-17.067-413.013h98.987l20.48 382.293c3.413 0 17.067 0 20.48 0l30.72-382.293h98.987c0 0-20.48 293.547-27.307 416.427h221.867v-139.947h85.333v327.68h-85.333v-139.947zM382.293 434.347v0 160.427c0 6.827 3.413 10.24 10.24 10.24s10.24-3.413 10.24-10.24v-133.12c0 0 0-10.24 0-27.307h-20.48zM641.707 434.347h-20.48c0 17.067 0 27.307 0 27.307v133.12c0 6.827 3.413 10.24 10.24 10.24s10.24-3.413 10.24-10.24v-160.427zM955.733 533.333h61.44v-249.173h-61.44v249.173z" />
<glyph unicode="&#xe624;" glyph-name="football" d="M331.093 488.96l71.68-208.213h218.453l71.68 208.213-180.907 133.12zM512 960c-283.307 0-512-228.693-512-512s228.693-512 512-512 512 228.693 512 512-228.693 512-512 512zM907.947 280.747c-13.653-30.72-30.72-61.44-51.2-88.747l-3.413 47.787-160.427-37.547-85.333-143.36 44.373-20.48c-44.373-13.653-92.16-23.893-139.947-23.893s-92.16 6.827-136.533 23.893l44.373 20.48-85.333 143.36-163.84 37.547-3.413-47.787c-20.48 27.307-37.547 58.027-51.2 88.747-23.893 54.613-34.133 109.227-34.133 167.253 0 0 0 3.413 0 3.413l30.72-30.72 109.227 126.293-17.067 163.84-40.96-10.24c13.653 17.067 27.307 34.133 44.373 51.2 40.96 40.96 85.333 71.68 136.533 92.16 10.24 3.413 23.893 10.24 34.133 13.653l-20.48-37.547 153.6-64.853 153.6 64.853-23.893 37.547c13.653-3.413 23.893-6.827 37.547-13.653 51.2-20.48 98.987-51.2 136.533-92.16 17.067-17.067 30.72-34.133 44.373-51.2l-40.96 10.24-13.653-163.84 109.227-126.293 30.72 30.72c0 0 0 0 0-3.413-3.413-58.027-13.653-116.053-37.547-167.253z" />
<glyph unicode="&#xe625;" glyph-name="forest" d="M904.533 492.373c0 3.413 0 3.413 0 6.827 0 68.267-51.2 122.88-116.053 126.293-23.893 27.307-58.027 44.373-95.573 44.373-44.373 0-85.333-23.893-109.227-58.027-17.067 10.24-34.133 13.653-51.2 17.067 3.413 10.24 6.827 23.893 6.827 37.547 0 37.547-23.893 71.68-61.44 85.333 0 3.413 0 3.413 0 6.827 0 47.787-37.547 85.333-81.92 88.747-17.067 17.067-40.96 30.72-68.267 30.72-30.72-3.413-58.027-20.48-71.68-44.373-13.653 6.827-30.72 10.24-44.373 10.24-51.2 0-92.16-40.96-92.16-88.747 0 0 0-3.413 0-3.413-37.547-10.24-68.267-44.373-68.267-88.747 0-51.2 40.96-92.16 92.16-92.16 20.48 0 37.547 6.827 51.2 17.067 0 0 0 0 0 0 13.653-6.827 27.307-13.653 44.373-13.653 10.24 0 20.48 3.413 30.72 6.827v-58.027c-17.067-6.827-34.133-20.48-44.373-37.547-13.653 6.827-30.72 13.653-47.787 13.653-54.613 0-102.4-44.373-102.4-102.4 0-3.413 0-3.413 0-6.827-40.96-6.827-75.093-47.787-75.093-95.573 0-54.613 44.373-102.4 102.4-102.4 20.48 0 40.96 6.827 58.027 17.067 0 0 0 0 0 0 13.653-10.24 30.72-13.653 51.2-13.653 10.24 0 23.893 3.413 34.133 6.827v-174.080h68.267v167.253c6.827 0 10.24 0 17.067 0s10.24 0 17.067 0c17.067 0 34.133 6.827 51.2 13.653 13.653-10.24 30.72-13.653 51.2-13.653 37.547 0 71.68 20.48 88.747 51.2 10.24-3.413 20.48-3.413 30.72-3.413 13.653 0 30.72 3.413 40.96 6.827v-221.867h85.333v211.627c6.827 0 13.653 0 20.48 3.413 6.827 0 13.653-3.413 20.48-3.413 23.893 0 44.373 6.827 64.853 17.067 20.48-10.24 40.96-17.067 64.853-17.067 71.68 0 126.293 58.027 126.293 126.293-3.413 64.853-40.96 109.227-88.747 126.293zM344.747 577.707c3.413 0 10.24 0 13.653 0 17.067 0 30.72 3.413 44.373 13.653 3.413-3.413 10.24-3.413 17.067-6.827-17.067-20.48-27.307-47.787-27.307-78.507 0 0 0-3.413 0-3.413-3.413 0-3.413 0-6.827 0-13.653 17.067-34.133 27.307-54.613 30.72v44.373c3.413-3.413 10.24-3.413 13.653 0z" />
<glyph unicode="&#xe626;" glyph-name="historical-value" d="M597.333 697.173c0 0-10.24 0-10.24 20.48s-17.067 37.547-40.96 37.547c-23.893 0-40.96-17.067-40.96-40.96 0-20.48-10.24-20.48-10.24-20.48-6.827 0-10.24-3.413-10.24-10.24s3.413-10.24 10.24-10.24h102.4c6.827 0 10.24 3.413 10.24 10.24s-3.413 13.653-10.24 13.653zM566.613 645.973c0-11.311-9.169-20.48-20.48-20.48s-20.48 9.169-20.48 20.48c0 11.311 9.169 20.48 20.48 20.48s20.48-9.169 20.48-20.48zM576.853 925.867c0-16.966-13.754-30.72-30.72-30.72s-30.72 13.754-30.72 30.72c0 16.966 13.754 30.72 30.72 30.72s30.72-13.754 30.72-30.72zM730.453 424.107l-61.44 184.32v163.84c10.24 0 20.48 10.24 20.48 20.48s-10.24 20.48-20.48 20.48h-40.96c0 44.373-37.547 81.92-81.92 81.92s-81.92-37.547-81.92-81.92h-40.96c-10.24 0-20.48-10.24-20.48-20.48s10.24-20.48 20.48-20.48v-163.84l-61.44-184.32h-102.4v-61.44h40.96v-419.84h488.107v419.84h40.96v61.44h-98.987zM464.213 772.267h163.84v-163.84h-163.84v163.84zM505.173 79.36v0-61.44h-122.88v225.28c0 34.133 27.307 61.44 61.44 61.44s61.44-27.307 61.44-61.44v-163.84zM709.973 79.36v0-61.44h-122.88v225.28c0 34.133 27.307 61.44 61.44 61.44s61.44-27.307 61.44-61.44v-163.84z" />
<glyph unicode="&#xe627;" glyph-name="nature" d="M327.68 417.28c-47.787 0-78.507-37.547-88.747-88.747l-13.653-81.92-225.28-225.28h204.8l34.133-81.92 37.547 92.16c78.507 23.893 136.533 98.987 136.533 187.733v68.267l64.853 30.72-64.853 27.307c-6.827 40.96-44.373 71.68-85.333 71.68zM344.747 308.053c-10.24 0-20.48 10.24-20.48 20.48s10.24 17.067 20.48 17.067 20.48-10.24 20.48-20.48-10.24-17.067-20.48-17.067zM682.667 116.907c-20.48 20.48-47.787 30.72-75.093 30.72v0h-102.4v-102.4c0-27.307 10.24-54.613 30.72-75.093 0 0 0 0 0 0 40.96-40.96 105.813-40.96 146.773 0 20.48 20.48 30.72 47.787 30.72 71.68 0 27.307-10.24 54.613-30.72 75.093 0 0 0 0 0 0zM815.787 232.96c58.027 0 102.4 44.373 102.4 102.4 58.027 0 102.4 44.373 102.4 102.4 0 30.72-13.653 54.613-34.133 75.093 20.48 17.067 34.133 44.373 34.133 75.093 0 58.027-44.373 102.4-102.4 102.4 0 58.027-44.373 102.4-102.4 102.4-30.72 0-54.613-13.653-75.093-34.133-17.067 20.48-44.373 34.133-75.093 34.133-58.027 0-102.4-44.373-102.4-102.4-58.027 0-102.4-44.373-102.4-102.4 0-30.72 13.653-54.613 34.133-75.093-20.48-17.067-34.133-44.373-34.133-75.093 0-58.027 44.373-102.4 102.4-102.4 0-58.027 44.373-102.4 102.4-102.4 17.067 0 34.133 3.413 47.787 10.24v-303.787h54.613v102.4c0-27.307 10.24-51.2 30.72-71.68 40.96-40.96 105.813-40.96 146.773 0 0 0 0 0 0 0 20.48 20.48 30.72 47.787 30.72 75.093v0 102.4h-102.4c-27.307 0-54.613-10.24-75.093-30.72 0 0 0 0 0 0-20.48-20.48-30.72-47.787-30.72-71.68v197.973c13.653-6.827 30.72-10.24 47.787-10.24zM740.693 335.36c-98.987 0-177.493 78.507-177.493 177.493s78.507 177.493 177.493 177.493c98.987 0 177.493-78.507 177.493-177.493s-78.507-177.493-177.493-177.493z" />
<glyph unicode="&#xe628;" glyph-name="park" d="M866.987 349.013v0c262.827-167.253-488.107-157.013-512-413.013h672.427c-423.253 95.573 170.667 337.92-160.427 413.013zM395.947 140.8v211.627c6.827 0 13.653 0 20.48 3.413 6.827 0 13.653-3.413 20.48-3.413 23.893 0 44.373 6.827 64.853 17.067 20.48-10.24 40.96-17.067 64.853-17.067 71.68 0 126.293 58.027 126.293 126.293 0 54.613-37.547 102.4-85.333 119.467 0 3.413 0 3.413 0 6.827 0 17.067-3.413 30.72-6.827 44.373 30.72-20.48 95.573-54.613 170.667-54.613v-88.747h68.267v88.747c105.813-3.413 187.733 68.267 187.733 68.267-112.64 30.72-157.013 105.813-157.013 105.813 27.307 6.827 64.853 30.72 64.853 30.72-92.16 75.093-129.707 160.427-129.707 160.427v0c0 0-37.547-85.333-133.12-150.187 0 0 37.547-27.307 64.853-30.72 0 0-40.96-68.267-146.773-102.4-20.48 34.133-58.027 61.44-98.987 64.853-23.893 27.307-58.027 44.373-95.573 44.373-44.373 0-85.333-23.893-109.227-58.027-17.067 3.413-40.96 10.24-61.44 10.24-71.68 0-126.293-58.027-126.293-126.293 0-3.413 0-3.413 0-6.827-58.027-13.653-98.987-64.853-98.987-126.293 0-71.68 58.027-129.707 129.707-129.707 27.307 0 51.2 6.827 71.68 23.893 0 0 0 0 0 0 20.48-10.24 40.96-17.067 64.853-17.067 13.653 0 30.72 3.413 40.96 6.827v-221.867h88.747z" />
<glyph unicode="&#xe629;" glyph-name="petanque" d="M730.453 475.307l47.787 75.093 13.653 23.893 58.027 92.16c-10.24 6.827-20.48 10.24-30.72 17.067l-58.027-88.747-13.653-23.893-47.787-78.507-13.653-23.893-228.693-368.64c10.24-6.827 17.067-13.653 27.307-20.48l232.107 372.053 13.653 23.893zM279.893 161.28c0-77.29-62.656-139.947-139.947-139.947s-139.947 62.656-139.947 139.947c0 77.29 62.656 139.947 139.947 139.947s139.947-62.656 139.947-139.947zM1020.587 413.867c-58.027-47.787-95.573-122.88-95.573-204.8 0-23.893 3.413-47.787 10.24-71.68 54.613 61.44 88.747 143.36 88.747 232.107 0 13.653 0 27.307-3.413 44.373zM733.867 615.253l51.2 81.92c-34.133 10.24-71.68 17.067-109.227 17.067-3.413 0-10.24 0-13.653 0 17.067-37.547 40.96-71.68 71.68-98.987zM911.36 550.4c20.48 0 40.96 3.413 58.027 6.827-23.893 37.547-54.613 68.267-88.747 92.16l-54.613-85.333c27.307-10.24 54.613-13.653 85.333-13.653zM576.853 519.68c30.72 0 61.44-3.413 88.747-13.653l54.613 85.333c-37.547 30.72-68.267 71.68-85.333 119.467-167.253-20.48-296.96-157.013-303.787-327.68 51.2 81.92 143.36 136.533 245.76 136.533zM1017.173 444.587c-6.827 30.72-17.067 61.44-30.72 85.333-23.893-6.827-47.787-10.24-71.68-10.24-34.133 0-68.267 6.827-98.987 17.067l-51.2-81.92c68.267-54.613 112.64-136.533 112.64-232.107 0-64.853-20.48-122.88-58.027-174.080 34.133 17.067 64.853 37.547 95.573 61.44-10.24 30.72-17.067 61.44-17.067 92.16 0 102.4 44.373 187.733 119.467 242.347zM747.52 430.933l-232.107-372.053c47.787-27.307 102.4-40.96 160.427-40.96 30.72 0 58.027 3.413 88.747 10.24 51.2 47.787 81.92 116.053 81.92 191.147 0 88.747-40.96 163.84-98.987 211.627zM576.853 492.373c-109.227 0-204.8-68.267-245.76-163.84 10.24-78.507 44.373-150.187 95.573-201.387l225.28 354.987c-23.893 6.827-47.787 10.24-75.093 10.24z" />
<glyph unicode="&#xe62a;" glyph-name="pingpong" d="M610.987 198.827c51.2 3.413 98.987 6.827 98.987 6.827l-75.093 44.373-92.16 51.2-139.947 78.507-92.16 51.2-75.093 44.373c0 0 23.893-40.96 47.787-85.333 27.307-51.2 51.2-105.813 47.787-116.053-6.827-23.893-109.227-180.907-133.12-215.040-17.067-27.307 30.72-75.093 64.853-95.573 34.133-17.067 98.987-34.133 112.64-3.413 17.067 44.373 95.573 208.213 112.64 225.28 6.827 3.413 68.267 10.24 122.88 13.653zM911.36 383.147c112.64 197.973 61.44 436.907-112.64 535.893s-406.187 13.653-518.827-184.32c-40.96-71.68-58.027-153.6-58.027-228.693l522.24-293.547c64.853 40.96 122.88 95.573 167.253 170.667zM279.893 854.187c0-49.013-39.733-88.747-88.747-88.747s-88.747 39.733-88.747 88.747c0 49.013 39.733 88.747 88.747 88.747s88.747-39.733 88.747-88.747z" />
<glyph unicode="&#xe62b;" glyph-name="playground" d="M341.333 577.707c0-18.851-15.282-34.133-34.133-34.133s-34.133 15.282-34.133 34.133c0 18.851 15.282 34.133 34.133 34.133s34.133-15.282 34.133-34.133zM699.733 403.627c20.48 3.413 30.72 23.893 27.307 40.96-3.413 20.48-23.893 30.72-44.373 27.307s-30.72-23.893-27.307-40.96c6.827-20.48 27.307-34.133 44.373-27.307zM925.013 144.213c-47.787 0-102.4 51.2-163.84 109.227-6.827 6.827-13.653 13.653-20.48 17.067l-20.48 85.333c-3.413 20.48-23.893 34.133-44.373 27.307-17.067-3.413-27.307-17.067-30.72-34.133-58.027 44.373-126.293 75.093-204.8 75.093v341.333l-228.693 126.293-211.627-126.293v-761.173h44.373v58.027h143.36v-58.027h44.373v58.027h170.667v-58.027h44.373v337.92c98.987 0 184.32-75.093 262.827-150.187 71.68-68.267 139.947-129.707 221.867-129.707h13.653v-58.027h40.96v58.027h37.547v85.333h-98.987zM184.32 89.6h-139.947v58.027h143.36l-3.413-58.027zM184.32 174.933h-139.947v58.027h143.36l-3.413-58.027zM184.32 256.853h-139.947v58.027h143.36l-3.413-58.027zM399.36 427.52h-44.373l-17.067 71.68c-3.413 20.48-23.893 34.133-44.373 27.307-20.48-3.413-34.133-23.893-27.307-44.373l13.653-54.613h-235.52v310.613h354.987v-310.613z" />
<glyph unicode="&#xe62c;" glyph-name="rdf" d="M887.467 287.573c-6.827 3.413-13.653 6.827-20.48 10.24h-3.413c0 0-34.133 17.067-37.547 150.187s30.72 153.6 30.72 153.6l3.413 3.413c34.133 17.067 61.44 44.373 78.507 78.507 47.787 92.16 13.653 204.8-78.507 252.587s-204.8 13.653-252.587-78.507c-20.48-37.547-23.893-78.507-20.48-116.053v0c0 0 10.24-44.373-105.813-116.053-112.64-71.68-167.253-37.547-167.253-37.547l-6.827 3.413c-92.16 47.787-204.8 13.653-252.587-78.507s-13.653-204.8 78.507-252.587c68.267-37.547 146.773-27.307 204.8 20.48v0c0 0 37.547 30.72 157.013-34.133 95.573-51.2 109.227-98.987 109.227-119.467-3.413-68.267 34.133-136.533 98.987-170.667 92.16-47.787 204.8-13.653 252.587 78.507 58.027 92.16 23.893 204.8-68.267 252.587zM112.64 328.533c0 0 0 0 0 0s0 0 0 0v0zM314.027 546.987c-23.893 20.48-81.92 17.067-133.12-13.653 6.827-6.827 10.24-13.653 10.24-23.893 0-20.48-17.067-40.96-37.547-40.96-3.413 0-6.827 0-10.24 0 0 0 0 0-3.413 0-13.653 3.413-23.893-6.827-27.307-10.24-27.307-51.2-27.307-102.4 0-126.293-51.2 51.2-51.2 136.533 3.413 197.973 54.613 58.027 143.36 64.853 197.973 17.067v0zM662.187 878.080c54.613 61.44 143.36 68.267 197.973 20.48v0c-23.893 20.48-81.92 17.067-133.12-13.653 6.827-6.827 10.24-13.653 10.24-23.893 0-20.48-17.067-40.96-37.547-40.96-3.413 0-6.827 0-10.24 0 0 0 0 0-3.413 0-13.653 3.413-23.893-6.827-27.307-10.24-27.307-51.2-27.307-102.4 0-126.293-51.2 47.787-51.2 136.533 3.413 194.56zM525.653 301.227c-98.987 51.2-112.64 95.573-116.053 109.227 0 17.067 0 30.72-3.413 47.787v0c0 0-6.827 44.373 105.813 112.64 102.4 61.44 146.773 51.2 153.6 47.787s10.24-6.827 17.067-10.24 23.893-10.24 34.133-13.653c13.653-13.653 40.96-51.2 40.96-150.187 3.413-98.987-27.307-136.533-40.96-150.187-17.067-6.827-30.72-17.067-44.373-30.72-10.24-6.827-54.613-10.24-146.773 37.547zM692.907 31.573c0 0 0 0 0 0s0 0 0 0v0zM890.88 246.613c-23.893 20.48-81.92 17.067-133.12-13.653 6.827-6.827 10.24-13.653 10.24-23.893 0-20.48-17.067-40.96-37.547-40.96-3.413 0-6.827 0-10.24 0 0 0 0 0-3.413 0-13.653 3.413-23.893-6.827-27.307-10.24-27.307-51.2-27.307-102.4 0-126.293-51.2 51.2-51.2 136.533 3.413 197.973 58.027 58.027 146.773 68.267 197.973 17.067v0z" />
<glyph unicode="&#xe62d;" glyph-name="sandpit" d="M669.013 468.48c10.24 0 23.893-3.413 34.133-6.827l30.72-10.24-40.96 402.773-6.827 105.813h-105.813l-10.24-105.813h-133.12l-10.24 105.813h-105.813l-10.24-105.813h-129.707l-10.24 105.813h-105.813l-10.24-105.813-58.027-641.707c0 0 163.84-54.613 375.467-54.613 54.613 0 105.813 3.413 153.6 10.24l47.787 225.28c10.24 44.373 47.787 75.093 95.573 75.093zM119.467 762.027c10.24 10.24 23.893 10.24 34.133 0s10.24-23.893 0-34.133c-10.24-10.24-23.893-10.24-34.133 0s-10.24 23.893 0 34.133zM174.080 645.973c-10.24-10.24-23.893-10.24-34.133 0s-10.24 23.893 0 34.133c10.24 10.24 23.893 10.24 34.133 0 10.24-6.827 10.24-23.893 0-34.133zM235.52 707.413c-10.24-10.24-23.893-10.24-34.133 0s-10.24 23.893 0 34.133c10.24 10.24 23.893 10.24 34.133 0s10.24-23.893 0-34.133zM826.027 0.853c0-13.196-10.697-23.893-23.893-23.893s-23.893 10.697-23.893 23.893c0 13.196 10.697 23.893 23.893 23.893s23.893-10.697 23.893-23.893zM1003.52 280.747l-112.64 40.96 116.053 358.4-95.573 34.133-116.053-358.4-112.64 40.96c-3.413 0-6.827 3.413-10.24 3.413-13.653 0-23.893-10.24-27.307-23.893l-64.853-317.44c-3.413-10.24 0-17.067 3.413-23.893 34.133 27.307 78.507 54.613 133.12 75.093 68.267 27.307 160.427 23.893 228.693-17.067l78.507 146.773c6.827 17.067-3.413 34.133-20.48 40.96zM897.707 45.227c0-13.196-10.697-23.893-23.893-23.893s-23.893 10.697-23.893 23.893c0 13.196 10.697 23.893 23.893 23.893s23.893-10.697 23.893-23.893zM897.707-40.107c0-13.196-10.697-23.893-23.893-23.893s-23.893 10.697-23.893 23.893c0 13.196 10.697 23.893 23.893 23.893s23.893-10.697 23.893-23.893z" />
<glyph unicode="&#xe62e;" glyph-name="skateboard" d="M921.6 311.467l-805.547-112.64-116.053 105.813 30.72 30.72 98.987-88.747 768 105.813 92.16 119.467 34.133-23.893zM293.547 140.8c0-28.277-22.923-51.2-51.2-51.2s-51.2 22.923-51.2 51.2c0 28.277 22.923 51.2 51.2 51.2s51.2-22.923 51.2-51.2zM887.467 222.72c0-28.277-22.923-51.2-51.2-51.2s-51.2 22.923-51.2 51.2c0 28.277 22.923 51.2 51.2 51.2s51.2-22.923 51.2-51.2z" />
<glyph unicode="&#xe62f;" glyph-name="youtube" d="M1013.76 652.8c0 0-10.24 71.68-40.96 102.4-37.547 40.96-81.92 40.96-102.4 44.373-143.36 10.24-358.4 10.24-358.4 10.24v0c0 0-215.040 0-358.4-10.24-20.48-3.413-64.853-3.413-102.4-44.373-30.72-30.72-40.96-102.4-40.96-102.4s-10.24-81.92-10.24-167.253v-78.507c0-81.92 10.24-163.84 10.24-163.84s10.24-71.68 40.96-102.4c37.547-40.96 88.747-40.96 112.64-44.373 81.92-6.827 348.16-10.24 348.16-10.24s215.040 0 358.4 10.24c20.48 3.413 64.853 3.413 102.4 44.373 30.72 30.72 40.96 102.4 40.96 102.4s10.24 81.92 10.24 167.253v78.507c0 81.92-10.24 163.84-10.24 163.84zM406.187 314.88v286.72l276.48-143.36-276.48-143.36z" />
<glyph unicode="&#xe630;" glyph-name="maximize" d="M1024 448l-256 191.147v-126.293h-191.147v191.147h129.707l-191.147 256-194.56-256h126.293v-191.147h-191.147v126.293l-256-191.147 256-191.147v126.293h191.147v-191.147h-126.293l194.56-256 191.147 256h-129.707v191.147h191.147v-126.293z" />
<glyph unicode="&#xe631;" glyph-name="minimize" d="M92.16 960l-92.16-92.16 187.733-184.32-109.227-105.813h303.787v303.787l-105.813-109.227zM836.267 683.52l187.733 184.32-92.16 92.16-184.32-187.733-109.227 109.227v-303.787h307.2zM187.733 212.48l-187.733-184.32 92.16-92.16 184.32 187.733 105.813-109.227v307.2h-303.787zM945.493 321.707h-307.2v-307.2l109.227 109.227 184.32-187.733 92.16 92.16-187.733 184.32z" />
<glyph unicode="&#xe632;" glyph-name="checklist" d="M341.333 832h640v-85.333h-640v85.333zM341.333 486.4h640v-85.333h-640v85.333zM341.333 149.333h640v-85.333h-640v85.333zM119.467 678.4l-46.933 42.667-72.533 76.8 46.933 42.667 72.533-72.533 132.267 132.267 46.933-42.667zM119.467-4.267l-46.933 42.667-72.533 76.8 46.933 42.667 72.533-72.533 132.267 132.267 46.933-42.667z" />
<glyph unicode="&#xe633;" glyph-name="flag" d="M150.187 881.493c0-27.307-13.653-51.2-37.547-64.853v-863.573c0-6.827-3.413-10.24-6.827-13.653-3.413 0-6.827-3.413-10.24-3.413h-37.547c-3.413 0-10.24 3.413-13.653 6.827s-6.827 6.827-6.827 13.653v860.16c-23.893 17.067-37.547 37.547-37.547 64.853 0 20.48 6.827 37.547 23.893 54.613 13.653 13.653 30.72 23.893 51.2 23.893s37.547-6.827 54.613-23.893c13.653-13.653 20.48-30.72 20.48-54.613zM1024 389.973c-143.36-157.013-351.573-6.827-532.48 0s-341.333-112.64-341.333-112.64v494.933c0 0 163.84 116.053 341.333 112.64 177.493-6.827 389.12-157.013 532.48 0v-494.933z" />
<glyph unicode="&#xe635;" glyph-name="follow" d="M1024 448c0-13.653-3.413-27.307-10.24-40.96-54.613-88.747-126.293-157.013-215.040-211.627-88.747-51.2-184.32-78.507-286.72-78.507s-194.56 27.307-286.72 78.507c-88.747 54.613-160.427 122.88-215.040 211.627-6.827 17.067-10.24 30.72-10.24 40.96 0 13.653 3.413 27.307 10.24 40.96 54.613 85.333 126.293 157.013 215.040 208.213 88.747 54.613 184.32 78.507 286.72 78.507s194.56-27.307 286.72-78.507c88.747-54.613 160.427-122.88 215.040-211.627 6.827-10.24 10.24-23.893 10.24-37.547zM952.32 448c-58.027 88.747-129.707 157.013-218.453 201.387 23.893-40.96 34.133-81.92 34.133-129.707 0-71.68-23.893-129.707-75.093-180.907s-109.227-75.093-180.907-75.093-129.707 23.893-180.907 75.093-75.093 109.227-75.093 180.907c0 47.787 10.24 88.747 34.133 129.707-85.333-44.373-160.427-109.227-218.453-201.387 51.2-78.507 112.64-139.947 191.147-187.733 75.093-47.787 160.427-68.267 249.173-68.267s170.667 23.893 249.173 68.267c75.093 47.787 139.947 109.227 191.147 187.733zM532.48 649.387c6.827 6.827 6.827 10.24 6.827 20.48 0 6.827-3.413 13.653-6.827 20.48s-13.653 6.827-20.48 6.827c-47.787 0-88.747-17.067-122.88-51.2s-51.2-75.093-51.2-122.88c0-6.827 3.413-13.653 6.827-20.48s10.24-6.827 20.48-6.827c6.827 0 13.653 3.413 20.48 6.827s6.827 10.24 6.827 20.48c0 34.133 10.24 61.44 34.133 85.333s51.2 34.133 85.333 34.133c6.827 0 13.653 0 20.48 6.827z" />
<glyph unicode="&#xe637;" glyph-name="unflag" d="M150.187 881.493c0-27.307-13.653-51.2-37.547-64.853v-863.573c0-6.827-3.413-10.24-6.827-13.653-3.413 0-6.827-3.413-10.24-3.413h-37.547c-3.413 0-10.24 3.413-13.653 6.827s-6.827 6.827-6.827 13.653v860.16c-23.893 17.067-37.547 37.547-37.547 64.853 0 20.48 6.827 37.547 23.893 54.613 13.653 13.653 30.72 23.893 51.2 23.893s37.547-6.827 54.613-23.893c13.653-13.653 20.48-30.72 20.48-54.613zM477.867 813.227c3.413 0 6.827 0 10.24 0 47.787 0 102.4-17.067 160.427-34.133 68.267-17.067 136.533-37.547 204.8-37.547 34.133 0 68.267 3.413 98.987 13.653v-337.92c-27.307-20.48-58.027-30.72-98.987-30.72-51.2 0-109.227 17.067-170.667 34.133-64.853 17.067-129.707 34.133-194.56 37.547-6.827 0-10.24 0-17.067 0-98.987 0-191.147-30.72-259.413-61.44v337.92c54.613 27.307 160.427 78.507 266.24 78.507zM1024 884.907c-47.787-54.613-105.813-71.68-167.253-71.68-116.053 0-249.173 64.853-365.227 71.68-3.413 0-10.24 0-13.653 0-174.080 0-327.68-112.64-327.68-112.64v-491.52c0 0 153.6 112.64 327.68 112.64 3.413 0 10.24 0 13.653 0 119.467-3.413 249.173-71.68 365.227-71.68 61.44 0 116.053 17.067 167.253 71.68v491.52z" />
<glyph unicode="&#xe638;" glyph-name="trash" d="M160.427-64h699.733v750.933h-699.733v-750.933zM662.187 587.947h98.987v-450.56h-98.987v450.56zM460.8 587.947h98.987v-450.56h-98.987v450.56zM262.827 587.947h98.987v-450.56h-98.987v450.56zM740.693 837.12v122.88h-457.387v-122.88h-184.32v-102.4h826.027v102.4h-184.32zM354.987 837.12v51.2h310.613v-51.2h-310.613z" />
<glyph unicode="&#xe800;" glyph-name="bulb" d="M607.573 93.013h-174.080c-17.067 0-27.307-13.653-27.307-27.307v-30.72c0-23.893 17.067-44.373 40.96-47.787l6.827-27.307c3.413-13.653 17.067-23.893 30.72-23.893h71.68c13.653 0 27.307 10.24 30.72 23.893l6.827 27.307c23.893 3.413 40.96 23.893 40.96 47.787v30.72c0 13.653-13.653 27.307-27.307 27.307zM518.827 802.987c17.067 0 27.307 13.653 27.307 27.307v102.4c0 13.653-10.24 27.307-27.307 27.307s-27.307-13.653-27.307-27.307v-98.987c-3.413-17.067 10.24-30.72 27.307-30.72zM184.32 468.48c0 17.067-13.653 27.307-27.307 27.307h-102.4c-17.067 0-27.307-13.653-27.307-27.307 0-17.067 13.653-27.307 27.307-27.307h98.987c17.067 0 30.72 10.24 30.72 27.307zM983.040 495.787h-98.987c-17.067 0-27.307-13.653-27.307-27.307 0-17.067 13.653-27.307 27.307-27.307h98.987c17.067 0 27.307 13.653 27.307 27.307 0 17.067-13.653 27.307-27.307 27.307zM242.347 232.96l-71.68-71.68c-10.24-10.24-10.24-27.307 0-40.96 6.827-6.827 13.653-10.24 20.48-10.24s13.653 3.413 20.48 10.24l71.68 71.68c10.24 10.24 10.24 27.307 0 40.96-13.653 10.24-30.72 10.24-40.96 0zM774.827 697.173c6.827 0 13.653 3.413 20.48 10.24l71.68 71.68c10.24 10.24 10.24 27.307 0 40.96-10.24 10.24-27.307 10.24-40.96 0l-71.68-71.68c-10.24-10.24-10.24-27.307 0-40.96 6.827-6.827 13.653-10.24 20.48-10.24zM242.347 704c6.827-6.827 13.653-10.24 20.48-10.24s13.653 3.413 20.48 10.24c10.24 10.24 10.24 27.307 0 40.96l-71.68 71.68c-10.24 10.24-30.72 10.24-40.96 0s-10.24-30.72 0-40.96l71.68-71.68zM795.307 232.96c-10.24 10.24-27.307 10.24-40.96 0-10.24-10.24-10.24-27.307 0-40.96l71.68-71.68c6.827-6.827 13.653-10.24 20.48-10.24s13.653 3.413 20.48 10.24c10.24 10.24 10.24 27.307 0 40.96l-71.68 71.68zM515.413 721.067c-139.947 0-252.587-116.053-249.173-256 0-64.853 27.307-126.293 71.68-170.667 34.133-34.133 54.613-78.507 61.44-126.293 3.413-20.48 20.48-34.133 40.96-34.133h157.013c20.48 0 37.547 13.653 40.96 34.133 6.827 47.787 27.307 92.16 61.44 126.293 44.373 44.373 71.68 105.813 71.68 174.080 0 139.947-116.053 252.587-256 252.587zM576.853 622.080c-116.053 0-211.627-95.573-211.627-211.627 0-13.653 0-23.893 3.413-37.547-17.067 27.307-27.307 58.027-27.307 92.16 0 95.573 78.507 174.080 174.080 174.080 30.72 0 61.44-10.24 85.333-23.893-6.827 6.827-13.653 6.827-23.893 6.827z" />
<glyph unicode="&#xe801;" glyph-name="megaphone" d="M996.693 601.6c-10.24 30.72-20.48 64.853-44.373 88.747-20.48 23.893-51.2 40.96-78.507 61.44-13.653 0-27.307 0-40.96 0-95.573-34.133-194.56-64.853-290.133-98.987-146.773-44.373-290.133-92.16-436.907-136.533-10.24-3.413-27.307-3.413-34.133 0-20.48 13.653-34.133 6.827-44.373-10.24-10.24-20.48-17.067-44.373-27.307-64.853 0-23.893 0-47.787 0-71.68 6.827-20.48 13.653-40.96 23.893-61.44 10.24-17.067 23.893-30.72 47.787-10.24 3.413 3.413 13.653 3.413 20.48 3.413 13.653-3.413 23.893-6.827 34.133-10.24 51.2-10.24 88.747-27.307 105.813-75.093 17.067-44.373 64.853-71.68 126.293-85.333 54.613-10.24 102.4 0 136.533 40.96 112.64-34.133 225.28-71.68 337.92-105.813 13.653 0 27.307 0 40.96 0 71.68 23.893 95.573 75.093 116.053 126.293 13.653 40.96 20.48 85.333 30.72 129.707 3.413 10.24 3.413 17.067 6.827 27.307 0 37.547 0 75.093 0 116.053-13.653 47.787-17.067 92.16-30.72 136.533zM812.373 635.733c10.24 17.067 27.307 30.72 40.96 44.373 13.653-13.653 30.72-27.307 40.96-44.373 40.96-81.92 47.787-167.253 44.373-252.587-3.413-68.267-10.24-136.533-44.373-197.973-10.24-17.067-27.307-30.72-40.96-44.373-13.653 13.653-30.72 27.307-40.96 44.373-34.133 64.853-40.96 133.12-47.787 218.453 3.413 68.267 6.827 153.6 47.787 232.107zM453.973 188.587c-34.133-51.2-157.013-20.48-191.147 61.44 64.853-20.48 126.293-40.96 191.147-61.44z" />
<glyph unicode="&#xe900;" glyph-name="pinned" d="M627.102 960.013c-14.36-43.057-24.405-91.112-23.82-134.754l-287.354-286.915c-60.684 10.411-126.44 3.852-187.343-14.263l193.707-193.39-71.461-71.339-142.872-144.238-73.021-71.339-34.938-107.788 107.959 36.45 71.436 71.339 142.897 144.262 71.436 71.314h1.585l193.682-194.974c18.139 60.806 24.698 126.44 14.287 187.051l287.354 286.915c43.691-0.561 90.258 9.435 133.364 23.796l-198.461 199.729-198.437 198.144z" />
<glyph unicode="&#xe901;" glyph-name="star" horiz-adv-x="1089" d="M844.778-60.1c27.931 0.545 50.132 23.16 49.544 50.503-0.044 2.353-0.261 4.684-0.654 7.015l-50.459 299.574 220.835 213.863c19.848 19.238 20.001 50.59 0.349 70.024-7.647 7.582-17.604 12.528-28.345 14.14l-306.808 45.927-139.199 271.382c-12.397 24.532-42.725 34.576-67.78 22.463-9.957-4.815-18.018-12.702-22.92-22.463l-139.22-271.382-306.786-45.927c-27.626-4.118-46.625-29.369-42.42-56.407 1.634-10.523 6.689-20.262 14.423-27.757l220.835-213.863-50.481-299.574c-4.641-26.973 13.9-52.529 41.461-57.083 10.894-1.787 22.092-0.065 31.875 4.967l275.652 139.743 275.652-139.743c7.56-3.791 15.97-5.643 24.445-5.403zM777.347 78.489l-209.397 106.54c-14.597 7.408-31.94 7.408-46.538 0l-209.397-106.54 38.258 228.134c2.702 15.818-2.593 31.94-14.205 43.248l-167.98 162.141 233.058 34.751c16.297 2.309 30.415 12.244 37.844 26.624l105.69 206.151 105.69-206.151c7.429-14.38 21.569-24.315 37.844-26.624l233.058-34.751-167.98-162.141c-11.613-11.308-16.885-27.43-14.205-43.248l38.258-228.134z" />
<glyph unicode="&#xe902;" glyph-name="medal" d="M823.945 473.805c-25.156-97.178-94.549-176.503-185.344-215.381l185.003-185.003v200.363h200.397l-200.055 200.021zM205.073 456.567l-205.073-205.073h200.363v-200.363l200.943 200.943c-93.013 34.065-165.922 109.773-196.233 204.493zM801.997 554.837c0 160.154-129.843 289.997-289.997 289.997s-289.997-129.843-289.997-289.997 129.843-289.997 289.997-289.997 289.997 129.843 289.997 289.997zM512 297.028c-142.37 0-257.809 115.439-257.809 257.809s115.439 257.809 257.809 257.809 257.809-115.439 257.809-257.809-115.439-257.809-257.809-257.809zM737.553 554.837c0-124.57-100.984-225.553-225.553-225.553s-225.553 100.984-225.553 225.553c0 124.57 100.984 225.553 225.553 225.553s225.553-100.984 225.553-225.553z" />
<glyph unicode="&#xe903;" glyph-name="poll" d="M331.435 707.618h549.103v-118.716h-549.103v118.716zM331.435 507.255h393.284v-118.716h-393.284v118.716zM331.435 314.334h192.922v-118.716h-192.922v118.716zM201.114 714.411c-36.386 0-66.014-29.628-66.014-66.014s29.628-66.014 66.014-66.014 66.014 29.628 66.014 66.014-29.594 66.014-66.014 66.014zM201.114 597.231c-28.228 0-51.166 22.972-51.166 51.166s22.972 51.166 51.166 51.166 51.166-22.972 51.166-51.166-22.938-51.166-51.166-51.166zM263.407 447.215c0-34.404-27.89-62.293-62.293-62.293s-62.293 27.89-62.293 62.293c0 34.404 27.89 62.293 62.293 62.293s62.293-27.89 62.293-62.293zM201.114 323.618c-36.386 0-66.014-29.594-66.014-66.014 0-36.386 29.628-66.014 66.014-66.014s66.014 29.628 66.014 66.014c0 36.386-29.594 66.014-66.014 66.014zM201.114 206.438c-28.228 0-51.166 22.972-51.166 51.166s22.972 51.166 51.166 51.166 51.166-22.972 51.166-51.166c0-28.228-22.938-51.166-51.166-51.166zM912.691 854.357h-801.382c-61.372 0-111.309-49.937-111.309-111.309v-588.663c0-61.372 49.937-111.309 111.309-111.309h801.382c61.372 0 111.309 49.937 111.309 111.309v588.663c0 61.372-49.937 111.309-111.309 111.309zM979.49 154.385c0-36.83-29.969-66.799-66.799-66.799h-801.382c-36.83 0-66.799 29.969-66.799 66.799v588.663c0 36.83 29.969 66.799 66.799 66.799h801.382c36.83 0 66.799-29.969 66.799-66.799v-588.663z" />
<glyph unicode="&#xe904;" glyph-name="textballoon-left" d="M511.932 859.853c62.396 0 121.788-9.762 176.606-29.013 54.613-19.149 102.673-45.466 142.848-78.131 39.049-31.812 70.11-69.291 92.262-111.343 21.538-40.96 32.017-83.354 32.017-129.604 0-47.616-10.479-90.658-31.983-131.584-22.050-41.882-52.941-78.882-91.819-109.943-40.277-32.222-88.508-58.334-143.326-77.551-54.886-19.251-114.313-29.013-176.606-29.013-12.083 0-24.201 0.273-36.591 0.922-12.083 0.58-24.201 1.502-36.25 2.697l-32.222 3.243-22.903-22.869c-45.978-45.943-93.594-74.615-145.613-87.62-1.741-0.444-3.516-0.853-5.257-1.297 17.51 31.232 26.317 64.853 26.317 100.386v14.95c0 11.81-1.809 23.313-5.393 34.202l-7.305 22.255-19.388 13.107c-48.674 32.802-88.166 73.66-117.385 121.481-28.092 45.909-41.745 93.867-41.745 146.671 0 46.285 10.479 88.678 31.983 129.57 22.118 42.052 53.146 79.497 92.262 111.343 40.175 32.7 88.235 58.982 142.916 78.165 54.716 19.217 114.142 28.979 176.572 28.979zM511.932 928.119c-70.417 0-136.806-10.923-199.202-32.87-62.464-21.914-116.907-51.814-163.362-89.634-46.49-37.854-83.012-82.022-109.568-132.506-26.59-50.483-39.834-104.277-39.834-161.382 0-65.092 17.237-125.884 51.814-182.306 34.509-56.457 80.35-103.936 137.455-142.438 1.297-3.959 1.98-8.294 1.98-12.937 0-4.676 0-9.66 0-14.95 0-34.543-12.629-66.389-37.854-95.607-25.259-29.218-55.125-52.463-89.634-69.734v-25.907c63.761 1.331 127.488 9.967 191.249 25.907s122.846 51.098 177.323 105.574c13.244-1.331 26.556-2.321 39.834-2.97 13.278-0.717 26.556-0.99 39.834-0.99 70.383 0 136.772 10.957 199.202 32.87s116.873 51.473 163.362 88.678c46.49 37.171 82.978 80.964 109.568 131.482 26.556 50.483 39.834 104.892 39.834 163.362 0 57.105-13.312 110.865-39.834 161.382-26.59 50.483-63.078 94.618-109.568 132.506-46.49 37.82-100.966 67.721-163.362 89.634-62.464 21.914-128.853 32.836-199.236 32.836v0z" />
<glyph unicode="&#xe905;" glyph-name="house" d="M508.587 925.867l-512-477.867h105.813v-477.867h307.2v341.333h204.8v-341.333h307.2v477.867h98.987z" />
<glyph unicode="&#xe906;" glyph-name="cross" d="M1024 857.6l-102.4 102.4-409.6-409.6-409.6 409.6-102.4-102.4 409.6-409.6-409.6-409.6 102.4-102.4 409.6 409.6 409.6-409.6 102.4 102.4-409.6 409.6 409.6 409.6z" />
<glyph unicode="&#xe907;" glyph-name="tick" d="M0 567.467l102.4 68.267 273.067-477.867 546.133 785.067 102.4-68.267-648.533-921.6-375.467 614.4z" />
<glyph unicode="&#xe908;" glyph-name="heart" d="M525.722 762.163c-174.080 269.517-525.722 126.157-525.722-163.84 0-218.522 481.28-563.2 525.722-607.642 40.96 44.442 498.278 389.12 498.278 607.642 0 283.238-327.68 433.357-498.278 163.84z" />
<glyph unicode="&#xe909;" glyph-name="paper" d="M868.788-9.67c-1.694-0.068-3.682-0.106-5.68-0.106-8.222 0-16.291 0.654-24.158 1.914l-1.203-0.114h-690.817c-1.265-0.045-2.751-0.070-4.243-0.070-36.555 0-69.551 15.243-92.976 39.718-45.384 49.337-49.711 125.154-49.711 155.631v718.472h790.149v-486.13l233.847 6.773v-278.057c0.003-0.329 0.004-0.718 0.004-1.108 0-43.050-16.284-82.297-43.028-111.918-26.369-27.378-63.533-44.476-104.69-44.476-2.835 0-5.651 0.081-8.446 0.241zM790.149 334.61v-157.278c0-18.813 3.763-82.778 52.3-101.026l3.763-1.317h4.139c3.97-1.324 8.548-2.141 13.3-2.256 1.474-0.087 3.131-0.135 4.799-0.135 19.584 0 37.6 6.709 51.876 17.954 12.237 14.973 19.764 34.508 19.764 55.803 0 0.176-0.001 0.352-0.002 0.528v194.5zM81.837 184.105c0-16.367 1.881-71.302 26.526-95.946 8.686-8.266 20.466-13.351 33.433-13.351 1.476 0 2.937 0.066 4.38 0.195l583.019-0.013-8.654 29.349c-7.421 21.791-11.869 46.907-12.226 73.010l-0.002 643.769h-625.911zM581.324 591.785h-374.38c-23.378 0-42.329 18.952-42.329 42.329s18.952 42.329 42.329 42.329h374.38c23.378 0 42.329-18.952 42.329-42.329 0.014-0.399 0.021-0.868 0.021-1.339 0-22.651-18.362-41.013-41.013-41.013-0.471 0-0.94 0.008-1.407 0.023zM206.944 613.984c-10.25 1.024-18.186 9.603-18.186 20.036s7.937 19.012 18.102 20.029l374.464 0.007c0.168 0.005 0.366 0.008 0.564 0.008 11.118 0 20.13-9.012 20.13-20.13 0-0.003 0-0.005 0-0.008 0.023-0.351 0.037-0.763 0.037-1.177 0-10.39-8.423-18.813-18.813-18.813-0.476 0-0.949 0.018-1.416 0.053zM581.324 404.594h-374.38c-23.378 0-42.329 18.952-42.329 42.329 0.803 23.048 19.282 41.527 42.254 42.328l374.455 0.002c23.378 0 42.329-18.952 42.329-42.329s-18.952-42.329-42.329-42.329zM206.944 426.794c0 0-0.001 0-0.001 0-11.051 0-20.023 8.906-20.129 19.931 0.658 10.892 9.268 19.567 20.062 20.324l374.449 0.004c0.583 0.060 1.26 0.094 1.944 0.094 11.118 0 20.13-9.012 20.13-20.13s-9.012-20.13-20.13-20.13c-0.685 0-1.361 0.034-2.028 0.101zM581.324 213.078h-374.38c-23.378 0-42.329 18.952-42.329 42.329s18.952 42.329 42.329 42.329h374.38c23.378 0 42.329-18.952 42.329-42.329s-18.952-42.329-42.329-42.329zM206.944 235.277c-10.25 1.024-18.186 9.603-18.186 20.036s7.937 19.012 18.102 20.029l374.464 0.007c0.583 0.060 1.26 0.094 1.944 0.094 11.118 0 20.13-9.012 20.13-20.13s-9.012-20.13-20.13-20.13c-0.685 0-1.361 0.034-2.028 0.101z" />
<glyph unicode="&#xe90a;" glyph-name="idea" d="M247.869 200.136c0-0.003 0-0.006 0-0.009 0-145.875 118.255-264.131 264.131-264.131s264.131 118.255 264.131 264.131c0 81.972-37.341 155.222-95.941 203.669l-0.039 0.357c-58.257 43.059-76.831 70.077-76.831 108.915v61.938h-32.928v-274.499c30.395-7.16 55.454-20.533 74.805-39.986 22.968-23.546 37.59-55.326 39.032-90.506 0.009-11.464-9.063-20.536-20.254-20.536h-0.946c-92.501 4.357-125.834 72.812-132.217 116.040q-8.814 0.642-18.304 0.642h-1.52q-9.591 0-18.507-0.642c-6.214-43.262-39.277-111.65-131.711-116.007-0.225-0.009-0.49-0.014-0.756-0.014-10.935 0-19.846 8.661-20.249 19.498q-0.001 0.408-0.001 0.746c1.372 35.515 15.996 67.369 39.034 90.976 19.223 19.391 44.147 32.731 74.474 39.924v274.364h-32.117v-61.634c0-36.17-16.109-62.073-65.349-100.235-2.094-1.554-4.154-3.141-6.18-4.728l-5.302-3.951c-59.077-48.675-96.453-121.846-96.453-203.746 0-0.202 0-0.404 0.001-0.606zM512.641 306.686q8.814 0 17.224-0.473v268.791h-36.204v-268.825q8.511 0.507 17.46 0.507zM438.985 233.908c3.967 6.627 7.408 14.279 9.926 22.338-16.145-4.502-30.156-13.097-41.626-24.284-10.235-10.433-18.089-23.282-22.625-37.606 23.241 4.846 42.526 19.462 54.108 39.154zM639.387 193.685c-3.029 9.471-7.078 17.707-12.141 25.201-11.837 17.622-29.533 30.523-52.6 38.358 2.724-8.848 6.165-16.522 10.406-23.667 11.569-19.63 30.876-34.292 53.752-39.774zM636.956 691.146c0.015 0.249 0.024 0.54 0.024 0.833 0 3.917-1.555 7.471-4.080 10.079l-65.244 49.506c-2.762 1.585-6.072 2.519-9.601 2.519-0.651 0-1.294-0.032-1.929-0.094l-86.612 0.006c-3.715 0-9.118-0.236-11.989-2.567l-63.964-50.219c-2.871-2.33-6.518-6.45-6.518-10.132v-137.486c1.028-6.517 6.222-11.562 12.729-12.354l229.72-0.007c5.606 0 7.599 6.754 7.599 12.394v137.519zM490.048 960.005h43.904v-219.518h-43.904v219.518z" />
<glyph unicode="&#xe90b;" glyph-name="smartphone" d="M740.942 959.982h-457.902c-36.361 0-66.091-29.956-66.091-66.647v-890.689c0-36.604 29.748-66.629 66.091-66.629h457.902c36.343 0 66.109 30.026 66.109 66.629v890.689c0 36.69-29.765 66.647-66.109 66.647zM446.915 896.998h130.117c8.342-0.405 14.952-7.267 14.952-15.672s-6.61-15.268-14.916-15.671l-0.036-0.001h-130.117c-8.342 0.405-14.952 7.267-14.952 15.672s6.61 15.268 14.916 15.671l0.036 0.001zM511.965-27.466c-23.014 0-41.776 18.953-41.776 42.123 0 23.24 18.762 42.175 41.776 42.175 23.049 0 41.81-18.935 41.81-42.175 0-23.153-18.762-42.123-41.81-42.123zM731.483 100.378h-438.949v695.244h438.966v-695.244h-0.017z" />
<glyph unicode="&#xe90c;" glyph-name="data" d="M1023.998 458.895v104.578c-0.123 7.487-6.218 13.511-13.721 13.511-3.028 0-5.83-0.979-8.104-2.643-106.714-84.941-298.444-128.517-490.173-128.517s-381.272 43.575-490.216 128.539c-2.233 1.64-5.036 2.619-8.063 2.619-7.503 0-13.607-6.023-13.721-13.499v-113.302c0-122.004 228.761-222.226 511.999-222.226s511.999 100.221 511.999 224.405v6.535zM1023.998 166.945v104.578c-0.123 7.487-6.218 13.511-13.721 13.511-3.028 0-5.83-0.979-8.104-2.643-106.714-84.941-298.444-128.517-490.173-128.517s-381.272 43.575-490.216 128.539c-2.233 1.64-5.036 2.619-8.063 2.619-7.503 0-13.607-6.023-13.721-13.499v-113.302c0-122.004 228.761-222.226 511.999-222.226s511.999 100.221 511.999 224.405v6.535zM1023.998 735.589c0-123.94-229.233-224.405-511.999-224.405s-511.999 100.472-511.999 224.405c0 123.94 229.233 224.405 511.999 224.405s511.999-100.472 511.999-224.405z" />
<glyph unicode="&#xe90d;" glyph-name="textballoon-right" d="M512.068 859.853c-62.396 0-121.788-9.762-176.606-29.013-54.613-19.149-102.673-45.466-142.848-78.131-39.049-31.812-70.11-69.291-92.262-111.343-21.538-40.96-32.017-83.354-32.017-129.604 0-47.616 10.479-90.658 31.983-131.584 22.050-41.882 52.941-78.882 91.819-109.943 40.277-32.222 88.508-58.334 143.326-77.551 54.886-19.251 114.313-29.013 176.606-29.013 12.083 0 24.201 0.273 36.591 0.922 12.083 0.58 24.201 1.502 36.25 2.697l32.222 3.243 22.903-22.869c45.978-45.943 93.594-74.615 145.613-87.62 1.741-0.444 3.516-0.853 5.257-1.297-17.51 31.232-26.317 64.853-26.317 100.386v14.95c0 11.81 1.809 23.313 5.393 34.202l7.305 22.255 19.388 13.107c48.674 32.802 88.166 73.66 117.385 121.481 28.092 45.909 41.745 93.867 41.745 146.671 0 46.285-10.479 88.678-31.983 129.57-22.118 42.052-53.146 79.497-92.262 111.343-40.175 32.7-88.235 58.982-142.916 78.165-54.716 19.217-114.142 28.979-176.572 28.979zM512.068 928.119c70.417 0 136.806-10.923 199.202-32.87 62.464-21.914 116.907-51.814 163.362-89.634 46.49-37.854 83.012-82.022 109.568-132.506 26.59-50.483 39.834-104.277 39.834-161.382 0-65.092-17.237-125.884-51.814-182.306-34.509-56.457-80.35-103.936-137.455-142.438-1.297-3.959-1.98-8.294-1.98-12.937 0-4.676 0-9.66 0-14.95 0-34.543 12.629-66.389 37.854-95.607 25.259-29.218 55.125-52.463 89.634-69.734v-25.907c-63.761 1.331-127.488 9.967-191.249 25.907s-122.846 51.098-177.323 105.574c-13.244-1.331-26.556-2.321-39.834-2.97-13.278-0.717-26.556-0.99-39.834-0.99-70.383 0-136.772 10.957-199.202 32.87s-116.873 51.473-163.362 88.678c-46.49 37.171-82.978 80.964-109.568 131.482-26.556 50.483-39.834 104.892-39.834 163.362 0 57.105 13.312 110.865 39.834 161.382 26.59 50.483 63.078 94.618 109.568 132.506 46.49 37.82 100.966 67.721 163.362 89.634 62.464 21.914 128.853 32.836 199.236 32.836v0z" />
<glyph unicode="&#xe90e;" glyph-name="textballoon-fill-right" horiz-adv-x="1065" d="M553.312 960c-178.325-1.622-317.292-52.872-427.921-168.594-178.283-186.516-163.854-463.973 31.457-633.274 122.085-105.826 265.46-146.702 425.093-135.391 15.926 1.123 31.748 4.657 47.632 4.782 0.618 0.016 1.346 0.025 2.076 0.025 11.423 0 22.322-2.247 32.278-6.323 79.83-34.785 160.77-68.987 247.967-81.586 41.291-5.967 84.183-3.306 126.181-1.164 20.999 1.060 23.681 11.456 8.753 27.028-16.342 16.986-34.472 32.268-51.978 48.11-34.409 31.041-64.14 65.159-81.335 109.278-7.942 20.354-4.969 34.617 11.082 49.898 65.138 61.604 111.294 135.599 129.694 223.774 33.993 161.837-13.826 300.015-131.815 412.931-108.009 103.331-240.344 148.573-369.166 150.506z" />
<glyph unicode="&#xe90f;" glyph-name="textballoon-fill-left" horiz-adv-x="1065" d="M511.688 960c178.325-1.622 317.292-52.872 427.921-168.594 178.283-186.516 163.854-463.973-31.457-633.274-122.085-105.826-265.46-146.702-425.093-135.391-15.926 1.123-31.748 4.657-47.632 4.782-0.618 0.016-1.346 0.025-2.076 0.025-11.423 0-22.322-2.247-32.278-6.323-79.83-34.785-160.77-68.987-247.967-81.586-41.291-5.967-84.183-3.306-126.181-1.164-20.999 1.060-23.681 11.456-8.753 27.028 16.342 16.986 34.472 32.268 51.978 48.11 34.409 31.041 64.14 65.159 81.335 109.278 7.942 20.354 4.969 34.617-11.082 49.898-65.138 61.604-111.294 135.599-129.694 223.774-33.993 161.837 13.826 300.015 131.815 412.931 108.009 103.331 240.344 148.573 369.166 150.506z" />
<glyph unicode="&#xe910;" glyph-name="facebook" d="M581.1-64v470.5h207.6v207.6h-207.6v82.7c0 33.4 21.4 55.7 39.8 55.7h167.8v207.5h-167.9c-128.7 0-233.5-125.6-233.5-265.1v-80.9h-152.2v-207.6h152.2v-470.4h193.8z" />
<glyph unicode="&#xe911;" glyph-name="tie" horiz-adv-x="511" d="M410.552 960c-4.029-6.836-8.057-13.551-12.208-19.899-14.835-22.26-32.556-41.185-52.917-56.846-6.739 4.426-14.568 7.422-23.087 7.647l-144.348 0.001c-5.616-0.026-10.942-1.237-15.75-3.395l0.246 0.099c-4.756-2.184-8.805-5.1-12.193-8.652-24.748 21.393-43.825 48.684-55.135 79.709l-95.159 1.336c0-0.855 0-1.709 0.732-2.564 25.637-84.113 71.050-146.495 138.072-176.404v-22.463c0.069-21.682 17.627-39.24 39.303-39.309h2.692c-57.255-149.913-89.728-414.215-89.728-532.509l158.703-250.629 158.703 250.629c0 11.475 0 24.416-0.977 38.455-1.343 30.642-4.029 66.289-8.057 105.232v1.709c-2.32 21.608-5.005 44.193-8.179 67.144 0 1.465 0 2.808 0 4.273-1.587 11.353-3.174 22.829-5.005 34.426 0 0.855 0 1.709 0 2.564-1.709 10.987-3.54 22.096-5.371 33.206l-0.732 4.151c-1.343 7.935-2.808 15.87-4.273 23.805-0.855 4.517-1.587 9.156-2.442 13.795-1.343 7.325-2.808 14.527-4.273 21.73-0.977 5.127-1.953 10.255-3.052 15.382s-2.93 13.185-4.395 19.777-2.32 11.109-3.662 16.603-2.197 8.79-3.296 13.307c-1.831 7.325-3.54 14.894-5.494 22.096 0 2.32-1.221 4.639-1.831 6.959-2.442 9.034-4.883 18.068-7.325 26.735l-1.221 4.029c-5.982 20.143-12.208 39.187-18.8 56.645v0 0h2.686c21.682 0.069 39.24 17.627 39.309 39.303v29.184c45.714 24.78 83.182 59.474 110.505 101.386 14.014 21.17 26.7 44.214 37.459 68.307l-99.499 3.049zM250.14 718.649v0 0 0z" />
<glyph unicode="&#xe912;" glyph-name="data-new" d="M682.333 25.307c-188.67 0-341.645 145.252-341.645 324.42s152.974 324.42 341.645 324.42c188.693 0 341.667-145.252 341.667-324.42s-152.974-324.42-341.667-324.42zM865.284 396.037h-134.148v127.405h-97.584v-127.405h-134.148v-92.644h134.148v-127.383h97.584v127.383h134.148v92.644zM302.812 514.295c-175.718 23.857-302.811 92.51-302.811 173.648 0 100.989 196.593 182.751 439.051 182.751 232.244 0 421.937-75.085 437.515-170.155-56.395 28.794-123.006 45.666-193.559 45.666-0.237 0-0.474 0-0.711-0.001h0.036c-168.686 0-313.649-95.181-379.521-231.91zM18.783 556.622c63.024-46.556 158.382-77.823 263.622-93.311-11.126-33.941-17.562-73.004-17.603-113.565v-0.020c0-20.808 2.203-41.059 5.452-60.999-158.761 27.417-270.254 92.065-270.254 166.905v92.199c0.088 2.344 0.902 4.482 2.222 6.213l-0.019-0.026c2.269 2.886 5.761 4.723 9.681 4.723 2.575 0 4.965-0.792 6.939-2.146l-0.042 0.027zM18.783 318.993c63.78-47.267 160.652-78.691 267.383-93.89 26.238-75.219 75.508-140.267 139.911-187.958-236.85 2.871-426.076 83.053-426.076 180.637v92.399c0.088 2.351 0.902 4.497 2.223 6.236l-0.020-0.027c2.274 2.882 5.766 4.716 9.686 4.716 2.572 0 4.961-0.789 6.935-2.139l-0.042 0.027z" />
<glyph unicode="&#xe913;" glyph-name="code" d="M1006.684 404.95l-214.835-225.446c-11.62-12.521-28.17-20.336-46.543-20.336-35.030 0-63.43 28.4-63.43 63.43 0 16.659 6.422 31.817 16.924 43.136l-0.037-0.041 173.507 182.258-173.692 182.442c-10.677 11.226-17.243 26.446-17.243 43.199 0 18.044 7.619 34.31 19.813 45.755l0.033 0.030c11.39 10.584 26.708 17.078 43.54 17.078 18.14 0 34.521-7.542 46.171-19.664l0.021-0.022 215.766-225.262c10.724-11.237 17.321-26.491 17.321-43.282s-6.598-32.049-17.345-43.308l0.025 0.026zM485.418 203.145c-9.595-23.898-32.572-40.465-59.418-40.465-8.151 0-15.949 1.526-23.115 4.313l0.436-0.15c-15.781 6.075-28.223 17.852-35.025 32.744l-0.161 0.392c-3.511 7.534-5.555 16.353-5.555 25.651 0 8.12 1.561 15.877 4.399 22.985l-0.148-0.419 172.388 445.31c9.595 23.898 32.572 40.465 59.418 40.465 8.151 0 15.949-1.526 23.115-4.313l-0.436 0.15c15.781-6.075 28.223-17.852 35.025-32.744l0.161-0.392c3.499-7.537 5.54-16.359 5.54-25.658 0-8.116-1.556-15.872-4.384-22.98l0.149 0.421zM150.877 448.326l173.507-182.442c10.669-11.223 17.231-26.439 17.231-43.189 0-17.862-7.464-33.979-19.441-45.404l-0.027-0.025c-11.39-10.584-26.708-17.078-43.54-17.078-18.14 0-34.521 7.542-46.171 19.664l-215.044 225.284c-10.767 11.219-17.393 26.475-17.393 43.282s6.629 32.068 17.413 43.305l214.814 225.424c11.67 12.14 28.051 19.686 46.192 19.686 16.834 0 32.149-6.494 43.581-17.115l-0.041 0.037c12.236-11.476 19.861-27.748 19.861-45.799 0-16.567-6.422-31.636-16.914-42.85l0.032 0.035z" />
<glyph unicode="&#xe914;" glyph-name="at" d="M571.451 960c-301.893 0-551.423-224.915-551.423-564.695 0-315.727 223.369-459.305 463.461-459.305 85.552 0 161.588 16.786 235.274 55.054l-42.846 110.008c-47.505-23.913-118.802-43.047-175.824-43.047-178.253 0-344.659 105.249-344.659 342.069 0 265.613 199.676 437.882 399.352 437.882 240.013 0 323.217-157.934 323.217-320.566 0-122.095-64.109-203.411-135.466-203.411-47.525 0-64.19 28.771-49.934 88.524l57.082 272.74h-123.621l-19.014-50.195h-2.329c-19.095 43.067-49.934 59.772-87.962 59.772-135.486 0-244.771-145.947-244.771-299.022 0-110.028 64.109-184.276 161.568-184.276 47.525 0 111.714 31.121 142.634 79.027h2.349c14.256-57.463 72.482-90.953 142.574-90.953 130.788 0 282.859 110.028 282.859 332.573 0 255.955-168.736 437.821-432.522 437.821zM545.268 376.17c-26.161-35.839-45.175-47.766-66.539-47.766-35.678 0-54.673 25.058-54.673 69.33 0 64.531 38.007 157.934 99.788 157.934 21.424 0 39.232-12.007 47.605-28.711l-26.181-150.786z" />
<glyph unicode="&#xf00c;" glyph-name="check" d="M954.857 627.428c0-14.286-5.714-28.571-16-38.857l-491.429-491.429c-10.286-10.286-24.571-16-38.857-16s-28.571 5.714-38.857 16l-284.571 284.571c-10.286 10.286-16 24.571-16 38.857s5.714 28.571 16 38.857l77.714 77.714c10.286 10.286 24.571 16 38.857 16s28.571-5.714 38.857-16l168-168.571 374.857 375.429c10.286 10.286 24.571 16 38.857 16s28.571-5.714 38.857-16l77.714-77.714c10.286-10.286 16-24.571 16-38.857z" />
<glyph unicode="&#xf01e;" glyph-name="repeat" horiz-adv-x="878" d="M877.714 804.571v-256c0-20-16.571-36.571-36.571-36.571h-256c-14.857 0-28 9.143-33.714 22.857-5.714 13.143-2.857 29.143 8 39.429l78.857 78.857c-53.714 49.714-124.571 78.286-199.429 78.286-161.143 0-292.571-131.429-292.571-292.571s131.429-292.571 292.571-292.571c90.857 0 174.857 41.143 230.857 113.714 2.857 4 8 6.286 13.143 6.857 5.143 0 10.286-1.714 14.286-5.143l78.286-78.857c6.857-6.286 6.857-17.143 1.143-24.571-83.429-100.571-206.857-158.286-337.714-158.286-241.714 0-438.857 197.143-438.857 438.857s197.143 438.857 438.857 438.857c112.571 0 221.714-45.143 302.286-121.143l74.286 73.714c10.286 10.857 26.286 13.714 40 8 13.143-5.714 22.286-18.857 22.286-33.714z" />
<glyph unicode="&#xf05a;" glyph-name="info-circle" horiz-adv-x="878" d="M585.143 164.571v91.429c0 10.286-8 18.286-18.286 18.286h-54.857v292.571c0 10.286-8 18.286-18.286 18.286h-182.857c-10.286 0-18.286-8-18.286-18.286v-91.429c0-10.286 8-18.286 18.286-18.286h54.857v-182.857h-54.857c-10.286 0-18.286-8-18.286-18.286v-91.429c0-10.286 8-18.286 18.286-18.286h256c10.286 0 18.286 8 18.286 18.286zM512 676.571v91.429c0 10.286-8 18.286-18.286 18.286h-109.714c-10.286 0-18.286-8-18.286-18.286v-91.429c0-10.286 8-18.286 18.286-18.286h109.714c10.286 0 18.286 8 18.286 18.286zM877.714 438.857c0-242.286-196.571-438.857-438.857-438.857s-438.857 196.571-438.857 438.857 196.571 438.857 438.857 438.857 438.857-196.571 438.857-438.857z" />
<glyph unicode="&#xf600;" glyph-name="outdoor" d="M923.404 626.523c0 3.421 0 3.421 0 6.839 0 68.4-51.3 123.12-116.279 126.541-23.941 27.359-58.142 44.459-95.759 44.459-44.461 0-85.499-23.941-109.44-58.14-17.101 10.26-41.040 17.101-61.56 17.101-71.82-3.421-129.96-58.142-129.96-129.96 0-3.421 0-3.421 0-6.839-51.3-17.101-85.499-64.981-85.499-119.7 0-3.421 0-6.839 0-6.839h-307.801v-68.402h68.4v-34.201h-68.4v-34.201h68.4v-68.402h307.801v68.402h68.4v17.101c20.52 0 37.621 6.839 54.719 17.101 20.52-10.26 41.040-17.101 64.979-17.101 13.681 0 30.78 3.421 41.040 6.839v-222.3h-41.040v-44.461h171.002v41.040h-41.040v212.040c6.839 0 13.681 0 20.52 3.421 6.839 0 13.681-3.421 20.52-3.421 23.941 0 44.461 6.839 64.979 17.101 20.52-10.26 41.040-17.101 64.979-17.101 71.82 0 126.541 58.142 126.541 126.541 0 61.56-37.621 109.44-85.499 126.541zM119.7 428.161h232.562c3.421-3.421 3.421-6.839 6.839-10.26v-23.941h-239.4v34.201zM359.101 325.561h-239.4v34.201h239.4v-34.201zM359.101 257.161h-342.002v-34.201h34.201v-102.6h68.4v102.6h34.201v-68.402h34.201v68.402h102.6v-68.402h34.199v68.402h34.199v-102.6h68.4v102.6h34.199v34.201h-34.199z" />
<glyph unicode="&#xf601;" glyph-name="changingrooms" d="M940.505 298.201l-362.52 201.782c0 20.52 13.681 41.040 30.78 51.3 58.142 34.201 95.759 95.759 95.759 164.161 0 106.019-85.499 191.522-191.522 191.522s-191.52-85.501-191.52-191.522c0-34.199 27.361-64.979 64.981-64.979s64.981 27.361 64.981 64.979c0 34.201 27.361 64.981 64.981 64.981s64.979-27.361 64.979-64.981c0-23.941-13.681-44.459-30.78-54.719-58.14-34.201-95.759-95.759-95.759-160.742l-365.941-205.201c-54.719-30.78-88.92-92.34-88.92-150.482 0-68.4 58.142-126.541 126.541-126.541h769.503c71.82 0 126.541 58.142 126.541 126.541 3.421 58.142-30.78 119.7-82.080 153.901zM129.96 144.301c0 13.681 13.679 37.621 20.52 41.040l362.52 205.201 359.101-201.78c10.26-6.839 23.941-30.78 23.941-44.461h-766.082z" />
<glyph unicode="&#xf602;" glyph-name="parking" d="M759.243 978.783h-513.002c-71.82 0-126.541-58.14-126.541-129.96v-769.503c0-71.82 58.14-126.541 126.541-126.541h513.002c71.82 0 126.541 58.142 126.541 126.541v769.503c3.421 71.82-54.719 129.96-126.541 129.96zM837.905 79.32c0-41.040-34.201-75.239-75.239-75.239h-513.002c-41.040 0-75.241 34.201-75.241 75.239v769.503c0 41.040 34.201 75.241 75.241 75.241h513.002c41.040 0 75.239-34.201 75.239-75.241v-769.503zM540.363 602.582c-3.421 6.839-6.839 13.681-13.681 17.101s-17.101 6.839-27.361 6.839h-34.199v-150.482h30.78c13.681 0 23.941 3.421 30.78 6.839s13.681 10.26 17.101 13.681c3.421 6.839 6.839 13.681 6.839 23.941s0 20.52 0 30.78c0 10.26 0 20.52 0 30.78-3.421 6.839-6.839 13.681-10.26 20.52zM731.881 876.182h-454.862c-37.619 0-68.4-30.78-68.4-68.402v-684.004c0-37.621 30.78-68.402 68.4-68.402h454.862c37.621 0 68.402 30.78 68.402 68.402v684.004c0 37.621-30.78 68.402-68.402 68.402zM601.922 499.982c-3.421-13.681-6.839-27.361-13.681-37.621-10.26-13.681-20.52-23.941-34.201-34.201s-34.201-13.681-58.14-13.681h-30.78v-171.002h-61.56v441.182h95.759c17.099 0 30.78-3.421 44.459-6.839s23.941-13.681 34.201-23.941c10.26-10.26 17.101-23.941 20.52-41.040 3.421-13.681 6.839-37.621 6.839-61.56 0-20.52 0-37.621-3.421-51.3z" />
<glyph unicode="&#xf603;" glyph-name="weelchair" d="M687.423 157.98c-17.101 10.26-41.040 6.839-51.3-13.681-47.882-75.239-126.541-119.7-215.461-119.7-140.222 0-253.080 116.279-253.080 256.501 0 82.080 41.040 160.742 106.019 208.619 17.101 13.681 20.52 34.201 6.839 51.3s-34.201 20.52-51.3 10.26c-85.499-61.56-136.799-164.161-136.799-270.182 0-181.262 147.059-331.742 328.321-331.742 112.86 0 218.879 58.142 277.021 157.321 13.681 17.101 10.26 41.040-10.26 51.3zM947.344 134.041c-6.839 20.52-27.361 30.78-47.882 23.941l-44.461-17.101c0 0-82.080 232.56-85.499 235.981 0 0-3.421 3.421-3.421 6.839-10.26 17.101-30.78 30.78-51.3 30.78h-194.941l-3.421 71.82h160.742c20.52 0 37.621 17.101 37.621 37.619s-17.101 37.621-37.621 37.621h-164.161l-6.839 106.019c0 0 0 3.421 0 3.421-3.421 51.3-47.88 92.34-99.18 88.922s-92.34-47.882-88.922-99.182v0 0l13.681-277.021c0 0 0 0 0 0 3.421-51.3 44.459-88.92 92.34-88.92 0 0 253.080 0 253.080 0l75.239-208.619c6.839-23.941 30.78-37.621 51.3-37.621 3.421 0 6.839 0 10.26 0s3.421 0 6.839 3.421l99.18 37.621c23.941 3.421 34.201 27.361 27.361 44.461zM412.353 805.49c-47.154-2.479-87.389 33.74-89.868 80.894s33.74 87.391 80.894 89.87c47.154 2.479 87.389-33.74 89.868-80.894s-33.74-87.391-80.894-89.87z" />
<glyph unicode="&#xf604;" glyph-name="tribune" d="M0 181.92h1026.004v-34.201h-1026.004v34.201zM444.602 147.72h136.799c37.621 0 68.4 30.78 68.4 68.402h-273.602c0-37.621 30.78-68.402 68.4-68.402zM786.604 147.72h136.801c37.621 0 68.4 30.78 68.4 68.402h-273.602c0-37.621 30.78-68.402 68.402-68.402zM581.404 523.922h-136.801c-37.621 0-68.4-30.78-68.4-68.402v-205.201h273.602v205.201c0 37.621-30.78 68.402-68.402 68.402zM564.302 462.362h-106.019c-10.26 0-17.101 6.839-17.101 17.101s6.839 17.101 17.101 17.101h106.019c10.26 0 17.101-6.839 17.101-17.101s-6.839-17.101-17.101-17.101zM923.404 523.922h-136.801c-37.621 0-68.402-30.78-68.402-68.402v-205.201h273.602v205.201c0 37.621-30.78 68.402-68.402 68.402zM906.304 462.362h-106.019c-10.26 0-17.101 6.839-17.101 17.101s6.839 17.101 17.101 17.101h106.019c10.26 0 17.101-6.839 17.101-17.101s-6.839-17.101-17.101-17.101zM547.203 455.521h273.602v-34.201h-273.602v34.201zM0 181.92h34.201v-102.6h-34.201v102.6zM991.803 181.92h34.201v-102.6h-34.201v102.6zM102.6 147.72h136.799c37.621 0 68.4 30.78 68.4 68.402h-273.602c0-37.621 30.78-68.402 68.4-68.402zM239.4 523.922h-136.799c-37.619 0-68.4-30.78-68.4-68.402v-205.201h273.602v205.201c0 37.621-30.78 68.402-68.4 68.402zM222.3 462.362h-102.6c-10.26 0-17.101 6.839-17.101 13.681 0 10.26 6.839 17.101 17.101 17.101h106.019c10.26 0 17.101-6.839 17.101-17.101-3.421-6.839-10.26-13.681-20.52-13.681zM205.201 455.521h273.602v-34.201h-273.602v34.201zM786.604 541.022h34.201v119.7c0 37.619-30.78 68.4-68.402 68.4h-136.801c-37.621 0-68.4-30.78-68.4-68.4v-119.7h34.201c47.882 0 85.499-37.621 85.499-85.501v-34.201h34.201v34.201c0 47.882 37.621 85.499 85.499 85.499zM632.702 667.563c-10.26 0-17.101 6.839-17.101 13.681 0 10.26 6.839 17.101 17.101 17.101h106.019c10.26 0 17.101-6.839 17.101-17.101-3.421-6.839-10.26-13.681-20.52-13.681h-102.6zM444.602 541.022h34.199v119.7c0 37.619-30.78 68.4-68.4 68.4h-136.799c-37.619 0-68.4-30.78-68.4-68.4v-119.7h34.201c47.882 0 85.499-37.621 85.499-85.501v-34.201h34.199v34.201c0 47.882 37.621 85.499 85.499 85.499zM290.7 667.563c-10.26 0-17.101 6.839-17.101 13.681 0 10.26 6.839 17.101 17.101 17.101h106.019c10.26 0 17.101-6.839 17.101-17.101-3.421-6.839-10.26-13.681-20.52-13.681h-102.6z" />
<glyph unicode="&#xf605;" glyph-name="toilet" d="M410.402 838.563h34.199v-786.604h-34.199v786.604zM978.122 397.381l-95.759 147.061-37.621-75.239 133.381-218.882h-123.12l-20.52-198.359h-95.759l-20.52 198.359h-123.12l133.381 218.879-37.621 75.241-95.759-147.061h-47.882l78.66 201.782c10.26 27.361 37.621 44.459 64.979 44.459h47.882l47.882-99.18 47.882 99.18h47.882c27.361 0 54.719-17.101 64.979-44.459l78.662-201.782h-47.882zM786.604 691.502c-41.040 0-71.82 34.201-71.82 75.241 0 37.619 30.78 71.82 71.82 71.82s71.82-34.201 71.82-75.239c0-37.621-30.78-71.82-71.82-71.82zM208.619 346.081l-27.359-294.122h-88.92l-27.361 294.122h-64.979v259.922c20.52 10.26 44.459 20.52 71.82 27.361l64.979-140.222 64.979 140.222c27.359-6.839 51.3-13.681 71.82-27.361v-259.922h-64.981zM136.799 691.502c-37.619 0-68.4 34.201-68.4 75.241 0 37.619 30.78 71.82 68.4 71.82s68.4-34.201 68.4-75.239c0-37.621-30.78-71.82-68.4-71.82z" />
<glyph unicode="&#xf606;" glyph-name="aed" d="M0 975.364v-1026.004h1026.004v1026.004h-1026.004zM694.264 274.261c0 0-205.201-222.3-270.182-249.662 0 0-246.241 201.78-321.482 324.903s-99.18 235.981 44.459 311.222c147.061 78.66 266.761-71.82 277.021-102.6 0 0 109.44 198.361 304.38 85.499 198.359-116.279-34.201-369.361-34.201-369.361zM957.602 770.163h-102.6v-102.6h-68.4v102.6h-102.6v68.402h102.6v102.6h68.402v-102.6h102.6v-68.402zM307.801 633.362v-376.201l119.7 88.92-13.681-191.522-44.459 13.681 54.719-109.44 78.662 92.34h-37.621l47.882 311.222-136.801-68.402v171.002l-68.4 68.402z" />
<glyph unicode="&#xf607;" glyph-name="shower" d="M758.173 161.070l-34.201 59.236 29.616 17.101 34.201-59.236-29.616-17.101zM688.649 278.946l-34.201 59.236 29.616 17.101 34.201-59.236-29.616-17.101zM622.203 398.507l-34.201 59.236 29.616 17.101 34.201-59.236-29.616-17.101zM582.508 533.351l-29.616-17.101-34.201 59.236 29.616 17.101 34.201-59.236zM930.96 346.484l24.187 24.179 48.358-48.372-24.187-24.179-48.358 48.372zM884.55 394.157l-48.364 48.364 24.183 24.183 48.364-48.366-24.183-24.183zM787.835 492.327l-48.372 48.364 24.183 24.187 48.372-48.364-24.183-24.187zM667.049 658.75l48.372-48.358-24.179-24.187-48.372 48.358 24.179 24.187zM561.515 74.408l-17.703 66.067 33.035 8.851 17.703-66.067-33.035-8.851zM507.876 271.898l33.035 8.853 17.709-66.067-33.035-8.853-17.709 66.067zM474.21 402.257l33.033 8.853 17.709-66.067-33.033-8.853-17.709 66.067zM436.336 535.012l33.033 8.853 17.709-66.069-33.033-8.853-17.709 66.067zM328.321 103.261h34.199v-68.4h-34.199v68.402zM328.321 240.060h34.199v-68.402h-34.199v68.402zM328.321 376.861h34.199v-68.4h-34.199v68.402zM328.321 513.662h34.199v-68.402h-34.199v68.402zM581.404 848.823l-106.019-61.56c-37.621 82.080-119.7 136.801-215.461 136.801-133.381 0-239.4-106.021-239.4-239.402v-684.004h136.799v684.004c0 58.142 44.459 102.6 102.6 102.6 44.459 0 82.080-27.359 95.759-68.4l-126.541-75.239 51.3-88.922 355.683 205.201-54.721 88.92z" />
<glyph unicode="&#xf60a;" glyph-name="addtocalender" d="M239.4 838.563c20.52 0 34.199 13.681 34.199 34.201v68.402c0 20.52-13.681 34.199-34.201 34.199s-34.201-13.679-34.201-34.199v-68.402c0-20.52 13.679-34.201 34.201-34.201zM684.004 838.563c20.52 0 34.201 13.681 34.201 34.201v68.402c0 20.52-13.681 34.199-34.201 34.199s-34.201-13.679-34.201-34.199v-68.402c0-20.52 13.681-34.201 34.201-34.201zM205.201 599.161h102.6v-102.6h-102.6v102.6zM410.402 599.161h102.6v-102.6h-102.6v102.6zM581.404 599.161h102.6v-102.6h-102.6v102.6zM205.201 428.161h102.6v-102.6h-102.6v102.6zM410.402 428.161h102.6v-102.6h-102.6v102.6zM68.4 51.96h581.404v-68.4h-581.404v68.402zM957.602 804.362h68.402v-444.6h-68.402v444.602zM68.4 701.762h752.402v-342.002h68.402v513.002h-102.6c0-58.14-44.461-102.6-102.6-102.6s-102.6 44.461-102.6 102.6h-239.4c0-58.14-44.459-102.6-102.6-102.6s-102.6 44.461-102.6 102.6h-136.799v-752.402h649.803v68.402h-581.404v513.002zM855.002 325.561c-95.759 0-171.002-75.239-171.002-171.002s75.239-171.002 171.002-171.002 171.002 75.239 171.002 171.002c0 95.759-75.239 171.002-171.002 171.002zM957.602 120.36h-68.402v-68.4h-68.402v68.402h-68.402v68.402h68.402v68.402h68.402v-68.402h68.402v-68.402zM581.404 428.161h102.6v-102.6h-102.6v102.6z" />
<glyph unicode="&#xf60b;" glyph-name="bar" d="M834.482 400.802c0-68.402-58.142-126.541-126.541-126.541h-386.461c-71.82 0-126.541 54.719-126.541 126.541v437.763h639.543v-61.56c106.019 0 191.522-85.499 191.522-188.099 0-106.019-85.499-188.101-191.52-188.101zM321.482 777.003h-64.981v-376.203c0-34.201 27.361-61.56 64.981-61.56v437.763zM834.482 712.022v-249.662c71.82 0 126.541 54.721 126.541 126.541 0 68.402-58.142 123.12-126.541 123.12zM1026.004 147.72c0-34.201-27.361-61.56-64.979-61.56h-896.044c-34.201 0-64.979 27.361-64.979 61.56s27.359 61.56 64.979 61.56h896.044c37.621 3.421 64.979-27.361 64.979-61.56z" />
<glyph unicode="&#xf60c;" glyph-name="bikeroute" d="M800.283 527.341c123.12 0 225.721-102.6 225.721-229.142s-99.18-229.14-225.721-229.14c-123.12 0-225.721 102.6-225.721 229.14 0 78.66 41.040 150.482 99.18 191.522l-13.681 23.939-37.621 71.82-3.421 10.26h-232.56c-27.361 0-51.3-17.101-58.14-44.461l-13.681-41.040c78.662-37.621 133.381-116.281 133.381-208.621 0-126.541-99.182-229.14-225.721-229.14s-222.3 99.18-222.3 225.721c0 126.541 99.18 229.14 225.721 229.14 10.26 0 20.52-3.421 30.78-3.421l34.199 112.86c3.421 13.681 17.101 23.941 30.78 23.941h338.581l58.142 129.96h-109.44c-17.101 0-30.78 13.681-30.78 34.201 0 17.101 13.681 34.201 30.78 34.201h160.742c10.26 0 20.52-6.839 27.361-13.681 6.839-10.26 6.839-20.52 3.421-30.78l-10.26-20.52-92.34-201.78 37.621-71.82c20.52 3.421 44.461 6.839 64.979 6.839zM297.541 445.261l-34.199-102.6c-3.421-6.839-6.839-13.681-17.101-20.52-6.839-3.421-17.101-3.421-23.941-3.421-17.101 6.839-23.941 27.361-20.52 44.461l30.78 99.18c-3.421 0-6.839 0-10.26 0-88.92 0-160.74-71.82-160.74-164.161 0-88.92 71.82-164.161 160.74-164.161s160.74 71.82 160.74 164.161c3.421 64.979-34.199 119.7-85.499 147.061zM639.543 298.201c0-88.92 71.82-164.161 160.742-164.161s160.742 71.82 160.742 164.161c0 88.92-71.82 164.161-160.742 164.161-10.26 0-23.941 0-34.201-3.421l78.662-147.061c3.421-6.839 3.421-17.101 3.421-23.941-3.421-6.839-6.839-17.101-17.101-20.52v0c-17.101-6.839-34.201-3.421-41.040 13.681l-82.080 153.901c-41.040-34.201-68.4-82.080-68.4-136.801zM321.482 725.702h-95.759c-17.101 0-30.78 13.681-30.78 34.201 0 17.101 13.679 34.201 30.78 34.201h191.52c6.839 0 10.26-3.421 10.26-6.839 3.421-3.421 0-10.26-3.421-13.681-27.361-30.78-54.719-47.882-102.6-47.882z" />
<glyph unicode="&#xf60d;" glyph-name="publictransport" d="M995.224 493.142h-30.78v191.522h30.78c17.101 0 30.78-13.681 30.78-30.78v-126.541c0-20.52-13.681-34.199-30.78-34.199zM834.482 110.1v-64.979c0-34.201-27.361-64.979-64.979-64.979h-64.979c-34.201 0-64.979 27.361-64.979 64.979v64.979h-256.501v-64.979c0-34.201-27.361-64.979-64.981-64.979h-61.56c-34.201 0-64.981 27.361-64.981 64.979v64.979c-34.201 0-64.979 27.361-64.979 64.979v574.562c3.419 106.019 88.92 191.522 194.941 191.522h383.042c106.019 0 191.52-85.501 191.52-191.522v-574.562c0-34.201-27.361-64.979-61.56-64.979zM256.501 175.081c34.199 0 64.981 27.361 64.981 64.979 0 34.201-27.361 64.979-64.981 64.979-34.201 0-64.981-27.361-64.981-64.979s30.78-64.979 64.981-64.979zM639.543 876.182h-256.501v-64.979h256.501v64.979zM834.482 749.643h-642.962v-383.042h639.543v383.042zM769.503 301.62c-34.201 0-64.979-27.361-64.979-64.979 0-34.201 27.361-64.979 64.979-64.979 34.201 0 64.979 27.361 64.979 64.979s-30.78 64.979-64.979 64.979zM0 527.341v126.541c0 17.101 13.681 30.78 30.78 30.78h30.78v-191.52h-30.78c-17.101 0-30.78 13.681-30.78 34.199z" />
<glyph unicode="&#xf60e;" glyph-name="directions" d="M513.002 975.364c-283.862 0-513.002-229.14-513.002-513.002s229.142-513.002 513.002-513.002 513.002 229.14 513.002 513.002-229.14 513.002-513.002 513.002zM448.021 79.32v321.48h-318.061l639.543 321.482-321.482-642.964z" />
</font>
</defs>
</svg>
